<?xml version="1.0" encoding="UTF-8" standalone="no"?>
<svg
   xmlns:dc="http://purl.org/dc/elements/1.1/"
   xmlns:cc="http://creativecommons.org/ns#"
   xmlns:rdf="http://www.w3.org/1999/02/22-rdf-syntax-ns#"
   xmlns:svg="http://www.w3.org/2000/svg"
   xmlns="http://www.w3.org/2000/svg"
   viewBox="0 0 729.77332 329.30667"
   height="329.30667"
   width="729.77332"
   xml:space="preserve"
   id="svg2"
   version="1.1"><metadata
     id="metadata8"><rdf:RDF><cc:Work
         rdf:about=""><dc:format>image/svg+xml</dc:format><dc:type
           rdf:resource="http://purl.org/dc/dcmitype/StillImage" /></cc:Work></rdf:RDF></metadata><defs
     id="defs6"><clipPath
       id="clipPath52"
       clipPathUnits="userSpaceOnUse"><path
         id="path50"
         d="m 4112.99,1821.3 c 37.56,-25.02 63.05,-52.99 80.97,-87.03 19.11,-36.33 29.16,-73.95 30.84,-116.23 1.94,-48.47 -2.27,-101.78 -16.02,-151.81 1.91,2.59 11.34,12.74 18.82,24.59 32.83,52.06 101.63,183.22 51.1,303.06 0,0 -47.87,106.19 -251.64,198.18 0,0 -225.88,96.88 -332.8,186.09 0,0 -182.27,155.92 -195.32,291.67 l -0.03,-0.24 c -80.81,-373.72 366.78,-476.29 614.08,-648.28 z" /></clipPath><linearGradient
       id="linearGradient60"
       spreadMethod="pad"
       gradientTransform="matrix(-970.741,560.458,560.458,970.741,4341.13,1686.7)"
       gradientUnits="userSpaceOnUse"
       y2="0"
       x2="1"
       y1="0"
       x1="0"><stop
         id="stop54"
         offset="0"
         style="stop-opacity:1;stop-color:#fab21e" /><stop
         id="stop56"
         offset="0.815673"
         style="stop-opacity:1;stop-color:#fbc31b" /><stop
         id="stop58"
         offset="1"
         style="stop-opacity:1;stop-color:#fbc31b" /></linearGradient><clipPath
       id="clipPath70"
       clipPathUnits="userSpaceOnUse"><path
         id="path68"
         d="m 4868.23,1822.61 c -2.26,1.51 -4.27,2.46 -5.87,3.1 -5.7,2.29 -12.04,3.67 -21.87,3.67 -7.15,0 -15.53,-0.77 -25.43,-2.42 0,0 -9.27,-1.54 -25.91,-1.54 -20.7,0 -52.86,2.31 -93.1,12.91 0,0 -28.68,6.13 -68.41,6.13 -59.37,0 -143.29,-13.87 -193.24,-83.11 0,0 -60.83,-76.49 -113.88,-204.54 0,0 -97.14,-203.42 -228.03,-286.12 0,0 -137.58,-106.11 -324.59,-132.71 0,0 -49.42,-9.16 -116.16,-9.16 -51.74,0 -113.98,5.59 -171.27,25.22 0,0 -91.99,22.09 -174.64,66.19 -27.66,14.76 -59.46,31.83 -81.22,51.52 0,0 -4.07,-19.12 -4.2,-46.78 v -2.57 c 0.13,-31.91 5.7,-74.51 28.36,-112.5 0,0 3.28,-7.29 8.44,-16.2 42.81,-37.33 96.3,-50.4 149.56,-50.4 124.4,0 269.33,69.46 389.88,76.65 173.05,0 365.23,22.43 500.04,118.4 100.78,71.82 168.21,193.3 223.71,322.86 55.97,140.12 190.91,227.36 347.83,261.4 z" /></clipPath><linearGradient
       id="linearGradient82"
       spreadMethod="pad"
       gradientTransform="matrix(1304.3,1094.44,1094.44,-1304.3,3386.17,940.02)"
       gradientUnits="userSpaceOnUse"
       y2="0"
       x2="1"
       y1="0"
       x1="0"><stop
         id="stop72"
         offset="0"
         style="stop-opacity:1;stop-color:#f4b51f" /><stop
         id="stop74"
         offset="0.00400246"
         style="stop-opacity:1;stop-color:#f4b51f" /><stop
         id="stop76"
         offset="0.327528"
         style="stop-opacity:1;stop-color:#f2a61f" /><stop
         id="stop78"
         offset="0.521609"
         style="stop-opacity:1;stop-color:#fbc31b" /><stop
         id="stop80"
         offset="1"
         style="stop-opacity:1;stop-color:#fbc31b" /></linearGradient><clipPath
       id="clipPath94"
       clipPathUnits="userSpaceOnUse"><path
         id="path92"
         d="m 4929.87,1311.96 c -33.93,0 -68.04,2.66 -101.24,9.48 -22.35,4.58 -44.24,11.16 -66.67,15.45 -19.36,3.63 -38.96,6.18 -58.66,7.49 -9.07,0.62 -18.23,0.89 -27.37,0.89 -37.99,0 -59.83,-5.44 -59.83,-5.44 -65.24,-17.01 -114.91,-45.17 -142.82,-63.64 -6.48,-4.29 -16.61,-11.32 -20.67,-14.3 8.81,2.67 22.56,7.69 31.52,8.83 21.76,2.78 43.71,1.96 64.77,1.96 54.48,0 105.85,-25.16 159.66,-37.23 53.64,-12.2 108.71,-17.13 163.12,-17.13 30.52,0 64.42,5.26 95.32,14.93 136.25,52.47 261.51,106.16 368.2,217.74 l 7.35,8.85 c -79.26,-60.7 -239.85,-114.57 -239.85,-114.57 -58.73,-26.08 -121.19,-33.31 -172.83,-33.31 z" /></clipPath><linearGradient
       id="linearGradient102"
       spreadMethod="pad"
       gradientTransform="matrix(619.701,519.991,519.991,-619.701,4589.67,1098.55)"
       gradientUnits="userSpaceOnUse"
       y2="0"
       x2="1"
       y1="0"
       x1="0"><stop
         id="stop96"
         offset="0"
         style="stop-opacity:1;stop-color:#f9ab1f" /><stop
         id="stop98"
         offset="0.519377"
         style="stop-opacity:1;stop-color:#fbc31b" /><stop
         id="stop100"
         offset="1"
         style="stop-opacity:1;stop-color:#fbc31b" /></linearGradient><clipPath
       id="clipPath112"
       clipPathUnits="userSpaceOnUse"><path
         id="path110"
         d="m 5313.96,1697.15 c -61.06,-45.69 -135.01,-70.58 -209.43,-83.75 -103.5,-18.45 -215.05,14.15 -316,-20.2 -150.92,-50.11 -249.49,-213.4 -249.49,-213.4 3.27,2.09 6.59,4.1 9.86,6.16 125.6,150.57 369.12,64.92 544.03,116.32 156.52,39.17 304.26,149.11 362.91,305.86 -48.21,-50.03 -141.88,-110.99 -141.88,-110.99 z" /></clipPath><linearGradient
       id="linearGradient120"
       spreadMethod="pad"
       gradientTransform="matrix(748.913,628.413,628.413,-748.913,4632.49,1268.44)"
       gradientUnits="userSpaceOnUse"
       y2="0"
       x2="1"
       y1="0"
       x1="0"><stop
         id="stop114"
         offset="0"
         style="stop-opacity:1;stop-color:#f89f20" /><stop
         id="stop116"
         offset="0.682246"
         style="stop-opacity:1;stop-color:#fbc31b" /><stop
         id="stop118"
         offset="1"
         style="stop-opacity:1;stop-color:#fbc31b" /></linearGradient><clipPath
       id="clipPath130"
       clipPathUnits="userSpaceOnUse"><path
         id="path128"
         d="m 3842.6,1080.8 c -88.48,0 -208.05,-89.882 -208.05,-89.882 -76.77,-50.137 -142.43,-69.629 -142.43,-69.629 -20.66,-5.379 -39.75,-7.559 -57.32,-7.559 -55.32,0 -93.42,21.77 -108.27,31.95 44.37,-55.418 102.57,-104.25 161.62,-104.25 26.94,0 54.04,7.32 80.39,23.742 102.12,51.039 184.93,178.098 302.34,209.058 -8.68,5.24 -17.04,6.09 -20.95,6.33 -2.41,0.16 -4.86,0.24 -7.33,0.24 z" /></clipPath><linearGradient
       id="linearGradient138"
       spreadMethod="pad"
       gradientTransform="matrix(544.346,0,0,-544.346,3326.53,961.12)"
       gradientUnits="userSpaceOnUse"
       y2="0"
       x2="1"
       y1="0"
       x1="0"><stop
         id="stop132"
         offset="0"
         style="stop-opacity:1;stop-color:#f68d22" /><stop
         id="stop134"
         offset="0.134602"
         style="stop-opacity:1;stop-color:#fbc31b" /><stop
         id="stop136"
         offset="1"
         style="stop-opacity:1;stop-color:#fbc31b" /></linearGradient><clipPath
       id="clipPath148"
       clipPathUnits="userSpaceOnUse"><path
         id="path146"
         d="m 3928.35,1474.03 c 0,0 -134.74,10.42 -206.64,40.77 0,0 -142.32,49.32 -176.15,75.82 0,0 10.39,-13.48 15.63,-18.6 46.11,-45.11 99.52,-97.62 159.19,-120.04 44.81,-28.52 106.51,-50.73 166.61,-53.68 57.78,-2.83 114.07,7.67 152.32,-19.87 15.72,-11.32 22.37,-17.05 30.85,-32.25 2.96,-5.31 6.35,-15.05 8.25,-23.9 1.86,1.56 3.03,4.01 4.65,7.45 1.93,4.08 2.9,9.47 3.33,12.96 3.71,30.41 -0.4,85.1 -66.83,112.01 0,0 -24.15,10.65 -91.21,19.33 z" /></clipPath><linearGradient
       id="linearGradient158"
       spreadMethod="pad"
       gradientTransform="matrix(541.794,0,0,-541.794,3545.56,1456.45)"
       gradientUnits="userSpaceOnUse"
       y2="0"
       x2="1"
       y1="0"
       x1="0"><stop
         id="stop150"
         offset="0"
         style="stop-opacity:1;stop-color:#fbc31b" /><stop
         id="stop152"
         offset="0.246699"
         style="stop-opacity:1;stop-color:#fbc31b" /><stop
         id="stop154"
         offset="0.749648"
         style="stop-opacity:1;stop-color:#f9a820" /><stop
         id="stop156"
         offset="1"
         style="stop-opacity:1;stop-color:#f9a820" /></linearGradient><clipPath
       id="clipPath168"
       clipPathUnits="userSpaceOnUse"><path
         id="path166"
         d="m 3479.6,1836.78 c 151.23,-140.55 372.18,-168.14 566.75,-265.33 70.05,-30.07 90.33,-110.52 83.5,-191.63 8.9,20.29 44.24,104.41 14.33,189.95 0,0 -15.15,70.86 -191.81,138 0,0 -246.92,85.48 -328.3,138.74 0,0 -168.89,87.29 -222.03,225.08 0,0 -6.16,-21.27 -4.72,-52.77 11.73,-69.52 32.65,-140.72 82.28,-182.04 z" /></clipPath><linearGradient
       id="linearGradient176"
       spreadMethod="pad"
       gradientTransform="matrix(-650.193,-114.647,-114.647,650.193,4108.74,1786.15)"
       gradientUnits="userSpaceOnUse"
       y2="0"
       x2="1"
       y1="0"
       x1="0"><stop
         id="stop170"
         offset="0"
         style="stop-opacity:1;stop-color:#f9ab1f" /><stop
         id="stop172"
         offset="0.77238"
         style="stop-opacity:1;stop-color:#fbc31b" /><stop
         id="stop174"
         offset="1"
         style="stop-opacity:1;stop-color:#fbc31b" /></linearGradient><clipPath
       id="clipPath186"
       clipPathUnits="userSpaceOnUse"><path
         id="path184"
         d="m 4865.1,1824.12 c -157.16,-34.09 -302.19,-117.8 -358.29,-258.14 -54.85,-127.86 -114.03,-239.17 -213.01,-310.86 -115.86,-83.87 -292.61,-118.57 -433.04,-129.34 -46.74,-3.59 -93.56,-3.65 -139.94,-11.07 -42.82,-6.84 -84.95,-17.43 -127.12,-27.38 -42.21,-9.95 -84.59,-19.78 -127.65,-25.33 -22.99,-2.95 -46.16,-4.74 -69.34,-4.26 -50.94,1.03 -116.78,35.46 -157.9,71.31 4.64,-7.98 10.04,-25.58 21.89,-40.95 26.54,-34.43 72.46,-73.12 122.33,-76.93 0,0 70.82,-12.83 181.24,34.07 0,0 185.16,67.11 297.89,69.6 0,0 247.2,-2.29 352.26,35.14 79.38,28.34 144.7,63.76 212.34,148.75 67.67,85.01 85.24,156.17 107.02,201.71 0,0 65.66,136.7 145.84,201.47 0,0 102.14,87.67 194.94,115.83 0,0 -2.37,3.4 -9.46,6.38" /></clipPath><linearGradient
       id="linearGradient206"
       spreadMethod="pad"
       gradientTransform="matrix(1635.75,0,0,-1635.75,3238.81,1416.84)"
       gradientUnits="userSpaceOnUse"
       y2="0"
       x2="1"
       y1="0"
       x1="0"><stop
         id="stop188"
         offset="0"
         style="stop-opacity:1;stop-color:#d87528" /><stop
         id="stop190"
         offset="0.0963449"
         style="stop-opacity:1;stop-color:#d87528" /><stop
         id="stop192"
         offset="0.272649"
         style="stop-opacity:1;stop-color:#e69e22" /><stop
         id="stop194"
         offset="0.43046226"
         style="stop-opacity:1;stop-color:#d87d26" /><stop
         id="stop196"
         offset="0.518743"
         style="stop-opacity:1;stop-color:#d87d26" /><stop
         id="stop198"
         offset="0.52973014"
         style="stop-opacity:1;stop-color:#d87d26" /><stop
         id="stop200"
         offset="0.613897"
         style="stop-opacity:1;stop-color:#d87d26" /><stop
         id="stop202"
         offset="0.91248412"
         style="stop-opacity:1;stop-color:#fbc41b" /><stop
         id="stop204"
         offset="1"
         style="stop-opacity:1;stop-color:#fbc41b" /></linearGradient><clipPath
       id="clipPath216"
       clipPathUnits="userSpaceOnUse"><path
         id="path214"
         d="m 4117.12,1825.83 c -247.8,172.25 -689.17,279.78 -618.18,643.99 -1.11,-5.71 -63.12,-114.71 1.76,-265.26 0,0 47.2,-133.01 211.71,-234.02 0,0 136.68,-78.06 236.78,-116.86 0,0 214.93,-76.24 252.58,-216.72 1.75,-6.56 3.12,-13.26 4.07,-20.1 0.99,-7.22 1.6,-11.6 2.3,-22.24 0,0 0.91,-15.96 2.28,-37.3 1.91,-29.79 3.18,-69.89 -1.64,-91.09 l 0.81,1.09 c 1.55,2.88 2.26,5.57 3.2,8.35 1.21,3.62 1.85,7.22 2.72,10.8 4.51,18.56 7.12,37.02 9.69,55.54 15.28,110.13 -7.18,216.56 -108.08,283.82" /></clipPath><linearGradient
       id="linearGradient228"
       spreadMethod="pad"
       gradientTransform="matrix(-405.583,1114.33,1114.33,405.583,4054.72,1410.16)"
       gradientUnits="userSpaceOnUse"
       y2="0"
       x2="1"
       y1="0"
       x1="0"><stop
         id="stop218"
         offset="0"
         style="stop-opacity:1;stop-color:#c27528" /><stop
         id="stop220"
         offset="0.7071191"
         style="stop-opacity:1;stop-color:#fbc41b" /><stop
         id="stop222"
         offset="0.861165"
         style="stop-opacity:1;stop-color:#fbc41b" /><stop
         id="stop224"
         offset="0.98036532"
         style="stop-opacity:1;stop-color:#fbc41b" /><stop
         id="stop226"
         offset="1"
         style="stop-opacity:1;stop-color:#fbc41b" /></linearGradient><clipPath
       id="clipPath238"
       clipPathUnits="userSpaceOnUse"><path
         id="path236"
         d="m 4024.73,1593.28 c -23.95,10.48 -49.2,18.72 -73.26,28.4 -34.33,13.79 -69.07,26.57 -103.8,39.33 -19.86,7.3 -39.73,14.59 -59.54,22.05 -69.06,26.05 -137.5,53.83 -201.1,91.64 -35.44,21.07 -66.2,46.46 -97.76,72.73 -49.71,41.39 -80.29,101.77 -91.95,171.39 3.09,-63.19 20.25,-169.34 95.46,-236.55 0,0 68.85,-64.61 142.53,-95.02 0,0 118.24,-50.57 223.54,-79.77 0,0 194.64,-52.24 244.69,-129.99 0,0 33.24,-52.35 24.06,-102.43 0,0 0.9,1.69 2.25,4.76 1.89,4.28 2.06,9.52 2.31,14.12 0.46,8.71 0.54,17.51 0.59,26.22 0.04,6.01 -0.35,12 -0.49,18 -0.14,6.35 -0.48,12.71 -1.07,19.04 -1.2,12.78 -3.46,25.44 -7.29,37.71 -12.39,39.73 -41.15,68.61 -77.35,87.89 -7.1,3.78 -14.39,7.24 -21.82,10.48 z" /></clipPath><linearGradient
       id="linearGradient246"
       spreadMethod="pad"
       gradientTransform="matrix(-292.328,803.165,803.165,292.328,3916.6,1298.26)"
       gradientUnits="userSpaceOnUse"
       y2="0"
       x2="1"
       y1="0"
       x1="0"><stop
         id="stop240"
         offset="0"
         style="stop-opacity:1;stop-color:#cd7629" /><stop
         id="stop242"
         offset="0.27130167"
         style="stop-opacity:1;stop-color:#cd7629" /><stop
         id="stop244"
         offset="1"
         style="stop-opacity:1;stop-color:#fbc41b" /></linearGradient><clipPath
       id="clipPath256"
       clipPathUnits="userSpaceOnUse"><path
         id="path254"
         d="m 3716.58,1468.55 c -15.78,9.56 -120.32,75.54 -171.02,122.07 15.63,-24.64 104.06,-155.73 237.98,-203.05 0,0 75.46,-31.32 172,-27.37 0,0 6.7,0.98 17.06,1.48 28.92,1.37 86.33,-1.07 105.81,-39.4 0,0 0.75,-0.65 1.86,3.31 -5.73,26.8 -16.71,49.45 -31,60.14 -27.76,20.77 -69.07,12.77 -116.05,16.94 -73.47,6.53 -159.77,29.68 -216.64,65.88" /></clipPath><linearGradient
       id="linearGradient268"
       spreadMethod="pad"
       gradientTransform="matrix(-148.608,408.296,408.296,148.608,3888.44,1253.03)"
       gradientUnits="userSpaceOnUse"
       y2="0"
       x2="1"
       y1="0"
       x1="0"><stop
         id="stop258"
         offset="0"
         style="stop-opacity:1;stop-color:#d87528" /><stop
         id="stop260"
         offset="0.0680034"
         style="stop-opacity:1;stop-color:#d87528" /><stop
         id="stop262"
         offset="0.834263"
         style="stop-opacity:1;stop-color:#fbc41b" /><stop
         id="stop264"
         offset="0.95640506"
         style="stop-opacity:1;stop-color:#fbc41b" /><stop
         id="stop266"
         offset="1"
         style="stop-opacity:1;stop-color:#fbc41b" /></linearGradient><clipPath
       id="clipPath278"
       clipPathUnits="userSpaceOnUse"><path
         id="path276"
         d="m 3575.82,873.238 c -83.69,-52.34 -177.4,-13.41 -242.28,67.403 -4.62,3.007 -7.01,5.179 -7.01,5.179 21.01,-33.191 45.07,-57.742 45.07,-57.742 86.43,-96.008 185.51,-69.75 185.51,-69.75 68.75,19.383 185.51,156.781 185.51,156.781 80.51,95.691 128.26,99.121 128.26,99.121 l -1.63,0.2 c -117.58,-31 -191.04,-150.071 -293.43,-201.192" /></clipPath><linearGradient
       id="linearGradient286"
       spreadMethod="pad"
       gradientTransform="matrix(544.345,0,0,-544.345,3326.53,944.74)"
       gradientUnits="userSpaceOnUse"
       y2="0"
       x2="1"
       y1="0"
       x1="0"><stop
         id="stop280"
         offset="0"
         style="stop-opacity:1;stop-color:#d87528" /><stop
         id="stop282"
         offset="0.314482"
         style="stop-opacity:1;stop-color:#d87528" /><stop
         id="stop284"
         offset="1"
         style="stop-opacity:1;stop-color:#fbc41b" /></linearGradient><clipPath
       id="clipPath296"
       clipPathUnits="userSpaceOnUse"><path
         id="path294"
         d="m 3965.46,1068.14 c -26.84,-24.62 -38.19,-59.01 -49.42,-92.601 -19.81,-59.211 -37.18,-130.66 -75.38,-181.18 -25.45,-33.64 -61.16,-52.828 -102.3,-60.078 -22.77,-3.992 -48.96,-7.511 -72.03,-5.75 -24.19,1.77 -48.04,6.879 -71.7,12.16 23.08,-9.543 44.75,-17.691 69.83,-21.832 32.86,-5.32 76.21,-13.609 109.42,-5.988 65.18,14.77 106.22,57.641 128.87,119.68 6.48,17.621 8.79,36.058 12.55,54.347 7.93,38.114 20.24,75.711 35.21,111.582 11.63,27.88 27.26,64.17 55.43,79.11 0,0 -3.77,0.6 -10.38,0.67 -12.5,-0.89 -23.31,-3.45 -30.1,-10.12" /></clipPath><linearGradient
       id="linearGradient310"
       spreadMethod="pad"
       gradientTransform="matrix(411.308,0,0,-411.308,3594.62,894.03)"
       gradientUnits="userSpaceOnUse"
       y2="0"
       x2="1"
       y1="0"
       x1="0"><stop
         id="stop298"
         offset="0"
         style="stop-opacity:1;stop-color:#cd7629" /><stop
         id="stop300"
         offset="0.311134"
         style="stop-opacity:1;stop-color:#cd7629" /><stop
         id="stop302"
         offset="0.61370185"
         style="stop-opacity:1;stop-color:#cd7629" /><stop
         id="stop304"
         offset="0.90804"
         style="stop-opacity:1;stop-color:#fbc41b" /><stop
         id="stop306"
         offset="0.97581113"
         style="stop-opacity:1;stop-color:#fbc41b" /><stop
         id="stop308"
         offset="1"
         style="stop-opacity:1;stop-color:#fbc41b" /></linearGradient><clipPath
       id="clipPath320"
       clipPathUnits="userSpaceOnUse"><path
         id="path318"
         d="M 0,0 H 5473 V 2470 H 0 Z" /></clipPath><clipPath
       id="clipPath326"
       clipPathUnits="userSpaceOnUse"><path
         id="path324"
         d="m 5473.33,1829.62 c -0.92,-1.45 -2.01,-2.87 -3.12,-4.4 l -0.45,-0.58 c -4.17,-5.59 -9.31,-11.31 -15.02,-17.35 -36.69,-74.82 -72.42,-127.77 -130.66,-182.36 -53.95,-50.57 -122.05,-86.88 -193.23,-108.44 -22.65,-6.9 -45.75,-12.1 -69.03,-16.56 -58.77,-11.14 -116.25,-13.13 -175.65,-7.31 -61.94,6.06 -127.8,9.05 -188.91,-5.28 -47.25,-11.1 -84.71,-41.01 -121.03,-71.88 -10.78,-9.16 -23.45,-22.58 -33.09,-32.96 44.41,26.89 95.23,49.86 146.04,60.96 26.89,5.87 60,8.38 82.7,6.62 60.9,-4.71 121.17,-10.87 182.32,-9.9 4.15,0.11 8.25,0.19 12.34,0.24 190.65,13.83 310.32,99.83 310.32,99.83 199.44,125.95 196.47,289.37 196.47,289.37" /></clipPath><linearGradient
       id="linearGradient334"
       spreadMethod="pad"
       gradientTransform="matrix(930.195,0,0,-930.195,4543.14,1606.06)"
       gradientUnits="userSpaceOnUse"
       y2="0"
       x2="1"
       y1="0"
       x1="0"><stop
         id="stop328"
         offset="0"
         style="stop-opacity:1;stop-color:#d87d26" /><stop
         id="stop330"
         offset="0.2061791"
         style="stop-opacity:1;stop-color:#d87d26" /><stop
         id="stop332"
         offset="1"
         style="stop-opacity:1;stop-color:#fbc41b" /></linearGradient><clipPath
       id="clipPath344"
       clipPathUnits="userSpaceOnUse"><path
         id="path342"
         d="m 4969.13,1244.23 c 136.63,43.64 267.05,104.21 371.98,213.77 -5.53,-8.01 -151.76,-223.02 -441.31,-276.29 0,0 -106.49,-16.21 -203.26,21.87 -7.6,2.99 -15,6.47 -22.27,10.18 -2,1.03 -3.99,2.08 -5.99,3.1 -31.35,16 -130.51,60.7 -223.06,39.2 0,0 3.42,2.89 9.59,7.47 76.53,23.25 143.85,27.27 211.06,8.73 84.23,-23.2 170.74,-70.38 303.26,-28.03 z" /></clipPath><linearGradient
       id="linearGradient352"
       spreadMethod="pad"
       gradientTransform="matrix(895.889,0,0,-895.889,4445.22,1318.14)"
       gradientUnits="userSpaceOnUse"
       y2="0"
       x2="1"
       y1="0"
       x1="0"><stop
         id="stop346"
         offset="0"
         style="stop-opacity:1;stop-color:#d87d26" /><stop
         id="stop348"
         offset="0.42770809"
         style="stop-opacity:1;stop-color:#d87d26" /><stop
         id="stop350"
         offset="1"
         style="stop-opacity:1;stop-color:#fbc41b" /></linearGradient></defs><g
     transform="matrix(1.3333333,0,0,-1.3333333,0,329.30667)"
     id="g10"><g
       transform="scale(0.1)"
       id="g12"><path
         id="path14"
         style="fill:#201d1c;fill-opacity:1;fill-rule:nonzero;stroke:none"
         d="m 140.008,1050.76 c 114.379,0 262.93,2.12 344.16,6.4 L 444.633,953.5 H 0.00390625 C 5.34375,1095.65 6.42188,1179.01 6.42188,1323.31 c 0,156.05 -1.07813,243.69 -6.41797375,396.53 H 143.23 c -5.343,-152.84 -6.421,-240.48 -6.421,-396.53 0,-102.61 1.078,-178.49 3.199,-272.55" /><path
         id="path16"
         style="fill:#201d1c;fill-opacity:1;fill-rule:nonzero;stroke:none"
         d="M 664.809,953.5 H 527.984 c 5.36,100.48 6.418,161.4 6.418,262.93 0,109 -1.058,160.32 -6.418,267.21 h 136.825 c -5.344,-106.89 -6.418,-158.21 -6.418,-267.21 0,-101.53 1.074,-162.45 6.418,-262.93 z m -68.418,633.81 c -53.438,0 -83.356,34.21 -83.356,74.82 0,38.48 29.918,72.69 83.356,72.69 52.39,0 82.312,-34.21 82.312,-72.69 0,-40.61 -29.922,-74.82 -82.312,-74.82" /><path
         id="path18"
         style="fill:#201d1c;fill-opacity:1;fill-rule:nonzero;stroke:none"
         d="m 996.145,1395.99 c -55.582,0 -95.133,-26.72 -123.985,-73.74 -2.137,-33.15 -3.211,-76.96 -3.211,-118.65 0,-64.15 1.074,-135.76 3.211,-162.46 25.656,-11.77 54.516,-17.09 94.059,-17.09 95.111,0 160.321,69.45 160.321,192.38 0,123.97 -50.24,179.56 -130.395,179.56 z m -258.661,373.03 h 136.805 c -2.129,-52.38 -4.266,-129.34 -4.266,-184.91 0,-66.29 0,-123.99 1.059,-187.05 41.688,68.41 107.961,99.39 178.508,99.39 113.29,0 208.41,-85.51 208.41,-251.16 0,-173.16 -114.36,-303.552 -306.75,-303.552 -94.051,0 -162.473,17.102 -212.707,44.883 4.281,136.809 5.355,207.349 5.355,361.279 0,164.58 -1.074,293.92 -6.414,421.12" /><path
         id="path20"
         style="fill:#201d1c;fill-opacity:1;fill-rule:nonzero;stroke:none"
         d="m 1439.7,1279.48 h 254.39 c -8.55,95.13 -49.16,136.81 -125.04,136.81 -75.91,0 -122.91,-53.42 -129.35,-136.81 z m 181.7,-241.56 c 63.06,0 124,20.32 165.68,52.39 l 29.93,-82.29 c -58.8,-44.911 -127.21,-66.282 -222.32,-66.282 -159.27,0 -281.09,101.532 -281.09,284.322 0,163.52 107.93,270.39 265.05,270.39 138.95,0 238.36,-87.63 238.36,-250.08 0,-16.05 0,-28.88 -1.08,-44.9 h -375.16 c 8.55,-112.23 76.98,-163.55 180.63,-163.55" /><path
         id="path22"
         style="fill:#201d1c;fill-opacity:1;fill-rule:nonzero;stroke:none"
         d="m 2185.76,1496.45 c 27.8,0 44.89,-2.12 62,-10.68 l -39.56,-133.6 c -19.22,6.41 -35.25,9.63 -57.71,9.63 -41.68,0 -79.1,-19.26 -110.09,-68.42 -3.19,-37.41 -5.35,-85.5 -5.35,-149.63 0,-55.58 1.08,-122.92 5.35,-190.25 h -136.82 c 5.36,99.38 6.44,161.4 6.44,262.93 0,109 -1.08,163.52 -6.44,267.21 h 117.58 l 14.97,-110.09 c 35.26,83.37 96.19,122.9 149.63,122.9" /><path
         id="path24"
         style="fill:#201d1c;fill-opacity:1;fill-rule:nonzero;stroke:none"
         d="m 2491.44,1041.14 c 47.04,0 88.71,21.36 122.92,75.88 2.15,33.15 3.21,81.23 3.21,123.98 0,60.93 -1.06,128.27 -3.21,154.99 -27.79,12.83 -54.51,18.17 -92.97,18.17 -86.58,0 -162.49,-65.2 -162.49,-183.84 0,-131.48 56.65,-189.18 132.54,-189.18 z m 257.59,-87.64 h -123.98 l -9.62,86.58 c -41.68,-67.33 -110.08,-98.342 -181.69,-98.342 -107.96,0 -206.29,92.992 -206.29,262.942 0,174.21 134.67,291.77 299.27,291.77 56.66,0 94.05,-6.4 133.6,-19.24 l 91.92,27.81 c -8.55,-106.9 -9.63,-164.62 -9.63,-274.7 0,-113.3 0,-161.39 6.42,-276.82" /><path
         id="path26"
         style="fill:#201d1c;fill-opacity:1;fill-rule:nonzero;stroke:none"
         d="m 2984.16,953.5 h -136.81 c 5.34,151.76 6.41,240.47 6.41,394.4 0,164.58 -1.07,258.65 -6.41,421.12 h 136.81 c -5.34,-162.47 -6.41,-256.54 -6.41,-421.12 0,-153.93 1.07,-242.64 6.41,-394.4" /><path
         id="path28"
         style="fill:#201d1c;fill-opacity:1;fill-rule:nonzero;stroke:none"
         d="m 136.809,402.949 c 0,-102.597 1.078,-208.429 3.199,-293.949 14.965,-1.051 66.285,-1.051 100.472,-1.051 209.516,0 324.918,102.602 324.918,293.93 0,190.262 -123.968,280.043 -330.257,280.043 -34.207,0 -66.258,0 -95.133,-1.063 -2.121,-67.359 -3.199,-171.007 -3.199,-277.91 z M 0.00390625,11.7617 C 5.34375,153.922 6.42188,237.289 6.42188,381.559 c 0,156.05 -1.07813,243.703 -6.41797375,396.562 H 257.59 c 274.691,0 447.836,-117.57 447.836,-355.922 0,-254.398 -165.68,-410.4373 -455.321,-410.4373 H 0.00390625" /><path
         id="path30"
         style="fill:#201d1c;fill-opacity:1;fill-rule:nonzero;stroke:none"
         d="m 899.953,337.75 h 254.387 c -8.54,95.141 -49.18,136.82 -125.06,136.82 -75.889,0 -122.909,-53.441 -129.327,-136.82 z M 1081.65,96.1914 c 63.07,0 124,20.3206 165.66,52.3866 l 29.95,-82.3085 C 1218.48,21.3711 1150.06,0.0117188 1054.94,0.0117188 895.688,0.0117188 773.844,101.539 773.844,284.301 c 0,163.558 107.941,270.437 265.056,270.437 138.95,0 238.36,-87.668 238.36,-250.117 0,-16.043 0,-28.84 -1.08,-44.91 H 901.027 C 909.594,147.5 977.98,96.1914 1081.65,96.1914" /><path
         id="path32"
         style="fill:#201d1c;fill-opacity:1;fill-rule:nonzero;stroke:none"
         d="m 2168.67,362.32 c 0,-69.449 -4.28,-111.14 -4.28,-168.871 0,-70.519 0,-110.0896 5.34,-181.6873 h -133.6 c 5.35,67.3281 5.35,105.8283 5.35,175.2893 0,61.98 -1.08,129.32 -3.21,163.508 -4.28,68.429 -37.4,103.703 -94.06,103.703 -44.9,0 -87.65,-23.524 -120.77,-73.762 -4.27,-43.82 -5.35,-110.078 -5.35,-169.949 0,-76.922 1.08,-121.8518 5.35,-198.7893 h -134.68 c 5.34,67.3281 5.34,105.8283 5.34,175.2893 0,61.98 0,128.25 -2.13,163.508 -4.27,69.492 -38.48,103.703 -95.12,103.703 -44.9,0 -87.66,-23.524 -119.72,-73.762 -4.28,-43.82 -5.34,-110.078 -5.34,-169.949 0,-76.922 1.06,-121.8518 5.34,-198.7893 h -134.69 c 5.36,100.4573 6.44,161.3863 6.44,262.9183 0,109.039 -1.08,159.281 -6.44,267.23 h 119.73 l 12.82,-86.582 c 43.84,66.262 96.2,99.41 179.57,99.41 72.68,0 130.39,-41.699 151.77,-110.09 53.45,74.821 114.35,110.09 192.4,110.09 100.46,0 169.94,-70.558 169.94,-192.418" /><path
         id="path34"
         style="fill:#201d1c;fill-opacity:1;fill-rule:nonzero;stroke:none"
         d="m 2511.75,470.289 c -92.99,0 -146.43,-79.098 -146.43,-193.449 0,-113.301 53.44,-193.4806 146.43,-193.4806 94.06,0 147.49,79.1016 147.49,193.4806 0,114.351 -54.49,193.449 -147.49,193.449 z m 0,84.449 c 172.07,0 282.16,-112.238 282.16,-271.5 0,-157.109 -115.44,-283.2262812 -282.16,-283.2262812 -173.15,0 -280.04,110.0662812 -280.04,270.4102812 0,159.258 113.29,284.316 280.04,284.316" /><path
         id="path36"
         style="fill:#201d1c;fill-opacity:1;fill-rule:nonzero;stroke:none"
         d="m 2982.04,292.871 c 0,-135.75 71.6,-196.6796 168.87,-196.6796 44.9,0 88.7,10.6876 126.12,37.4376 l 29.92,-79.1173 C 3252.45,17.1016 3191.53,0.0117188 3112.42,0.0117188 c -146.43,0 -262.93,95.0976812 -262.93,280.0392812 0,153.91 120.78,274.687 285.38,274.687 68.4,0 117.58,-9.629 165.67,-28.867 l -30.98,-86.57 c -34.22,16.027 -78.03,26.711 -122.92,26.711 -103.7,0 -164.6,-67.332 -164.6,-173.141" /><path
         id="path38"
         style="fill:#201d1c;fill-opacity:1;fill-rule:nonzero;stroke:none"
         d="m 3675.68,554.738 c 27.8,0 44.91,-2.136 62,-10.687 l -39.54,-133.602 c -19.25,6.403 -35.27,9.602 -57.71,9.602 -41.69,0 -79.11,-19.242 -110.1,-68.403 -3.2,-37.41 -5.34,-85.527 -5.34,-149.628 0,-55.59 1.07,-122.9302 5.34,-190.2583 h -136.81 c 5.34,99.3863 6.42,161.3863 6.42,262.9183 0,109.039 -1.08,163.55 -6.42,267.23 h 117.57 l 14.97,-110.101 c 35.26,83.382 96.17,122.929 149.62,122.929" /><path
         id="path40"
         style="fill:#201d1c;fill-opacity:1;fill-rule:nonzero;stroke:none"
         d="m 3981.38,99.3789 c 47.02,0 88.72,21.4101 122.9,75.9221 2.14,33.121 3.23,81.23 3.23,123.969 0,60.921 -1.09,128.269 -3.23,154.992 -27.77,12.808 -54.52,18.148 -92.96,18.148 -86.58,0 -162.48,-65.172 -162.48,-183.832 0,-131.457 56.66,-189.1991 132.54,-189.1991 z m 257.59,-87.6172 h -124 l -9.62,86.5586 C 4063.67,30.9883 3995.28,0.0117188 3923.68,0.0117188 c -107.98,0 -206.29,92.9687812 -206.29,262.9292812 0,174.219 134.67,291.797 299.27,291.797 56.63,0 94.05,-6.41 133.6,-19.25 l 91.92,27.793 c -8.55,-106.902 -9.63,-164.601 -9.63,-274.703 0,-113.277 0,-161.387 6.42,-276.8163" /><path
         id="path42"
         style="fill:#201d1c;fill-opacity:1;fill-rule:nonzero;stroke:none"
         d="m 4510.43,454.262 c 0,-102.614 -4.27,-210.571 2.15,-283.242 4.27,-51.301 40.62,-74.8286 78.01,-74.8286 37.43,0 64.14,6.4106 90.86,23.5276 l 26.71,-74.8206 C 4668.64,16.0313 4610.91,0.0117188 4546.78,0.0117188 4453.79,0.0117188 4384.3,63.0508 4384.3,179.57 c 0,80.141 4.28,185.961 4.28,274.692 h -87.63 v 87.648 h 88.71 c 0,51.289 0,86.551 -2.13,134.668 l 133.6,28.871 c -6.43,-56.66 -8.55,-113.308 -8.55,-163.539 h 166.74 v -87.648 h -168.89" /><path
         id="path44"
         style="fill:#201d1c;fill-opacity:1;fill-rule:nonzero;stroke:none"
         d="m 5128.22,443.57 c -39.55,14.961 -83.37,23.5 -132.54,23.5 -80.16,0 -106.88,-22.422 -106.88,-53.422 0,-25.648 14.97,-42.769 73.76,-65.207 l 65.2,-25.64 c 102.6,-39.563 141.09,-85.512 141.09,-163.539 0,-95.1331 -88.73,-159.2502812 -210.59,-159.2502812 -95.11,0 -153.91,14.9570812 -205.2,41.6796812 l 25.66,85.4996 c 48.09,-25.652 107.94,-40.6129 165.66,-40.6129 73.74,0 103.67,25.6409 103.67,60.9219 0,32.07 -14.95,51.301 -89.79,79.078 l -65.18,24.602 c -82.31,29.941 -125.06,73.738 -125.06,150.699 0,85.5 80.16,152.859 220.19,152.859 67.32,0 115.44,-6.41 165.64,-24.59 l -25.63,-86.578" /><g
         id="g46"><g
           clip-path="url(#clipPath52)"
           id="g48"><path
             id="path62"
             style="fill:url(#linearGradient60);fill-opacity:1;fill-rule:nonzero;stroke:none"
             d="m 4112.99,1821.3 c 37.56,-25.02 63.05,-52.99 80.97,-87.03 19.11,-36.33 29.16,-73.95 30.84,-116.23 1.94,-48.47 -2.27,-101.78 -16.02,-151.81 1.91,2.59 11.34,12.74 18.82,24.59 32.83,52.06 101.63,183.22 51.1,303.06 0,0 -47.87,106.19 -251.64,198.18 0,0 -225.88,96.88 -332.8,186.09 0,0 -182.27,155.92 -195.32,291.67 l -0.03,-0.24 c -80.81,-373.72 366.78,-476.29 614.08,-648.28" /></g></g><g
         id="g64"><g
           clip-path="url(#clipPath70)"
           id="g66"><path
             id="path84"
             style="fill:url(#linearGradient82);fill-opacity:1;fill-rule:nonzero;stroke:none"
             d="m 4868.23,1822.61 c -2.26,1.51 -4.27,2.46 -5.87,3.1 -5.7,2.29 -12.04,3.67 -21.87,3.67 -7.15,0 -15.53,-0.77 -25.43,-2.42 0,0 -9.27,-1.54 -25.91,-1.54 -20.7,0 -52.86,2.31 -93.1,12.91 0,0 -28.68,6.13 -68.41,6.13 -59.37,0 -143.29,-13.87 -193.24,-83.11 0,0 -60.83,-76.49 -113.88,-204.54 0,0 -97.14,-203.42 -228.03,-286.12 0,0 -137.58,-106.11 -324.59,-132.71 0,0 -49.42,-9.16 -116.16,-9.16 -51.74,0 -113.98,5.59 -171.27,25.22 0,0 -91.99,22.09 -174.64,66.19 -27.66,14.76 -59.46,31.83 -81.22,51.52 0,0 -4.07,-19.12 -4.2,-46.78 v -2.57 c 0.13,-31.91 5.7,-74.51 28.36,-112.5 0,0 3.28,-7.29 8.44,-16.2 42.81,-37.33 96.3,-50.4 149.56,-50.4 124.4,0 269.33,69.46 389.88,76.65 173.05,0 365.23,22.43 500.04,118.4 100.78,71.82 168.21,193.3 223.71,322.86 55.97,140.12 190.91,227.36 347.83,261.4" /></g></g><path
         id="path86"
         style="fill:#f7ba1e;fill-opacity:1;fill-rule:nonzero;stroke:none"
         d="m 3838.3,963.121 c 0,0 -57.24,-152.133 -116.09,-190.562 0,0 -14.74,-12.258 -40.27,-21.469 -15.32,-5.52 -38.58,-11.012 -60.82,-11.012 -3.29,0 -23.07,0.402 -26.49,0.613 22.15,-6.57 58.18,-13.472 78.94,-15.621 0.95,-0.101 6.28,0.071 7.16,0 210.72,-19.242 231.9,204.071 288.12,345 0.56,0.54 1.14,1.05 1.74,1.53 6.82,5.47 23.87,5.18 35.35,5.99 -0.64,0 -4.05,1.23 -4.78,1.36 -3.74,0.67 -4.73,0.77 -9.92,1.14 -5.64,0.39 -11.86,-1.01 -16.43,-1.75 -36.62,-5.95 -94.96,-29.64 -136.51,-115.219" /><g
         id="g88"><g
           clip-path="url(#clipPath94)"
           id="g90"><path
             id="path104"
             style="fill:url(#linearGradient102);fill-opacity:1;fill-rule:nonzero;stroke:none"
             d="m 4929.87,1311.96 c -33.93,0 -68.04,2.66 -101.24,9.48 -22.35,4.58 -44.24,11.16 -66.67,15.45 -19.36,3.63 -38.96,6.18 -58.66,7.49 -9.07,0.62 -18.23,0.89 -27.37,0.89 -37.99,0 -59.83,-5.44 -59.83,-5.44 -65.24,-17.01 -114.91,-45.17 -142.82,-63.64 -6.48,-4.29 -16.61,-11.32 -20.67,-14.3 8.81,2.67 22.56,7.69 31.52,8.83 21.76,2.78 43.71,1.96 64.77,1.96 54.48,0 105.85,-25.16 159.66,-37.23 53.64,-12.2 108.71,-17.13 163.12,-17.13 30.52,0 64.42,5.26 95.32,14.93 136.25,52.47 261.51,106.16 368.2,217.74 l 7.35,8.85 c -79.26,-60.7 -239.85,-114.57 -239.85,-114.57 -58.73,-26.08 -121.19,-33.31 -172.83,-33.31" /></g></g><g
         id="g106"><g
           clip-path="url(#clipPath112)"
           id="g108"><path
             id="path122"
             style="fill:url(#linearGradient120);fill-opacity:1;fill-rule:nonzero;stroke:none"
             d="m 5313.96,1697.15 c -61.06,-45.69 -135.01,-70.58 -209.43,-83.75 -103.5,-18.45 -215.05,14.15 -316,-20.2 -150.92,-50.11 -249.49,-213.4 -249.49,-213.4 3.27,2.09 6.59,4.1 9.86,6.16 125.6,150.57 369.12,64.92 544.03,116.32 156.52,39.17 304.26,149.11 362.91,305.86 -48.21,-50.03 -141.88,-110.99 -141.88,-110.99" /></g></g><g
         id="g124"><g
           clip-path="url(#clipPath130)"
           id="g126"><path
             id="path140"
             style="fill:url(#linearGradient138);fill-opacity:1;fill-rule:nonzero;stroke:none"
             d="m 3842.6,1080.8 c -88.48,0 -208.05,-89.882 -208.05,-89.882 -76.77,-50.137 -142.43,-69.629 -142.43,-69.629 -20.66,-5.379 -39.75,-7.559 -57.32,-7.559 -55.32,0 -93.42,21.77 -108.27,31.95 44.37,-55.418 102.57,-104.25 161.62,-104.25 26.94,0 54.04,7.32 80.39,23.742 102.12,51.039 184.93,178.098 302.34,209.058 -8.68,5.24 -17.04,6.09 -20.95,6.33 -2.41,0.16 -4.86,0.24 -7.33,0.24" /></g></g><g
         id="g142"><g
           clip-path="url(#clipPath148)"
           id="g144"><path
             id="path160"
             style="fill:url(#linearGradient158);fill-opacity:1;fill-rule:nonzero;stroke:none"
             d="m 3928.35,1474.03 c 0,0 -134.74,10.42 -206.64,40.77 0,0 -142.32,49.32 -176.15,75.82 0,0 10.39,-13.48 15.63,-18.6 46.11,-45.11 99.52,-97.62 159.19,-120.04 44.81,-28.52 106.51,-50.73 166.61,-53.68 57.78,-2.83 114.07,7.67 152.32,-19.87 15.72,-11.32 22.37,-17.05 30.85,-32.25 2.96,-5.31 6.35,-15.05 8.25,-23.9 1.86,1.56 3.03,4.01 4.65,7.45 1.93,4.08 2.9,9.47 3.33,12.96 3.71,30.41 -0.4,85.1 -66.83,112.01 0,0 -24.15,10.65 -91.21,19.33" /></g></g><g
         id="g162"><g
           clip-path="url(#clipPath168)"
           id="g164"><path
             id="path178"
             style="fill:url(#linearGradient176);fill-opacity:1;fill-rule:nonzero;stroke:none"
             d="m 3479.6,1836.78 c 151.23,-140.55 372.18,-168.14 566.75,-265.33 70.05,-30.07 90.33,-110.52 83.5,-191.63 8.9,20.29 44.24,104.41 14.33,189.95 0,0 -15.15,70.86 -191.81,138 0,0 -246.92,85.48 -328.3,138.74 0,0 -168.89,87.29 -222.03,225.08 0,0 -6.16,-21.27 -4.72,-52.77 11.73,-69.52 32.65,-140.72 82.28,-182.04" /></g></g><g
         id="g180"><g
           clip-path="url(#clipPath186)"
           id="g182"><path
             id="path208"
             style="fill:url(#linearGradient206);fill-opacity:1;fill-rule:nonzero;stroke:none"
             d="m 4865.1,1824.12 c -157.16,-34.09 -302.19,-117.8 -358.29,-258.14 -54.85,-127.86 -114.03,-239.17 -213.01,-310.86 -115.86,-83.87 -292.61,-118.57 -433.04,-129.34 -46.74,-3.59 -93.56,-3.65 -139.94,-11.07 -42.82,-6.84 -84.95,-17.43 -127.12,-27.38 -42.21,-9.95 -84.59,-19.78 -127.65,-25.33 -22.99,-2.95 -46.16,-4.74 -69.34,-4.26 -50.94,1.03 -116.78,35.46 -157.9,71.31 4.64,-7.98 10.04,-25.58 21.89,-40.95 26.54,-34.43 72.46,-73.12 122.33,-76.93 0,0 70.82,-12.83 181.24,34.07 0,0 185.16,67.11 297.89,69.6 0,0 247.2,-2.29 352.26,35.14 79.38,28.34 144.7,63.76 212.34,148.75 67.67,85.01 85.24,156.17 107.02,201.71 0,0 65.66,136.7 145.84,201.47 0,0 102.14,87.67 194.94,115.83 0,0 -2.37,3.4 -9.46,6.38" /></g></g><g
         id="g210"><g
           clip-path="url(#clipPath216)"
           id="g212"><path
             id="path230"
             style="fill:url(#linearGradient228);fill-opacity:1;fill-rule:nonzero;stroke:none"
             d="m 4117.12,1825.83 c -247.8,172.25 -689.17,279.78 -618.18,643.99 -1.11,-5.71 -63.12,-114.71 1.76,-265.26 0,0 47.2,-133.01 211.71,-234.02 0,0 136.68,-78.06 236.78,-116.86 0,0 214.93,-76.24 252.58,-216.72 1.75,-6.56 3.12,-13.26 4.07,-20.1 0.99,-7.22 1.6,-11.6 2.3,-22.24 0,0 0.91,-15.96 2.28,-37.3 1.91,-29.79 3.18,-69.89 -1.64,-91.09 l 0.81,1.09 c 1.55,2.88 2.26,5.57 3.2,8.35 1.21,3.62 1.85,7.22 2.72,10.8 4.51,18.56 7.12,37.02 9.69,55.54 15.28,110.13 -7.18,216.56 -108.08,283.82" /></g></g><g
         id="g232"><g
           clip-path="url(#clipPath238)"
           id="g234"><path
             id="path248"
             style="fill:url(#linearGradient246);fill-opacity:1;fill-rule:nonzero;stroke:none"
             d="m 4024.73,1593.28 c -23.95,10.48 -49.2,18.72 -73.26,28.4 -34.33,13.79 -69.07,26.57 -103.8,39.33 -19.86,7.3 -39.73,14.59 -59.54,22.05 -69.06,26.05 -137.5,53.83 -201.1,91.64 -35.44,21.07 -66.2,46.46 -97.76,72.73 -49.71,41.39 -80.29,101.77 -91.95,171.39 3.09,-63.19 20.25,-169.34 95.46,-236.55 0,0 68.85,-64.61 142.53,-95.02 0,0 118.24,-50.57 223.54,-79.77 0,0 194.64,-52.24 244.69,-129.99 0,0 33.24,-52.35 24.06,-102.43 0,0 0.9,1.69 2.25,4.76 1.89,4.28 2.06,9.52 2.31,14.12 0.46,8.71 0.54,17.51 0.59,26.22 0.04,6.01 -0.35,12 -0.49,18 -0.14,6.35 -0.48,12.71 -1.07,19.04 -1.2,12.78 -3.46,25.44 -7.29,37.71 -12.39,39.73 -41.15,68.61 -77.35,87.89 -7.1,3.78 -14.39,7.24 -21.82,10.48" /></g></g><g
         id="g250"><g
           clip-path="url(#clipPath256)"
           id="g252"><path
             id="path270"
             style="fill:url(#linearGradient268);fill-opacity:1;fill-rule:nonzero;stroke:none"
             d="m 3716.58,1468.55 c -15.78,9.56 -120.32,75.54 -171.02,122.07 15.63,-24.64 104.06,-155.73 237.98,-203.05 0,0 75.46,-31.32 172,-27.37 0,0 6.7,0.98 17.06,1.48 28.92,1.37 86.33,-1.07 105.81,-39.4 0,0 0.75,-0.65 1.86,3.31 -5.73,26.8 -16.71,49.45 -31,60.14 -27.76,20.77 -69.07,12.77 -116.05,16.94 -73.47,6.53 -159.77,29.68 -216.64,65.88" /></g></g><g
         id="g272"><g
           clip-path="url(#clipPath278)"
           id="g274"><path
             id="path288"
             style="fill:url(#linearGradient286);fill-opacity:1;fill-rule:nonzero;stroke:none"
             d="m 3575.82,873.238 c -83.69,-52.34 -177.4,-13.41 -242.28,67.403 -4.62,3.007 -7.01,5.179 -7.01,5.179 21.01,-33.191 45.07,-57.742 45.07,-57.742 86.43,-96.008 185.51,-69.75 185.51,-69.75 68.75,19.383 185.51,156.781 185.51,156.781 80.51,95.691 128.26,99.121 128.26,99.121 l -1.63,0.2 c -117.58,-31 -191.04,-150.071 -293.43,-201.192" /></g></g><g
         id="g290"><g
           clip-path="url(#clipPath296)"
           id="g292"><path
             id="path312"
             style="fill:url(#linearGradient310);fill-opacity:1;fill-rule:nonzero;stroke:none"
             d="m 3965.46,1068.14 c -26.84,-24.62 -38.19,-59.01 -49.42,-92.601 -19.81,-59.211 -37.18,-130.66 -75.38,-181.18 -25.45,-33.64 -61.16,-52.828 -102.3,-60.078 -22.77,-3.992 -48.96,-7.511 -72.03,-5.75 -24.19,1.77 -48.04,6.879 -71.7,12.16 23.08,-9.543 44.75,-17.691 69.83,-21.832 32.86,-5.32 76.21,-13.609 109.42,-5.988 65.18,14.77 106.22,57.641 128.87,119.68 6.48,17.621 8.79,36.058 12.55,54.347 7.93,38.114 20.24,75.711 35.21,111.582 11.63,27.88 27.26,64.17 55.43,79.11 0,0 -3.77,0.6 -10.38,0.67 -12.5,-0.89 -23.31,-3.45 -30.1,-10.12" /></g></g><g
         id="g314"><g
           clip-path="url(#clipPath320)"
           id="g316"><g
             clip-path="url(#clipPath326)"
             id="g322"><path
               id="path336"
               style="fill:url(#linearGradient334);fill-opacity:1;fill-rule:nonzero;stroke:none"
               d="m 4543,1382 v 2 h 1 v 1 h 1 v 1 h 1 v 1 h 1 v 1 h 1 v 1 h 1 v 1 h 1 v 1 h 1 v 1 h 1 v 1 h 1 v 1 h 1 v 2 h 1 v 1 h 1 v 1 h 1 v 1 h 1 v 1 h 1 v 1 h 1 v 1 h 1 v 1 h 1 v 1 h 1 v 1 h 1 v 1 h 1 v 1 h 1 v 1 h 1 v 1 h 2 v 1 h 1 v 1 h 1 v 1 h 1 v 1 h 1 v 1 h 1 v 1 h 1 v 1 h 1 v 1 h 2 v 1 h 1 v 1 h 1 v 1 h 1 v 1 h 1 v 1 h 1 v 1 h 2 v 1 h 1 v 1 h 1 v 1 h 1 v 1 h 1 v 1 h 2 v 1 h 1 v 1 h 1 v 1 h 1 v 1 h 2 v 1 h 1 v 1 h 1 v 1 h 1 v 1 h 2 v 1 h 1 v 1 h 1 v 1 h 1 v 1 h 2 v 1 h 1 v 1 h 1 v 1 h 2 v 1 h 1 v 1 h 1 v 1 h 2 v 1 h 1 v 1 h 1 v 1 h 2 v 1 h 1 v 1 h 2 v 1 h 1 v 1 h 2 v 1 h 1 v 1 h 2 v 1 h 1 v 1 h 1 v 1 h 2 v 1 h 1 v 1 h 2 v 1 h 2 v 1 h 1 v 1 h 2 v 1 h 2 v 1 h 2 v 1 h 1 v 1 h 2 v 1 h 2 v 1 h 2 v 1 h 2 v 1 h 2 v 1 h 2 v 1 h 2 v 1 h 2 v 1 h 2 v 1 h 2 v 1 h 2 v 1 h 3 v 1 h 2 v 1 h 3 v 1 h 2 v 1 h 3 v 1 h 3 v 1 h 3 v 1 h 3 v 1 h 3 v 1 h 4 v 1 h 5 v 1 h 4 v 1 h 6 v 1 h 5 v 1 h 5 v 1 h 8 v 1 h 7 v 1 h 8 v 1 h 12 v 1 h 15 v 1 h 55 v -1 h 20 v -1 h 14 v -1 h 12 v -1 h 12 v -1 h 10 v -1 h 15 v -1 h 18 v -1 h 49 v 1 h 13 v 1 h 13 v 1 h 13 v 1 h 9 v 1 h 7 v 1 h 7 v 1 h 7 v 1 h 7 v 1 h 5 v 1 h 6 v 1 h 5 v 1 h 5 v 1 h 4 v 1 h 5 v 1 h 4 v 1 h 5 v 1 h 5 v 1 h 4 v 1 h 4 v 1 h 3 v 1 h 4 v 1 h 4 v 1 h 4 v 1 h 4 v 1 h 3 v 1 h 4 v 1 h 3 v 1 h 3 v 1 h 3 v 1 h 3 v 1 h 3 v 1 h 3 v 1 h 3 v 1 h 3 v 1 h 3 v 1 h 3 v 1 h 2 v 1 h 3 v 1 h 2 v 1 h 3 v 1 h 3 v 1 h 2 v 1 h 3 v 1 h 2 v 1 h 3 v 1 h 2 v 1 h 2 v 1 h 3 v 1 h 2 v 1 h 2 v 1 h 2 v 1 h 3 v 1 h 2 v 1 h 2 v 1 h 2 v 1 h 2 v 1 h 3 v 1 h 2 v 1 h 2 v 1 h 1 v 1 h 2 v 1 h 2 v 1 h 2 v 1 h 2 v 1 h 2 v 1 h 2 v 1 h 2 v 1 h 2 v 1 h 2 v 1 h 2 v 1 h 1 v 1 h 2 v 1 h 2 v 1 h 1 v 1 h 2 v 1 h 2 v 1 h 2 v 1 h 1 v 1 h 2 v 1 h 2 v 1 h 1 v 1 h 2 v 1 h 2 v 1 h 1 v 1 h 2 v 1 h 1 v 1 h 2 v 1 h 1 v 1 h 2 v 1 h 1 v 1 h 2 v 1 h 1 v 1 h 2 v 1 h 1 v 1 h 2 v 1 h 1 v 1 h 2 v 1 h 1 v 1 h 2 v 1 h 1 v 1 h 1 v 1 h 2 v 1 h 1 v 1 h 1 v 1 h 2 v 1 h 1 v 1 h 1 v 1 h 1 v 1 h 2 v 1 h 1 v 1 h 1 v 1 h 2 v 1 h 1 v 1 h 1 v 1 h 2 v 1 h 1 v 1 h 1 v 1 h 1 v 1 h 1 v 1 h 2 v 1 h 1 v 1 h 1 v 1 h 1 v 1 h 1 v 1 h 1 v 1 h 2 v 1 h 1 v 1 h 1 v 1 h 1 v 1 h 1 v 1 h 1 v 1 h 1 v 1 h 2 v 1 h 1 v 1 h 1 v 1 h 1 v 1 h 1 v 1 h 1 v 1 h 1 v 1 h 1 v 1 h 1 v 1 h 1 v 1 h 1 v 1 h 1 v 1 h 1 v 1 h 1 v 1 h 1 v 1 h 1 v 1 h 1 v 1 h 1 v 1 h 1 v 1 h 1 v 1 h 1 v 1 h 1 v 1 h 1 v 1 h 1 v 1 h 1 v 1 h 1 v 1 h 1 v 1 h 1 v 1 h 1 v 1 h 1 v 2 h 1 v 1 h 1 v 1 h 1 v 1 h 1 v 1 h 1 v 1 h 1 v 1 h 1 v 1 h 1 v 1 h 1 v 1 h 1 v 1 h 1 v 1 h 1 v 2 h 1 v 1 h 1 v 1 h 1 v 1 h 1 v 1 h 1 v 2 h 1 v 1 h 1 v 1 h 1 v 1 h 1 v 1 h 1 v 2 h 1 v 1 h 1 v 1 h 1 v 1 h 1 v 1 h 1 v 2 h 1 v 1 h 1 v 1 h 1 v 1 h 1 v 2 h 1 v 1 h 1 v 1 h 1 v 2 h 1 v 1 h 1 v 1 h 1 v 2 h 1 v 1 h 1 v 1 h 1 v 2 h 1 v 1 h 1 v 1 h 1 v 2 h 1 v 1 h 1 v 1 h 1 v 2 h 1 v 1 h 1 v 2 h 1 v 1 h 1 v 2 h 1 v 1 h 1 v 2 h 1 v 1 h 1 v 2 h 1 v 1 h 1 v 2 h 1 v 1 h 1 v 2 h 1 v 1 h 1 v 2 h 1 v 1 h 1 v 2 h 1 v 2 h 1 v 1 h 1 v 2 h 1 v 1 h 1 v 2 h 1 v 2 h 1 v 1 h 1 v 2 h 1 v 2 h 1 v 1 h 1 v 2 h 1 v 2 h 1 v 1 h 1 v 2 h 1 v 2 h 1 v 2 h 1 v 2 h 1 v 1 h 1 v 2 h 1 v 2 h 1 v 2 h 1 v 2 h 1 v 1 h 1 v 2 h 1 v 2 h 1 v 2 h 1 v 2 h 1 v 2 h 1 v 2 h 1 v 2 h 1 v 2 h 1 v 1 h 1 v 2 h 1 v 2 h 1 v 2 h 1 v 2 h 1 v 2 h 1 v 2 h 1 v 2 h 1 v 2 h 1 v 2 h 1 v 1 h 1 v 1 h 1 v 1 h 1 v 2 h 1 v 1 h 1 v 1 h 1 v 1 h 1 v 1 h 1 v 1 h 1 v 1 h 1 v 2 h 1 v 1 h 1 v 1 h 1 v 1 h 1 v 1 h 1 v 2 h 1 v 1 h 1 v 2 h 1 v -19 h -1 v -7 h -1 v -6 h -1 v -5 h -1 v -5 h -1 v -5 h -1 v -4 h -1 v -4 h -1 v -3 h -1 v -4 h -1 v -3 h -1 v -3 h -1 v -3 h -1 v -3 h -1 v -3 h -1 v -3 h -1 v -3 h -1 v -3 h -1 v -2 h -1 v -3 h -1 v -2 h -1 v -3 h -1 v -2 h -1 v -2 h -1 v -3 h -1 v -2 h -1 v -2 h -1 v -2 h -1 v -2 h -1 v -2 h -1 v -2 h -1 v -2 h -1 v -2 h -1 v -2 h -1 v -2 h -1 v -2 h -1 v -2 h -1 v -2 h -1 v -2 h -1 v -1 h -1 v -2 h -1 v -2 h -1 v -2 h -1 v -1 h -1 v -2 h -1 v -2 h -1 v -1 h -1 v -2 h -1 v -2 h -1 v -1 h -1 v -2 h -1 v -1 h -1 v -2 h -1 v -1 h -1 v -2 h -1 v -1 h -1 v -2 h -1 v -1 h -1 v -2 h -1 v -1 h -1 v -2 h -1 v -1 h -1 v -1 h -1 v -2 h -1 v -1 h -1 v -1 h -1 v -2 h -1 v -1 h -1 v -1 h -1 v -2 h -1 v -1 h -1 v -1 h -1 v -2 h -1 v -1 h -1 v -1 h -1 v -1 h -1 v -2 h -1 v -1 h -1 v -1 h -1 v -1 h -1 v -2 h -1 v -1 h -1 v -1 h -1 v -1 h -1 v -1 h -1 v -1 h -1 v -1 h -1 v -2 h -1 v -1 h -1 v -1 h -1 v -1 h -1 v -1 h -1 v -1 h -1 v -1 h -1 v -1 h -1 v -1 h -1 v -1 h -1 v -1 h -1 v -2 h -1 v -1 h -1 v -1 h -1 v -1 h -1 v -1 h -1 v -1 h -1 v -1 h -1 v -1 h -1 v -1 h -1 v -1 h -1 v -1 h -1 v -1 h -1 v -1 h -1 v -1 h -1 v -1 h -1 v -1 h -1 v -1 h -1 v -1 h -1 v -1 h -2 v -1 h -1 v -1 h -1 v -1 h -1 v -1 h -1 v -1 h -1 v -1 h -1 v -1 h -1 v -1 h -1 v -1 h -2 v -1 h -1 v -1 h -1 v -1 h -1 v -1 h -1 v -1 h -1 v -1 h -2 v -1 h -1 v -1 h -1 v -1 h -1 v -1 h -1 v -1 h -2 v -1 h -1 v -1 h -1 v -1 h -1 v -1 h -1 v -1 h -2 v -1 h -1 v -1 h -1 v -1 h -2 v -1 h -1 v -1 h -1 v -1 h -1 v -1 h -2 v -1 h -1 v -1 h -1 v -1 h -2 v -1 h -1 v -1 h -1 v -1 h -2 v -1 h -1 v -1 h -2 v -1 h -1 v -1 h -1 v -1 h -2 v -1 h -1 v -1 h -2 v -1 h -1 v -1 h -1 v -1 h -2 v -1 h -1 v -1 h -2 v -1 h -1 v -1 h -2 v -1 h -1 v -1 h -2 v -1 h -1 v -1 h -2 v -1 h -1 v -1 h -2 v -1 h -1 v -1 h -2 v -1 h -1 v -1 h -2 v -1 h -1 v -1 h -2 v -1 h -2 v -1 h -1 v -1 h -2 v -1 h -1 v -1 h -2 v -1 h -2 v -1 h -1 v -1 h -2 v -1 h -2 v -1 h -1 v -1 h -2 v -1 h -2 v -1 h -2 v -1 h -1 v -1 h -2 v -1 h -2 v -1 h -2 v -1 h -2 v -1 h -2 v -1 h -2 v -1 h -1 v -1 h -2 v -1 h -2 v -1 h -2 v -1 h -2 v -1 h -2 v -1 h -2 v -1 h -2 v -1 h -2 v -1 h -2 v -1 h -2 v -1 h -3 v -1 h -2 v -1 h -2 v -1 h -2 v -1 h -2 v -1 h -3 v -1 h -2 v -1 h -2 v -1 h -2 v -1 h -3 v -1 h -2 v -1 h -2 v -1 h -3 v -1 h -2 v -1 h -3 v -1 h -2 v -1 h -3 v -1 h -2 v -1 h -3 v -1 h -2 v -1 h -3 v -1 h -3 v -1 h -2 v -1 h -3 v -1 h -3 v -1 h -3 v -1 h -2 v -1 h -3 v -1 h -3 v -1 h -3 v -1 h -3 v -1 h -3 v -1 h -4 v -1 h -3 v -1 h -3 v -1 h -3 v -1 h -3 v -1 h -4 v -1 h -3 v -1 h -4 v -1 h -4 v -1 h -3 v -1 h -4 v -1 h -4 v -1 h -4 v -1 h -4 v -1 h -4 v -1 h -4 v -1 h -4 v -1 h -5 v -1 h -4 v -1 h -6 v -1 h -5 v -1 h -5 v -1 h -5 v -1 h -5 v -1 h -7 v -1 h -6 v -1 h -7 v -1 h -7 v -1 h -7 v -1 h -9 v -1 h -9 v -1 h -10 v -1 h -31 v -1 h -2 v 1 h -41 v 1 h -19 v 1 h -20 v 1 h -13 v 1 h -13 v 1 h -14 v 1 h -12 v 1 h -13 v 1 h -12 v 1 h -13 v 1 h -31 v -1 h -14 v -1 h -9 v -1 h -9 v -1 h -6 v -1 h -6 v -1 h -5 v -1 h -4 v -1 h -5 v -1 h -4 v -1 h -4 v -1 h -3 v -1 h -3 v -1 h -4 v -1 h -3 v -1 h -4 v -1 h -3 v -1 h -3 v -1 h -3 v -1 h -3 v -1 h -2 v -1 h -3 v -1 h -3 v -1 h -2 v -1 h -3 v -1 h -3 v -1 h -2 v -1 h -3 v -1 h -3 v -1 h -2 v -1 h -3 v -1 h -2 v -1 h -3 v -1 h -2 v -1 h -2 v -1 h -2 v -1 h -2 v -1 h -2 v -1 h -2 v -1 h -2 v -1 h -3 v -1 h -2 v -1 h -2 v -1 h -2 v -1 h -2 v -1 h -2 v -1 h -2 v -1 h -2 v -1 h -3 v -1 h -1 v -1 h -2 v -1 h -2 v -1 h -2 v -1 h -2 v -1 h -2 v -1 h -1 v -1 h -2 v -1 h -2 v -1 h -2 v -1 h -2 v -1 h -2 v -1 h -1 v -1 h -2 v -1 h -2 v -1 h -2 v -1 h -1 v -1 h -2 v -1 h -2 v -1" /></g></g></g><g
         id="g338"><g
           clip-path="url(#clipPath344)"
           id="g340"><path
             id="path354"
             style="fill:url(#linearGradient352);fill-opacity:1;fill-rule:nonzero;stroke:none"
             d="m 4969.13,1244.23 c 136.63,43.64 267.05,104.21 371.98,213.77 -5.53,-8.01 -151.76,-223.02 -441.31,-276.29 0,0 -106.49,-16.21 -203.26,21.87 -7.6,2.99 -15,6.47 -22.27,10.18 -2,1.03 -3.99,2.08 -5.99,3.1 -31.35,16 -130.51,60.7 -223.06,39.2 0,0 3.42,2.89 9.59,7.47 76.53,23.25 143.85,27.27 211.06,8.73 84.23,-23.2 170.74,-70.38 303.26,-28.03" /></g></g></g></g></svg>