<?xml version="1.0" encoding="UTF-8"?>
<!DOCTYPE svg PUBLIC "-//W3C//DTD SVG 1.1//EN" "http://www.w3.org/Graphics/SVG/1.1/DTD/svg11.dtd">
<!-- Creator: CorelDRAW X6 -->
<svg xmlns="http://www.w3.org/2000/svg" xml:space="preserve" width="13.1944in" height="5.51389in" version="1.1" style="shape-rendering:geometricPrecision; text-rendering:geometricPrecision; image-rendering:optimizeQuality; fill-rule:evenodd; clip-rule:evenodd"
viewBox="0 0 13194 5514"
 xmlns:xlink="http://www.w3.org/1999/xlink">
 <defs>
  <style type="text/css">
   <![CDATA[
    .str0 {stroke:#747578;stroke-width:41.6654}
    .fil1 {fill:none;fill-rule:nonzero}
    .fil0 {fill:#363435;fill-rule:nonzero}
    .fil4 {fill:#FAC040;fill-rule:nonzero}
    .fil16 {fill:url(#id0)}
    .fil17 {fill:url(#id1)}
    .fil7 {fill:url(#id2)}
    .fil8 {fill:url(#id3)}
    .fil10 {fill:url(#id4)}
    .fil14 {fill:url(#id5)}
    .fil15 {fill:url(#id6)}
    .fil9 {fill:url(#id7)}
    .fil11 {fill:url(#id8)}
    .fil6 {fill:url(#id9)}
    .fil3 {fill:url(#id10)}
    .fil12 {fill:url(#id11)}
    .fil2 {fill:url(#id12)}
    .fil5 {fill:url(#id13)}
    .fil13 {fill:url(#id14)}
   ]]>
  </style>
  <linearGradient id="id0" gradientUnits="userSpaceOnUse" x1="10996.2" y1="2051.04" x2="13204.2" y2="2051.04">
   <stop offset="0" style="stop-color:#D88B43"/>
   <stop offset="0.580392" style="stop-color:#EBAA41"/>
   <stop offset="1" style="stop-color:#FFC93E"/>
  </linearGradient>
  <linearGradient id="id1" gradientUnits="userSpaceOnUse" x1="10763.7" y1="2749.4" x2="12890.8" y2="2749.4">
   <stop offset="0" style="stop-color:#D88B43"/>
   <stop offset="0.670588" style="stop-color:#EBAA41"/>
   <stop offset="1" style="stop-color:#FFC93E"/>
  </linearGradient>
  <linearGradient id="id2" gradientUnits="userSpaceOnUse" x1="8107.75" y1="3581.87" x2="9400.14" y2="3581.87">
   <stop offset="0" style="stop-color:#F89C40"/>
   <stop offset="0.129412" style="stop-color:#FFC93E"/>
   <stop offset="1" style="stop-color:#FFC93E"/>
  </linearGradient>
  <linearGradient id="id3" gradientUnits="userSpaceOnUse" x1="8627.76" y1="2405.85" x2="9920.64" y2="2405.85">
   <stop offset="0" style="stop-color:#FFC93E"/>
   <stop offset="0.25098" style="stop-color:#FFC93E"/>
   <stop offset="0.74902" style="stop-color:#FBB141"/>
   <stop offset="1" style="stop-color:#FBB141"/>
  </linearGradient>
  <linearGradient id="id4" gradientUnits="userSpaceOnUse" x1="7899.48" y1="2513.21" x2="11783.1" y2="2513.21">
   <stop offset="0" style="stop-color:#D88543"/>
   <stop offset="0.168627" style="stop-color:#DF9743"/>
   <stop offset="0.270588" style="stop-color:#E7A743"/>
   <stop offset="0.360784" style="stop-color:#DF9843"/>
   <stop offset="0.521569" style="stop-color:#D88B43"/>
   <stop offset="0.611765" style="stop-color:#D88B43"/>
   <stop offset="0.768627" style="stop-color:#E9A842"/>
   <stop offset="1" style="stop-color:#FFC93E"/>
  </linearGradient>
  <linearGradient id="id5" gradientUnits="userSpaceOnUse" x1="8107.75" y1="3648.03" x2="9400.14" y2="3648.03">
   <stop offset="0" style="stop-color:#D88543"/>
   <stop offset="0.309804" style="stop-color:#D88543"/>
   <stop offset="1" style="stop-color:#FFC93E"/>
  </linearGradient>
  <linearGradient id="id6" gradientUnits="userSpaceOnUse" x1="8744.26" y1="3746.54" x2="9720.78" y2="3746.54">
   <stop offset="0" style="stop-color:#D08543"/>
   <stop offset="0.309804" style="stop-color:#D08543"/>
   <stop offset="0.741176" style="stop-color:#E3A343"/>
   <stop offset="0.909804" style="stop-color:#FFC93E"/>
   <stop offset="1" style="stop-color:#FFC93E"/>
  </linearGradient>
  <linearGradient id="id7" gradientUnits="userSpaceOnUse" x1="10128.9" y1="1602.1" x2="8263.44" y2="1931.04">
   <stop offset="0" style="stop-color:#FCB53F"/>
   <stop offset="0.768627" style="stop-color:#FFC93E"/>
   <stop offset="1" style="stop-color:#FFC93E"/>
  </linearGradient>
  <linearGradient id="id8" gradientUnits="userSpaceOnUse" x1="9758.26" y1="2409.01" x2="8871.85" y2="-26.378">
   <stop offset="0" style="stop-color:#C58343"/>
   <stop offset="0.368627" style="stop-color:#DDA242"/>
   <stop offset="0.858824" style="stop-color:#FFC93E"/>
   <stop offset="1" style="stop-color:#FFC93E"/>
  </linearGradient>
  <linearGradient id="id9" gradientUnits="userSpaceOnUse" x1="11328" y1="2705.97" x2="12821.6" y2="1452.71">
   <stop offset="0" style="stop-color:#FAAC40"/>
   <stop offset="0.678431" style="stop-color:#FFC93E"/>
   <stop offset="1" style="stop-color:#FFC93E"/>
  </linearGradient>
  <linearGradient id="id10" gradientUnits="userSpaceOnUse" x1="8454.3" y1="3574.86" x2="11169.5" y2="1296.5">
   <stop offset="0" style="stop-color:#F5BC41"/>
   <stop offset="0" style="stop-color:#F5BC41"/>
   <stop offset="0.329412" style="stop-color:#F3AF3F"/>
   <stop offset="0.521569" style="stop-color:#FFC93E"/>
   <stop offset="1" style="stop-color:#FFC93E"/>
  </linearGradient>
  <linearGradient id="id11" gradientUnits="userSpaceOnUse" x1="9439.24" y1="2619.56" x2="8868.04" y2="1050.17">
   <stop offset="0" style="stop-color:#D08543"/>
   <stop offset="0.6" style="stop-color:#E7A741"/>
   <stop offset="1" style="stop-color:#FFC93E"/>
  </linearGradient>
  <linearGradient id="id12" gradientUnits="userSpaceOnUse" x1="10463.7" y1="1777.3" x2="8433.8" y2="605.331">
   <stop offset="0" style="stop-color:#FDBA3F"/>
   <stop offset="0.819608" style="stop-color:#FFC93E"/>
   <stop offset="1" style="stop-color:#FFC93E"/>
  </linearGradient>
  <linearGradient id="id13" gradientUnits="userSpaceOnUse" x1="11289.7" y1="3144.34" x2="12385.7" y2="2224.68">
   <stop offset="0" style="stop-color:#FCB53F"/>
   <stop offset="0.521569" style="stop-color:#FFC93E"/>
   <stop offset="1" style="stop-color:#FFC93E"/>
  </linearGradient>
  <linearGradient id="id14" gradientUnits="userSpaceOnUse" x1="9389.87" y1="2756.52" x2="9135.17" y2="2056.73">
   <stop offset="0" style="stop-color:#D88543"/>
   <stop offset="0.0705882" style="stop-color:#D88543"/>
   <stop offset="0.831373" style="stop-color:#FFC93E"/>
   <stop offset="1" style="stop-color:#FFC93E"/>
  </linearGradient>
 </defs>
 <g id="Layer_x0020_1">
  <metadata id="CorelCorpID_0Corel-Layer"/>
  <path class="fil0" d="M7042 4813c0,-291 211,-467 474,-467 112,0 182,15 252,44l-39 108c-60,-26 -129,-43 -202,-43 -194,0 -324,121 -324,333 0,202 137,333 314,333 86,0 146,-18 211,-56l43 103c-85,43 -165,62 -280,62 -257,0 -450,-168 -450,-417z"/>
  <path class="fil0" d="M7709 4625l160 0c57,135 134,346 180,485 41,-134 108,-350 155,-485l142 0c-63,148 -154,393 -227,589 -72,190 -147,257 -308,294l-35 -89c124,-30 182,-85 223,-205l-39 0c-75,-200 -165,-410 -252,-588z"/>
  <path class="fil0" d="M9335 4825c0,78 -5,124 -5,189 0,79 0,123 6,203l-149 0c6,-75 6,-118 6,-196 0,-69 -1,-145 -4,-183 -5,-76 -42,-116 -105,-116 -50,0 -98,26 -135,82 -5,49 -6,123 -6,190 0,86 1,136 6,222l-151 0c6,-75 6,-118 6,-196 0,-69 0,-143 -2,-183 -5,-78 -43,-116 -106,-116 -50,0 -98,26 -134,82 -5,49 -6,123 -6,190 0,86 1,136 6,222l-151 0c6,-112 7,-180 7,-294 0,-122 -1,-178 -7,-299l134 0 14 97c49,-74 107,-111 201,-111 81,0 146,47 170,123 60,-84 128,-123 215,-123 112,0 190,79 190,215z"/>
  <path class="fil0" d="M9756 4610c31,0 50,2 69,12l-44 149c-22,-7 -40,-11 -65,-11 -47,0 -88,22 -123,77 -4,42 -6,95 -6,167 0,62 1,137 6,212l-153 0c6,-111 7,-180 7,-294 0,-122 -1,-183 -7,-299l132 0 17 123c39,-93 107,-137 167,-137z"/>
  <path class="fil0" d="M10076 5230c-117,0 -193,-78 -193,-214 0,-80 3,-125 3,-189 0,-81 1,-131 -6,-203l153 0c-5,73 -5,119 -5,196 0,68 -1,135 2,183 4,78 43,116 111,116 48,0 97,-29 134,-82 5,-49 6,-125 6,-193 0,-86 -1,-134 -6,-219l152 0c-5,102 -6,164 -6,280 0,122 0,195 6,313l-137 0 -12 -97c-49,74 -115,110 -202,110z"/>
  <path class="fil0" d="M241 4476c-2,74 -4,212 -4,290 16,1 43,1 74,1 137,0 210,-52 210,-151 0,-92 -75,-142 -210,-142 -28,0 -55,0 -70,1zm4 748l-160 0c6,-159 7,-252 7,-414 0,-174 -1,-274 -7,-443l244 0c213,0 346,79 346,238 0,109 -68,186 -166,223 55,99 159,271 222,365l-161 59c-64,-111 -143,-264 -199,-379 -43,1 -88,1 -133,0 1,126 2,247 7,350z"/>
  <path class="fil0" d="M997 4728c49,-74 115,-111 202,-111 115,0 193,79 193,215 0,78 -3,124 -3,189 0,79 0,123 6,203l-152 0c4,-75 6,-118 6,-196 0,-69 -1,-143 -4,-183 -5,-78 -45,-116 -111,-116 -50,0 -99,26 -136,82 -2,48 -4,125 -4,190 0,86 1,143 6,222l-153 0c6,-170 7,-269 7,-441 0,-184 -1,-291 -7,-471l153 0c-2,57 -5,145 -5,207 0,74 0,138 1,209z"/>
  <path class="fil0" d="M1461 4631l160 0c57,135 134,346 180,485 40,-134 107,-350 155,-485l142 0c-63,148 -154,393 -227,589 -72,190 -147,257 -308,294l-35 -90c124,-30 182,-85 223,-205l-39 0c-75,-199 -165,-410 -252,-588z"/>
  <path class="fil0" d="M2426 5126c53,0 99,-24 137,-85 2,-37 4,-91 4,-138 0,-68 -1,-136 -2,-173 -31,-14 -62,-20 -105,-20 -97,0 -182,73 -182,205 0,147 63,212 148,212zm288 -814c-7,182 -7,287 -7,471 0,172 1,271 7,441l-139 0 -11 -97c-47,75 -123,110 -203,110 -121,0 -231,-104 -231,-294 0,-195 151,-326 335,-326 44,0 74,5 103,12 0,-103 -2,-196 -7,-317l153 0z"/>
  <path class="fil0" d="M3128 5126c52,0 99,-24 137,-85 2,-37 3,-91 3,-138 0,-68 -1,-136 -2,-173 -31,-14 -62,-20 -105,-20 -97,0 -182,73 -182,205 0,147 63,212 148,212zm288 -814c-7,182 -7,287 -7,471 0,172 1,271 7,441l-139 0 -11 -97c-47,75 -123,110 -203,110 -121,0 -230,-104 -230,-294 0,-195 150,-326 334,-326 44,0 74,5 103,12 0,-103 -2,-196 -7,-317l153 0z"/>
  <path class="fil0" d="M3842 4299c50,0 86,4 123,17l-27 93c-23,-7 -47,-11 -75,-11 -39,0 -70,14 -87,42 -18,29 -23,57 -23,191l166 0 0 98 -167 0c0,179 1,341 8,495l-153 0c7,-151 10,-315 10,-495l-107 0 0 -98 105 0c-1,-26 -1,-72 -1,-95 0,-147 85,-237 229,-237z"/>
  <path class="fil0" d="M4320 4617c31,0 50,3 69,12l-44 149c-22,-7 -40,-11 -65,-11 -47,0 -89,22 -123,76 -4,42 -6,96 -6,167 0,62 1,137 6,213l-153 0c6,-111 7,-180 7,-294 0,-122 -1,-183 -7,-299l132 0 17 123c39,-93 108,-137 167,-137z"/>
  <path class="fil0" d="M4400 4631l160 0c57,135 134,346 180,485 41,-134 108,-350 155,-485l142 0c-63,148 -154,393 -227,589 -72,190 -147,257 -308,294l-34 -90c124,-30 181,-85 223,-205l-39 0c-75,-199 -165,-410 -252,-588z"/>
  <path class="fil0" d="M5365 5126c52,0 99,-24 137,-85 2,-37 4,-91 4,-138 0,-68 -1,-136 -3,-173 -31,-14 -62,-20 -105,-20 -97,0 -182,73 -182,205 0,147 63,212 148,212zm288 -814c-7,182 -7,287 -7,471 0,172 1,271 7,441l-139 0 -11 -97c-47,75 -123,110 -203,110 -121,0 -231,-104 -231,-294 0,-195 151,-326 335,-326 44,0 74,5 103,12 0,-103 -2,-196 -7,-317l153 0z"/>
  <path class="fil0" d="M6085 4711c-104,0 -164,89 -164,216 0,127 60,216 164,216 105,0 165,-89 165,-216 0,-128 -61,-216 -165,-216zm0 -94c193,0 315,126 315,303 0,176 -129,317 -315,317 -193,0 -313,-123 -313,-302 0,-178 127,-318 313,-318z"/>
  <path class="fil0" d="M6674 5224l-153 0c6,-170 7,-269 7,-441 0,-184 -1,-289 -7,-471l153 0c-6,182 -7,287 -7,471 0,172 1,271 7,441z"/>
  <path class="fil0" d="M237 3638c0,115 1,233 4,329 17,1 74,1 112,1 234,0 363,-115 363,-329 0,-212 -139,-313 -369,-313 -38,0 -74,0 -106,1 -2,75 -4,191 -4,310zm-153 437c6,-159 7,-252 7,-414 0,-174 -1,-272 -7,-443l288 0c307,0 501,132 501,398 0,284 -185,459 -509,459l-279 0z"/>
  <path class="fil0" d="M1114 3711l284 0c-10,-107 -55,-153 -140,-153 -85,0 -137,60 -145,153zm203 270c70,0 139,-23 185,-59l33 92c-66,50 -142,74 -249,74 -178,0 -314,-113 -314,-318 0,-183 121,-302 296,-302 155,0 266,98 266,280 0,18 0,32 -1,50l-419 0c10,125 86,183 202,183z"/>
  <path class="fil0" d="M2580 3683c0,78 -5,124 -5,189 0,79 0,123 6,203l-149 0c6,-75 6,-118 6,-196 0,-69 -1,-144 -4,-183 -5,-76 -42,-116 -105,-116 -50,0 -98,26 -135,82 -5,49 -6,123 -6,190 0,86 1,136 6,222l-151 0c6,-75 6,-118 6,-196 0,-69 0,-143 -2,-183 -5,-78 -43,-116 -106,-116 -50,0 -98,26 -134,82 -5,49 -6,123 -6,190 0,86 1,136 6,222l-151 0c6,-112 7,-180 7,-294 0,-122 -1,-178 -7,-299l134 0 14 97c49,-74 107,-111 201,-111 81,0 146,47 170,123 60,-84 128,-123 215,-123 112,0 190,79 190,215z"/>
  <path class="fil0" d="M3011 3562c-104,0 -164,89 -164,216 0,127 60,216 164,216 105,0 165,-89 165,-216 0,-128 -61,-216 -165,-216zm0 -94c192,0 315,126 315,303 0,176 -129,317 -315,317 -193,0 -313,-123 -313,-302 0,-178 127,-318 313,-318z"/>
  <path class="fil0" d="M3560 3761c0,151 80,220 189,220 50,0 99,-12 141,-42l33 89c-61,42 -129,61 -217,61 -164,0 -294,-107 -294,-313 0,-172 135,-307 319,-307 76,0 131,11 185,32l-35 97c-38,-18 -87,-30 -137,-30 -116,0 -184,75 -184,193z"/>
  <path class="fil0" d="M4335 3468c31,0 50,3 70,12l-44 149c-22,-7 -39,-11 -65,-11 -47,0 -88,22 -123,76 -4,42 -6,96 -6,167 0,62 1,137 6,213l-153 0c6,-111 7,-180 7,-294 0,-122 -1,-183 -7,-299l132 0 17 123c39,-93 107,-137 167,-137z"/>
  <path class="fil0" d="M4725 3977c52,0 99,-24 137,-85 2,-37 4,-91 4,-138 0,-68 -1,-143 -4,-173 -31,-14 -61,-20 -104,-20 -97,0 -182,73 -182,205 0,147 63,212 148,212zm288 98l-139 0 -11 -97c-47,75 -123,110 -203,110 -121,0 -231,-104 -231,-294 0,-195 151,-326 335,-326 63,0 105,7 149,22l103 -31c-10,119 -11,184 -11,307 0,127 0,180 7,310z"/>
  <path class="fil0" d="M5340 3580c0,114 -5,235 2,316 5,57 45,84 87,84 42,0 71,-7 101,-26l30 84c-44,32 -109,50 -180,50 -104,0 -182,-71 -182,-201 0,-90 5,-208 5,-307l-98 0 0 -98 99 0c0,-57 0,-97 -2,-151l149 -32c-7,63 -10,127 -10,183l186 0 0 98 -189 0z"/>
  <path class="fil0" d="M5804 4075l-153 0c6,-112 7,-180 7,-294 0,-122 -1,-179 -7,-299l153 0c-6,119 -7,177 -7,299 0,113 1,181 7,294zm-76 -708c-60,0 -93,-38 -93,-84 0,-43 33,-81 93,-81 58,0 92,38 92,81 0,45 -33,84 -92,84z"/>
  <path class="fil0" d="M6217 3977c52,0 99,-24 137,-85 2,-37 4,-91 4,-138 0,-68 -1,-143 -4,-173 -31,-14 -61,-20 -104,-20 -97,0 -181,73 -181,205 0,147 63,212 148,212zm288 98l-139 0 -11 -97c-47,75 -123,110 -203,110 -120,0 -230,-104 -230,-294 0,-195 150,-326 334,-326 63,0 105,7 150,22l103 -31c-10,119 -11,184 -11,307 0,127 0,180 7,310z"/>
  <path class="fil0" d="M6815 4075l-153 0c6,-112 7,-180 7,-294 0,-122 -1,-179 -7,-299l153 0c-6,119 -7,177 -7,299 0,113 1,181 7,294zm-76 -708c-60,0 -93,-38 -93,-84 0,-43 33,-81 93,-81 58,0 92,38 92,81 0,45 -33,84 -92,84z"/>
  <path class="fil0" d="M7229 3977c53,0 99,-24 137,-85 2,-37 4,-91 4,-138 0,-68 -1,-136 -2,-173 -31,-14 -62,-20 -105,-20 -97,0 -181,73 -181,205 0,147 63,212 148,212zm288 -814c-7,182 -7,287 -7,471 0,172 1,271 7,441l-138 0 -11 -97c-47,75 -123,110 -203,110 -121,0 -231,-104 -231,-294 0,-195 150,-326 334,-326 44,0 74,5 103,12 0,-103 -3,-196 -7,-317l153 0z"/>
  <path class="fil0" d="M305 1493c-92,-279 -223,-652 -305,-861l177 0c59,160 162,499 222,700 51,-151 123,-342 176,-478 -23,-68 -56,-161 -81,-222l171 0c62,182 164,499 226,700 60,-196 159,-518 219,-700l155 0c-86,228 -217,596 -306,861l-160 0c-56,-173 -122,-369 -166,-488 -55,143 -122,330 -176,488l-152 0z"/>
  <path class="fil0" d="M1357 1124l284 0c-10,-106 -55,-153 -140,-153 -85,0 -137,60 -145,153zm203 270c70,0 139,-23 185,-59l33 92c-66,50 -142,74 -248,74 -178,0 -314,-113 -314,-318 0,-183 121,-302 296,-302 155,0 266,98 266,280 0,18 0,32 -1,50l-419 0c10,125 86,183 202,183z"/>
  <path class="fil0" d="M2052 1489l-153 0c6,-170 7,-269 7,-441 0,-184 -1,-289 -7,-471l153 0c-6,182 -7,287 -7,471 0,172 1,271 7,441z"/>
  <path class="fil0" d="M2585 1006c-44,-17 -93,-26 -148,-26 -90,0 -119,25 -119,60 0,29 17,48 82,73l73 29c115,44 158,96 158,183 0,106 -99,178 -235,178 -106,0 -172,-17 -229,-47l29 -96c54,29 121,45 185,45 82,0 116,-29 116,-68 0,-36 -17,-57 -100,-88l-73 -27c-92,-33 -140,-82 -140,-168 0,-96 90,-171 246,-171 75,0 129,7 185,27l-29 97z"/>
  <path class="fil0" d="M2894 993c49,-74 115,-111 202,-111 115,0 194,79 194,215 0,78 -4,124 -4,189 0,79 0,123 6,203l-152 0c4,-75 6,-118 6,-196 0,-69 -1,-143 -4,-183 -5,-78 -45,-116 -111,-116 -50,0 -99,26 -136,82 -2,48 -4,125 -4,190 0,86 1,143 6,222l-153 0c6,-170 7,-269 7,-441 0,-184 -1,-290 -7,-471l153 0c-2,57 -5,145 -5,207 0,74 0,139 1,209z"/>
  <path class="fil0" d="M3700 1380c128,0 294,-2 385,-7l-44 116 -497 0c6,-159 7,-252 7,-413 0,-174 -1,-272 -7,-443l160 0c-6,171 -7,269 -7,443 0,115 1,199 4,305z"/>
  <path class="fil0" d="M4335 1489l-153 0c6,-112 7,-180 7,-294 0,-122 -1,-179 -7,-299l153 0c-6,119 -7,177 -7,299 0,113 1,182 7,294zm-76 -708c-60,0 -93,-38 -93,-84 0,-43 33,-81 93,-81 59,0 92,38 92,81 0,45 -33,84 -92,84z"/>
  <path class="fil0" d="M4777 994c-62,0 -106,30 -139,82 -2,37 -4,86 -4,133 0,72 1,152 4,182 29,13 61,19 105,19 106,0 179,-78 179,-215 0,-139 -56,-201 -146,-201zm-289 -417l153 0c-2,59 -5,145 -5,207 0,74 0,139 1,209 47,-76 121,-111 199,-111 127,0 233,96 233,281 0,194 -128,339 -343,339 -105,0 -182,-19 -238,-50 5,-153 6,-232 6,-404 0,-184 -1,-328 -7,-471z"/>
  <path class="fil0" d="M5296 1124l284 0c-10,-106 -55,-153 -140,-153 -85,0 -137,60 -145,153zm203 270c70,0 139,-23 185,-59l33 92c-66,50 -142,74 -248,74 -178,0 -314,-113 -314,-318 0,-183 121,-302 296,-302 155,0 266,98 266,280 0,18 0,32 -1,50l-419 0c10,125 86,183 202,183z"/>
  <path class="fil0" d="M6154 882c31,0 50,2 69,12l-44 149c-22,-7 -39,-11 -65,-11 -47,0 -88,22 -123,76 -4,42 -6,96 -6,167 0,62 1,137 6,213l-153 0c6,-111 7,-180 7,-294 0,-122 -1,-183 -7,-299l131 0 17 123c39,-93 107,-137 167,-137z"/>
  <path class="fil0" d="M6543 1391c53,0 99,-24 137,-85 2,-37 4,-91 4,-139 0,-68 -1,-143 -4,-173 -31,-14 -61,-20 -104,-20 -97,0 -182,73 -182,205 0,147 63,211 148,211zm288 98l-139 0 -11 -97c-47,75 -123,110 -203,110 -121,0 -231,-104 -231,-294 0,-195 151,-326 334,-326 63,0 105,7 149,22l103 -31c-10,119 -11,184 -11,307 0,127 0,180 7,309z"/>
  <path class="fil0" d="M7141 1489l-153 0c6,-170 7,-269 7,-441 0,-184 -1,-289 -7,-471l153 0c-6,182 -7,287 -7,471 0,172 1,271 7,441z"/>
  <path class="fil0" d="M240 2117c0,115 1,233 4,328 17,1 74,1 112,1 234,0 363,-115 363,-328 0,-213 -139,-313 -369,-313 -38,0 -74,0 -106,1 -2,75 -4,191 -4,311zm-153 437c6,-159 7,-252 7,-413 0,-174 -1,-272 -7,-443l288 0c307,0 500,131 500,398 0,284 -185,459 -509,459l-279 0z"/>
  <path class="fil0" d="M1117 2190l284 0c-10,-106 -55,-153 -140,-153 -85,0 -137,60 -145,153zm203 270c70,0 139,-23 185,-59l33 92c-66,50 -142,74 -248,74 -178,0 -314,-113 -314,-318 0,-183 121,-302 296,-302 155,0 266,98 266,280 0,18 0,32 -1,50l-419 0c10,125 86,183 202,183z"/>
  <path class="fil0" d="M2582 2162c0,78 -5,124 -5,189 0,79 0,123 6,203l-149 0c6,-75 6,-118 6,-196 0,-69 -1,-145 -4,-183 -5,-76 -42,-116 -105,-116 -50,0 -98,26 -135,82 -5,49 -6,123 -6,190 0,86 1,136 6,222l-151 0c6,-75 6,-118 6,-196 0,-69 0,-143 -2,-183 -5,-78 -43,-116 -106,-116 -50,0 -98,26 -134,82 -5,49 -6,123 -6,190 0,86 1,136 6,222l-151 0c6,-112 7,-180 7,-294 0,-122 -1,-178 -7,-299l134 0 14 97c49,-74 107,-111 201,-111 81,0 146,47 170,123 60,-84 128,-123 215,-123 112,0 190,79 190,215z"/>
  <path class="fil0" d="M3014 2042c-104,0 -164,88 -164,216 0,127 60,216 164,216 105,0 165,-88 165,-216 0,-128 -61,-216 -165,-216zm0 -94c192,0 315,125 315,303 0,176 -129,317 -315,317 -194,0 -313,-123 -313,-302 0,-178 127,-318 313,-318z"/>
  <path class="fil0" d="M3563 2240c0,152 80,220 189,220 50,0 99,-12 141,-42l33 88c-61,42 -129,61 -217,61 -164,0 -294,-106 -294,-313 0,-172 135,-307 319,-307 76,0 131,11 185,32l-35 97c-38,-18 -87,-30 -137,-30 -116,0 -184,75 -184,194z"/>
  <path class="fil0" d="M4338 1947c31,0 50,2 69,12l-44 149c-22,-7 -39,-11 -65,-11 -47,0 -88,22 -123,76 -4,42 -6,96 -6,167 0,62 1,137 6,213l-153 0c6,-111 7,-180 7,-294 0,-122 -1,-183 -7,-299l131 0 17 123c39,-93 107,-137 167,-137z"/>
  <path class="fil0" d="M4728 2456c53,0 99,-24 137,-85 2,-37 4,-91 4,-139 0,-68 -1,-143 -4,-173 -31,-14 -61,-20 -104,-20 -97,0 -182,73 -182,205 0,147 63,211 148,211zm288 98l-139 0 -11 -97c-47,75 -123,110 -203,110 -121,0 -231,-104 -231,-294 0,-195 151,-326 334,-326 63,0 105,7 149,22l103 -31c-10,119 -11,184 -11,307 0,127 0,180 7,309z"/>
  <path class="fil0" d="M5343 2060c0,115 -5,235 2,317 5,57 45,84 87,84 42,0 72,-7 102,-26l30 84c-44,32 -109,50 -180,50 -104,0 -182,-70 -182,-201 0,-90 5,-208 5,-307l-98 0 0 -98 99 0c0,-57 0,-97 -2,-151l149 -32c-7,63 -10,127 -10,183l186 0 0 98 -189 0z"/>
  <path class="fil0" d="M6033 2072c-44,-17 -93,-26 -148,-26 -90,0 -119,25 -119,60 0,29 17,48 82,73l73 29c115,44 158,96 158,183 0,106 -99,178 -235,178 -106,0 -172,-17 -229,-47l29 -96c54,29 121,45 185,45 82,0 116,-29 116,-68 0,-36 -17,-57 -100,-88l-73 -27c-92,-33 -140,-82 -140,-168 0,-96 90,-171 246,-171 75,0 129,7 185,27l-29 97z"/>
  <line class="fil1 str0" x1="85" y1="2899" x2="7517" y2= "2899" />
  <path class="fil2" d="M9297 1158l0 0 0 0c-39,-21 -78,-43 -117,-65l0 0 0 0c-11,-6 -22,-13 -33,-19l0 0 0 0c-175,-103 -336,-217 -454,-354l0 0 0 0c-39,-45 -73,-93 -101,-143l0 0 0 0c-69,-122 -105,-261 -96,-424l0 0c3,-49 10,-99 21,-152l0 0 0 0c31,322 464,692 464,692 254,212 790,442 790,442 7,3 13,6 19,9l3 1 0 0 0 0c31,14 60,29 87,43l0 0 0 0 3 1 0 0 0 0c21,11 42,22 61,33l0 0 0 0c3,2 7,4 10,6l0 0 0 0c21,12 41,24 60,36l0 0 0 0c7,4 13,8 19,12l0 0 0 0c7,5 14,9 21,14l0 0 0 0 4 3 0 0 0 0c19,13 36,25 53,37l0 0 0 0c2,1 4,3 5,4l0 0 0 0c11,8 21,16 30,24l0 0 0 0c11,9 22,18 32,26l0 0 0 0c3,3 6,6 10,8l0 0 0 0c33,29 61,56 83,80l0 0 0 0c21,23 38,43 51,61l0 0 0 0c33,43 45,70 45,70 1,2 2,4 2,6l0 0 0 0 1 3 0 1 0 0 1 2 0 0 0 0c0,1 1,2 1,3l0 1 0 0 1 3 0 1 1 0 1 2 0 2 1 0 1 2 0 2 1 0 1 2 0 1 0 0 1 3 0 1 0 0c0,1 1,2 1,3l0 1 0 0 1 3 0 1 0 0c2,6 4,12 5,18l0 0 0 0c0,1 1,3 1,4l0 1 0 0c0,1 1,3 1,4l0 1 0 0c0,1 1,3 1,4l0 3 1 0 1 3 0 3 1 0 1 3 0 2 0 0 1 4 0 1 0 0 1 6 0 0 0 0c1,5 2,10 3,15l0 2 0 0c0,2 1,5 1,7l0 4 1 0c0,2 1,4 1,5l0 4 1 0c0,2 1,4 1,6l0 3 0 0c1,9 2,19 2,28l0 10 1 0c1,21 1,42 0,63l0 0 0 8c0,6 -1,12 -1,17l0 0 0 1c0,4 -1,8 -1,11l0 0 0 3c0,3 -1,6 -1,10l0 0 0 2c0,3 -1,6 -1,9l0 0 0 2c0,3 -1,6 -1,10l0 0 0 0c0,3 -1,6 -1,8l0 0 0 1c0,2 -1,4 -1,6l0 0 0 2c0,2 -1,4 -1,7l0 0 0 1 -1 6 0 0 0 2 -1 7 0 0 0 0c-1,6 -3,13 -4,19l0 0 0 0 -1 6 0 0 0 0 -1 5 0 0 0 1 -1 5 0 0 0 1 -1 5 0 0 0 1 -1 5 0 0 0 1 -1 5 0 0 0 0c-2,6 -4,13 -5,19l0 0 0 0 -1 4 0 0 0 1c0,2 -1,3 -1,5l0 0 0 0 -1 4 0 0 0 0 -1 4 0 0 0 1c-3,10 -6,19 -9,29l0 0 0 1 -1 3 0 0 0 0 -1 4 0 0 0 0c-1,4 -3,7 -4,11l0 0 0 1 -1 4 0 0 0 0c-4,9 -7,19 -11,28l0 0 0 1 -3 6 0 0 0 0 -3 7 0 0 0 0c-1,3 -3,6 -4,10l0 0 0 0c-2,4 -4,8 -6,12l0 0 0 0 -1 3 0 0 0 0c-2,4 -4,8 -6,12l0 0 0 0 -1 3 0 0 0 0c-9,20 -19,38 -28,55l0 0 0 0c-7,13 -14,26 -21,37l0 0 0 0c-7,13 -14,24 -21,35l0 0 0 0 -3 5c-18,28 -40,52 -45,58 33,-119 43,-245 38,-360 -4,-100 -28,-190 -73,-276 -43,-81 -103,-147 -192,-207 -195,-135 -442,-253 -678,-381z"/>
  <path class="fil3" d="M11768 1536c-5,-4 -10,-6 -14,-7 -14,-5 -29,-9 -52,-9 -17,0 -37,2 -60,6 0,0 -22,4 -62,4 -49,0 -125,-5 -221,-31 0,0 -68,-15 -162,-15 -141,0 -340,33 -459,197 0,0 -144,182 -270,486 0,0 -231,483 -541,679 0,0 -327,252 -771,315 0,0 -117,22 -276,22 -123,0 -271,-13 -407,-60 0,0 -218,-52 -415,-157 -66,-35 -141,-76 -193,-122 0,0 -10,45 -10,111l0 6c0,76 14,177 67,267 0,0 8,17 20,38 102,89 229,120 355,120 295,0 639,-165 926,-182 411,0 867,-53 1187,-281 239,-171 399,-459 531,-767 133,-333 453,-540 826,-621z"/>
  <path class="fil4" d="M9323 3577c0,0 -136,361 -276,452 0,0 -35,29 -96,51 -36,13 -92,26 -144,26 -8,0 -55,-1 -63,-1 53,16 138,32 187,37 2,0 15,0 17,0 500,46 551,-485 684,-819 1,-1 3,-2 4,-4 16,-13 57,-12 84,-14 -2,0 -10,-3 -11,-3 -9,-2 -11,-2 -24,-3 -13,-1 -28,2 -39,4 -87,14 -225,70 -324,274z"/>
  <path class="fil5" d="M11914 2749c-81,0 -162,-6 -240,-23 -53,-11 -105,-27 -158,-37 -46,-9 -93,-15 -139,-18 -22,-1 -43,-2 -65,-2 -90,0 -142,13 -142,13 -155,40 -273,107 -339,151 -15,10 -39,27 -49,34 21,-6 54,-18 75,-21 52,-7 104,-5 154,-5 129,0 251,60 379,88 127,29 258,41 387,41 72,0 153,-12 226,-35 324,-125 621,-252 874,-517l17 -21c-188,144 -569,272 -569,272 -139,62 -288,79 -410,79z"/>
  <path class="fil6" d="M12826 1834c-145,108 -321,168 -497,199 -246,44 -511,-34 -750,48 -358,119 -592,507 -592,507 8,-5 16,-10 23,-15 298,-357 876,-154 1292,-276 372,-93 722,-354 862,-726 -114,119 -337,264 -337,264z"/>
  <path class="fil7" d="M9333 3298c-210,0 -494,213 -494,213 -182,119 -338,165 -338,165 -49,13 -94,18 -136,18 -131,0 -222,-52 -257,-76 105,132 244,248 384,248 64,0 128,-17 191,-56 242,-121 439,-423 718,-496 -21,-12 -40,-14 -50,-15 -6,0 -12,-1 -17,-1z"/>
  <path class="fil8" d="M9537 2364c0,0 -320,-25 -491,-97 0,0 -338,-117 -418,-180 0,0 25,32 37,44 109,107 236,232 378,285 106,68 253,120 396,127 137,7 271,-18 362,47 37,27 53,40 73,77 7,13 15,36 20,57 4,-4 7,-10 11,-18 5,-10 7,-22 8,-31 9,-72 -1,-202 -159,-266 0,0 -57,-25 -217,-46z"/>
  <path class="fil9" d="M8471 1503c359,334 884,399 1346,630 166,71 214,262 198,455 21,-48 105,-248 34,-451 0,0 -36,-168 -455,-328 0,0 -586,-203 -779,-329 0,0 -401,-207 -527,-534 0,0 -15,51 -11,125 28,165 78,334 195,432z"/>
  <path class="fil10" d="M11761 1533c-373,81 -717,280 -851,613 -130,304 -271,568 -506,738 -275,199 -695,282 -1028,307 -111,9 -222,9 -332,26 -102,16 -202,41 -302,65 -100,24 -201,47 -303,60 -55,7 -110,11 -165,10 -121,-2 -277,-84 -375,-169 11,19 24,61 52,97 63,82 172,174 290,183 0,0 168,30 430,-81 0,0 440,-159 707,-165 0,0 587,5 836,-83 188,-67 344,-151 504,-353 161,-202 202,-371 254,-479 0,0 156,-325 346,-478 0,0 243,-208 463,-275 0,0 -6,-8 -22,-15z"/>
  <path class="fil11" d="M9511 1432l0 0 0 0c-27,-11 -53,-24 -81,-36l0 0 0 0c-159,-74 -319,-162 -381,-196l0 0 0 0c-17,-9 -26,-15 -26,-15 -5,-3 -9,-6 -14,-9l0 0 0 0c-5,-3 -10,-6 -15,-10l0 0 0 0c-11,-7 -22,-15 -33,-22l0 0 0 0c-23,-16 -45,-32 -67,-49l0 0 0 0c-7,-5 -13,-10 -19,-15l0 0 0 0c-8,-6 -16,-13 -24,-19l0 0 0 0c-3,-3 -6,-5 -10,-8l0 0 0 0c-8,-6 -15,-13 -22,-19l0 0 0 0c-13,-12 -25,-23 -37,-35l0 0 0 0c-11,-10 -21,-20 -31,-30l0 0 0 0 -1 -1 0 0 0 0c-23,-24 -44,-47 -62,-69l0 0 0 0c-2,-3 -5,-6 -7,-8l0 0 0 0c-42,-51 -74,-99 -99,-139l0 0 0 0c-44,-73 -61,-120 -61,-120 -2,-5 -4,-10 -6,-14l0 0 0 0c-1,-2 -2,-4 -3,-7l0 0 0 0c-2,-5 -4,-9 -5,-14l0 0 0 0c-1,-4 -3,-7 -4,-11l0 0 0 0c-3,-8 -6,-16 -8,-24l0 0 0 0 -1 -4 0 0 0 0 -1 -4 0 0 0 0c-2,-7 -5,-15 -7,-22l0 0 0 0c-1,-3 -2,-6 -3,-10l0 0 0 0c-3,-11 -6,-21 -8,-31l0 -1 0 0 -1 -5 0 0 0 0c-7,-29 -12,-57 -15,-85l0 0 0 0c-1,-9 -2,-17 -3,-26l0 0 0 0c-1,-16 -2,-32 -3,-47l0 -1 0 0c0,-13 0,-25 0,-38l0 0 0 -2c0,-16 1,-31 3,-46l0 0 0 -1c0,-5 1,-9 1,-13l0 0 0 0c1,-7 2,-15 3,-22l0 0 0 0c1,-9 3,-18 4,-26l0 0 0 0c7,-39 16,-72 25,-99l0 0 0 0c15,-44 29,-71 30,-75l0 0c-139,712 547,1011 1122,1322l0 0 0 0c28,15 56,30 83,46l0 0 0 0 12 7 0 0 0 0c20,11 39,22 58,33l0 0 0 0c16,9 32,18 47,28l0 0 0 0c15,9 29,18 43,26l0 0 0 0c4,2 7,5 11,7l0 0 0 0c5,3 10,6 15,10l0 0 0 0c15,10 30,19 44,29l0 0 0 0 4 2 0 0 0 0c1,1 2,2 4,3l0 0 0 0 4 3 0 0 0 0 4 3 0 0 0 0 4 3 0 0 0 0c3,2 7,4 10,7l0 0c3,2 6,4 8,6l0 0 0 0 4 3 0 0 0 0 1 1 0 0 1 0 3 2 0 0 0 0c1,1 2,2 4,3l0 0 0 0 1 1 0 0 1 0 4 3 0 0 0 0 1 1 0 1 1 0 3 3 0 0 0 0c2,1 4,3 5,4l0 0 0 0c2,2 5,4 7,5l0 0 0 0c2,2 5,4 7,5l0 0 0 0 1 1 0 0 0 0 1 1 0 1 1 0c2,1 3,3 5,4l0 0 0 0 1 1 0 0 0 0 1 1 0 0 1 0 1 1 0 1 1 0c2,2 4,4 6,5l0 0 0 0 1 1 0 0 0 0 1 1 0 0 0 0c15,14 29,28 43,43l0 0 0 0c2,3 5,5 7,8l0 0 0 0 1 1 0 0 0 0c2,2 4,4 5,6l0 1 0 0 1 1 0 0 0 0c2,2 4,4 5,7l0 0 0 0c2,2 4,5 5,7l0 0 0 0c1,2 3,4 4,5l0 0 0 0c1,2 3,4 4,5l0 0 0 0c1,1 2,3 3,4l0 0 0 0 2 4 0 1 0 0 1 1 0 0 0 0 1 2 0 1 1 0 1 1 0 0 0 0 3 4 0 0 0 0 3 4 0 0 0 0 3 4 0 0 0 0c2,4 5,7 7,11l0 0 0 0 1 2 0 1 0 0c1,1 2,3 2,4l0 0 0 0 1 2 0 1 0 0 1 2 0 1 1 0c1,1 1,3 2,4l0 0 0 0 1 2 0 1 0 0c3,6 6,12 9,18l0 0 0 0 1 2 0 0 0 0 1 2 0 0 0 0 1 3 0 0 0 0 1 3 0 0 0 0 1 3 0 0 0 0c1,3 3,6 4,9l0 1 0 0 1 2 0 1 0 0 1 3 0 0 0 0c1,3 3,6 4,10l0 0 0 0c1,2 2,4 3,7l0 0 0 0 1 3 0 1 0 0 1 3 0 0 0 0c0,1 1,2 1,3l0 1 0 0c1,2 2,5 2,7l0 0 0 0 1 4 0 1 0 0c2,7 5,13 7,20l0 1 0 0 1 4 0 1 0 0 1 4 0 0 0 0c0,2 1,3 1,5l0 1 0 0 1 4 0 0 0 0c0,2 1,3 1,5l0 1 0 0c1,5 3,10 4,15l0 0 0 0c0,2 1,4 1,5l0 0 0 0c0,2 1,4 1,6l0 1 0 0c0,2 1,3 1,5l0 2 0 0 1 5 0 1 0 0 1 6 0 1 0 0c1,7 3,15 4,22l0 1 0 0c0,2 1,5 1,7l0 2 0 0c0,3 1,5 1,8l0 1 0 0c1,7 2,15 3,22l0 1 0 0c0,4 1,9 1,13l0 4 0 0c0,5 1,10 1,15l0 0 0 0c1,10 1,21 1,31l0 9 0 0c0,8 0,17 0,25l0 0 0 12c0,10 -1,20 -1,31l0 0 0 2c0,6 -1,11 -1,17l0 0 0 3c-1,10 -2,19 -3,29l0 0 0 1c0,4 -1,8 -1,11l0 0 0 1c0,3 -1,7 -1,10l0 0 0 1c-1,4 -1,8 -2,13 -1,9 -2,18 -4,26l0 0 0 1 -1 9 0 0 0 1 -1 9 0 0 0 0 -1 8 0 0 0 1c-1,8 -3,16 -4,24l0 0 0 1 -1 6 0 0 0 1 -1 6 0 0 0 2 -1 5 0 0 0 2 -1 5 0 0 0 2 -1 5 0 0 0 1 -1 6 0 0 0 0 -1 5 0 0 0 1 -1 5c-1,2 -1,5 -2,7l0 0 0 0 -1 5 0 0 0 1c0,2 -1,3 -1,5l0 0 0 1c0,2 -1,3 -1,5l0 0 0 0 -1 2c-1,4 -2,7 -4,11l0 0 0 0c-1,3 -2,6 -4,9l-2 3c11,-50 8,-146 4,-216 -3,-51 -5,-89 -5,-89 -2,-25 -3,-36 -5,-53 -2,-16 -6,-32 -10,-48 -89,-334 -600,-515 -600,-515 -24,-9 -49,-20 -75,-31z"/>
  <path class="fil12" d="M9765 2081c-57,-25 -117,-44 -174,-67 -82,-33 -164,-63 -246,-93 -47,-17 -94,-35 -141,-52 -164,-62 -326,-128 -477,-218 -84,-50 -157,-110 -232,-173 -118,-98 -191,-242 -218,-407 7,150 48,402 227,562 0,0 163,153 338,226 0,0 281,120 531,189 0,0 462,124 581,309 0,0 79,124 57,243 0,0 2,-4 5,-11 4,-10 5,-23 5,-34 1,-21 1,-42 1,-62 0,-14 -1,-28 -1,-43 0,-15 -1,-30 -3,-45 -3,-30 -8,-60 -17,-90 -29,-94 -98,-163 -184,-209 -17,-9 -34,-17 -52,-25z"/>
  <path class="fil13" d="M9034 2377c-37,-23 -286,-179 -406,-290 37,58 247,370 565,482 0,0 179,74 408,65 0,0 16,-2 40,-4 69,-3 205,3 251,94 0,0 2,2 4,-8 -14,-64 -40,-117 -74,-143 -66,-49 -164,-30 -276,-40 -174,-16 -379,-70 -514,-156z"/>
  <path class="fil14" d="M8700 3791c-199,124 -421,32 -575,-160 -11,-7 -17,-12 -17,-12 50,79 107,137 107,137 205,228 440,166 440,166 163,-46 440,-372 440,-372 191,-227 304,-235 304,-235l-4 0c-279,74 -454,356 -697,478z"/>
  <path class="fil15" d="M9625 3328c-64,58 -91,140 -117,220 -47,141 -88,310 -179,430 -60,80 -145,125 -243,143 -54,9 -116,18 -171,14 -57,-4 -114,-16 -170,-29 55,23 106,42 166,52 78,13 181,32 260,14 155,-35 252,-137 306,-284 15,-42 21,-86 30,-129 19,-90 48,-180 84,-265 28,-66 65,-152 132,-188 0,0 -9,-1 -25,-2 -30,2 -55,8 -71,24z"/>
  <path class="fil16" d="M11060 2517l0 0 0 0c5,-5 10,-9 15,-13 8,-7 17,-14 25,-21l0 0 0 0c5,-4 10,-8 15,-12l0 0 0 0c20,-16 40,-32 61,-47l0 0 0 0 4 -3 0 0 0 0c3,-2 6,-5 10,-7l0 0 0 0 4 -3 0 0 0 0 4 -3 0 0 0 0 4 -3 0 0 0 0 4 -3c4,-2 7,-5 11,-7l0 0 0 0c2,-1 4,-3 7,-4l0 0 0 0c2,-1 4,-3 7,-4l0 0 0 0c8,-5 17,-9 25,-14l0 0 0 0 3 -1 0 0 0 0 3 -1 0 0 0 0 3 -1 0 0 0 0 3 -1 0 0 0 0 3 -1 0 0 0 0c5,-2 10,-5 15,-7l0 0 0 0c2,-1 4,-2 6,-3l1 0 0 0 2 -1 0 0 0 0 3 -1 1 0 0 0 2 -1 0 0 0 0 3 -1 1 0 0 0 3 -1 0 0 0 0 4 -1 1 0 0 0c5,-2 10,-4 15,-5l1 0 0 0 3 -1 1 0 0 0 4 -1 1 0 0 0 4 -1 1 0 0 0 4 -1 1 0 0 0 5 -1 1 0 0 0c3,-1 5,-1 8,-2 3,-1 6,-1 9,-2l0 0 0 0 6 -1 1 0 0 0 6 -1 1 0 0 0 6 -1 1 0 0 0 6 -1 1 0 0 0 7 -1 2 0 0 0 6 -1 0 0 0 0c3,0 5,-1 8,-1l0 0 0 0c3,0 6,-1 9,-1l1 0 0 0c3,0 6,-1 9,-1l2 0 0 0c3,0 5,-1 8,-1l2 0 0 0c3,0 7,-1 10,-1l1 0 0 0c9,-1 18,-2 26,-3l3 0 0 0c5,0 10,-1 15,-1l3 0 0 0c6,0 13,-1 19,-1l0 0 0 0c13,-1 26,-1 39,-1l7 0 0 0c12,0 23,0 35,0l0 0 18 0c13,0 26,1 39,1l0 0 4 0c16,1 32,2 47,3l0 0 2 0c6,0 12,1 19,1l0 0 1 0c6,0 12,1 17,1l0 0 0 0c5,0 11,1 16,1l0 0 0 0c5,0 10,1 15,1l0 0 0 0c7,1 13,1 20,2 141,14 278,9 417,-17 55,-11 110,-23 164,-39 169,-51 331,-137 459,-257 138,-130 223,-255 310,-433 14,-14 26,-28 36,-41l1 -1c2,-3 5,-6 7,-10l0 15c-2,30 -10,103 -47,197l0 0 0 0c-5,13 -11,26 -17,39l0 0 0 0c-7,15 -15,31 -23,47l0 0 0 0 -1 3 0 0 0 0c-4,7 -8,15 -12,22l0 0 0 0c-4,7 -8,14 -12,21l0 0 0 0c-2,4 -5,7 -7,11l0 0 0 0 -3 4 0 0 0 0c-4,5 -7,11 -11,17l0 0 0 0 -3 4 0 0 0 0c-5,8 -11,16 -17,23l0 0 0 0c-1,2 -3,4 -4,6l0 0 0 0c-1,2 -3,4 -4,6l0 0 0 0c-7,9 -13,18 -21,26l0 0 0 0c-7,9 -14,17 -22,26l0 0 0 0c-3,4 -6,7 -10,11l0 0 0 0c-5,6 -11,12 -17,18l0 0 0 0 -1 1 0 0 0 0 -1 1 0 0 0 0c-18,18 -36,37 -57,55l0 0 0 0 -1 1 0 0 0 0c-8,7 -16,14 -24,21l0 0 0 0c-3,2 -5,5 -8,7l0 0 0 0c-3,2 -5,5 -8,7l0 0 0 0c-3,2 -5,5 -8,7l0 0 0 0c-2,2 -5,4 -7,6l0 0 0 0c-4,3 -8,6 -12,10l0 0 0 0c-4,3 -8,6 -12,10l0 0 0 0c-2,1 -4,3 -6,4l0 0 0 0c-5,4 -10,7 -15,11l0 0 0 0c-3,2 -6,5 -9,7l0 0 0 0c-3,2 -6,5 -10,7l0 0 0 0c-16,11 -33,22 -50,33l0 0 0 0 -2 1c0,0 -30,21 -85,51l0 0 0 0c-8,4 -17,9 -26,14l0 0 0 0c-16,8 -33,16 -51,25l0 0 0 0c-9,4 -18,8 -28,12l0 0 0 0c-37,16 -79,33 -125,49l0 0 0 0 -4 1 0 0 0 0c-7,2 -14,5 -21,7l0 0 0 0c-9,3 -17,6 -26,8l0 0 0 0c-5,1 -9,3 -14,4l0 0 0 0c-10,3 -19,6 -29,8l0 0 0 0c-5,1 -10,3 -15,4l0 0 0 0c-16,4 -33,9 -50,12l0 0 0 0c-14,3 -29,7 -44,10l0 0 0 0c-22,5 -45,9 -68,12l0 0 0 0c-3,0 -5,1 -8,1l0 0 0 0c-23,4 -47,7 -72,10l-1 0 0 0c-4,0 -8,1 -12,1l0 0 0 0c-9,1 -19,2 -28,3l-1 0 0 0c-9,1 -17,2 -26,2 -10,0 -19,0 -29,1l-3 0 0 0 -62 0c-17,0 -34,-1 -51,-1l0 0 -2 0c-8,0 -17,-1 -25,-1l0 0 -8 0c-7,0 -13,-1 -20,-1l0 0 -7 0c-7,0 -13,-1 -20,-1l0 0 -4 0c-7,0 -14,-1 -21,-1l0 0 0 0c-6,0 -13,-1 -19,-1l0 0 -1 0 -17 -1 0 0 -2 0 -16 -1 0 0 -2 0 -17 -1 0 0 -1 0 -17 -1 0 0 0 0c-40,-3 -79,-6 -119,-10 -54,-4 -133,2 -196,16 -121,26 -241,81 -347,145 19,-20 42,-45 63,-65z"/>
  <path class="fil17" d="M12008 2910c324,-104 634,-247 883,-508 -13,19 -360,529 -1048,656 0,0 -253,38 -483,-52 -18,-7 -36,-15 -53,-24 -5,-2 -9,-5 -14,-7 -74,-38 -310,-144 -530,-93 0,0 8,-7 23,-18 182,-55 342,-65 501,-21 200,55 405,167 720,67z"/>
 </g>
</svg>
