<?xml version="1.0" encoding="UTF-8" standalone="no"?>
<svg
   xmlns:dc="http://purl.org/dc/elements/1.1/"
   xmlns:cc="http://creativecommons.org/ns#"
   xmlns:rdf="http://www.w3.org/1999/02/22-rdf-syntax-ns#"
   xmlns:svg="http://www.w3.org/2000/svg"
   xmlns="http://www.w3.org/2000/svg"
   viewBox="0 0 1122.0667 743.14667"
   height="743.14667"
   width="1122.0667"
   xml:space="preserve"
   id="svg2"
   version="1.1"><metadata
     id="metadata8"><rdf:RDF><cc:Work
         rdf:about=""><dc:format>image/svg+xml</dc:format><dc:type
           rdf:resource="http://purl.org/dc/dcmitype/StillImage" /></cc:Work></rdf:RDF></metadata><defs
     id="defs6"><clipPath
       id="clipPath80"
       clipPathUnits="userSpaceOnUse"><path
         id="path78"
         d="m 6325.34,4577.14 c 57.72,-38.43 96.89,-81.42 124.41,-133.72 29.38,-55.81 44.81,-113.61 47.41,-178.59 2.97,-74.47 -3.51,-156.38 -24.63,-233.26 2.95,3.98 17.44,19.58 28.91,37.79 50.44,79.98 156.15,281.53 78.52,465.66 0,0 -73.56,163.15 -386.65,304.5 0,0 -347.07,148.86 -511.35,285.93 0,0 -280.05,239.58 -300.11,448.15 l -0.03,-0.37 c -124.18,-574.22 563.56,-731.82 943.52,-996.09 z" /></clipPath><linearGradient
       id="linearGradient88"
       spreadMethod="pad"
       gradientTransform="matrix(-1491.55,861.148,861.148,1491.55,6675.89,4370.33)"
       gradientUnits="userSpaceOnUse"
       y2="0"
       x2="1"
       y1="0"
       x1="0"><stop
         id="stop82"
         offset="0"
         style="stop-opacity:1;stop-color:#fab21e" /><stop
         id="stop84"
         offset="0.815673"
         style="stop-opacity:1;stop-color:#fbc31b" /><stop
         id="stop86"
         offset="1"
         style="stop-opacity:1;stop-color:#fbc31b" /></linearGradient><clipPath
       id="clipPath98"
       clipPathUnits="userSpaceOnUse"><path
         id="path96"
         d="m 7485.77,4579.16 c -3.46,2.32 -6.55,3.77 -9.01,4.76 -8.75,3.51 -18.5,5.63 -33.61,5.63 -10.98,0 -23.85,-1.18 -39.07,-3.71 0,0 -14.24,-2.36 -39.81,-2.36 -31.8,0 -81.22,3.54 -143.05,19.83 0,0 -44.06,9.43 -105.1,9.43 -91.23,0 -220.16,-21.33 -296.92,-127.71 0,0 -93.47,-117.53 -174.97,-314.27 0,0 -149.28,-312.57 -350.38,-439.63 0,0 -211.39,-163.04 -498.74,-203.91 0,0 -75.93,-14.07 -178.47,-14.07 -79.51,0 -175.14,8.59 -263.18,38.74 0,0 -141.32,33.94 -268.32,101.71 -42.5,22.67 -91.34,48.91 -124.8,79.15 0,0 -6.25,-29.38 -6.45,-71.87 v -3.95 c 0.2,-49.03 8.76,-114.49 43.57,-172.86 0,0 5.04,-11.19 12.98,-24.89 65.77,-57.36 147.97,-77.44 229.8,-77.44 191.14,0 413.83,106.72 599.06,117.78 265.88,0 561.18,34.46 768.3,181.92 154.86,110.35 258.46,297 343.74,496.08 85.99,215.29 293.33,349.34 534.43,401.64 z" /></clipPath><linearGradient
       id="linearGradient110"
       spreadMethod="pad"
       gradientTransform="matrix(2004.07,1681.61,1681.61,-2004.07,5208.58,3223.05)"
       gradientUnits="userSpaceOnUse"
       y2="0"
       x2="1"
       y1="0"
       x1="0"><stop
         id="stop100"
         offset="0"
         style="stop-opacity:1;stop-color:#f4b51f" /><stop
         id="stop102"
         offset="0.00400246"
         style="stop-opacity:1;stop-color:#f4b51f" /><stop
         id="stop104"
         offset="0.327528"
         style="stop-opacity:1;stop-color:#f2a61f" /><stop
         id="stop106"
         offset="0.521609"
         style="stop-opacity:1;stop-color:#fbc31b" /><stop
         id="stop108"
         offset="1"
         style="stop-opacity:1;stop-color:#fbc31b" /></linearGradient><clipPath
       id="clipPath122"
       clipPathUnits="userSpaceOnUse"><path
         id="path120"
         d="m 7580.49,3794.54 c -52.14,0 -104.54,4.09 -155.56,14.56 -34.35,7.05 -67.98,17.16 -102.43,23.73 -29.75,5.6 -59.87,9.51 -90.14,11.52 -13.94,0.96 -28.01,1.37 -42.05,1.37 -58.38,0 -91.92,-8.36 -91.92,-8.36 -100.25,-26.14 -176.58,-69.41 -219.46,-97.79 -9.94,-6.58 -25.51,-17.38 -31.74,-21.96 13.53,4.1 34.66,11.81 48.41,13.57 33.43,4.26 67.16,3.01 99.53,3.01 83.71,0 162.64,-38.66 245.33,-57.21 82.42,-18.74 167.02,-26.32 250.61,-26.32 46.92,0 98.99,8.09 146.47,22.94 209.35,80.62 401.82,163.11 565.74,334.56 l 11.29,13.6 c -121.78,-93.27 -368.53,-176.04 -368.53,-176.04 -90.23,-40.07 -186.2,-51.18 -265.55,-51.18 z" /></clipPath><linearGradient
       id="linearGradient130"
       spreadMethod="pad"
       gradientTransform="matrix(952.176,798.971,798.971,-952.176,7057.78,3466.64)"
       gradientUnits="userSpaceOnUse"
       y2="0"
       x2="1"
       y1="0"
       x1="0"><stop
         id="stop124"
         offset="0"
         style="stop-opacity:1;stop-color:#f9ab1f" /><stop
         id="stop126"
         offset="0.519377"
         style="stop-opacity:1;stop-color:#fbc31b" /><stop
         id="stop128"
         offset="1"
         style="stop-opacity:1;stop-color:#fbc31b" /></linearGradient><clipPath
       id="clipPath140"
       clipPathUnits="userSpaceOnUse"><path
         id="path138"
         d="m 8170.64,4386.39 c -93.82,-70.2 -207.43,-108.44 -321.78,-128.69 -159.03,-28.35 -330.43,21.74 -485.54,-31.04 -231.88,-76.99 -383.34,-327.88 -383.34,-327.88 5.03,3.21 10.12,6.3 15.15,9.46 192.98,231.35 567.16,99.75 835.9,178.72 240.5,60.19 467.5,229.11 557.61,469.97 -74.06,-76.87 -218,-170.54 -218,-170.54 z" /></clipPath><linearGradient
       id="linearGradient148"
       spreadMethod="pad"
       gradientTransform="matrix(1150.71,965.561,965.561,-1150.71,7123.56,3727.67)"
       gradientUnits="userSpaceOnUse"
       y2="0"
       x2="1"
       y1="0"
       x1="0"><stop
         id="stop142"
         offset="0"
         style="stop-opacity:1;stop-color:#f89f20" /><stop
         id="stop144"
         offset="0.682246"
         style="stop-opacity:1;stop-color:#fbc31b" /><stop
         id="stop146"
         offset="1"
         style="stop-opacity:1;stop-color:#fbc31b" /></linearGradient><clipPath
       id="clipPath158"
       clipPathUnits="userSpaceOnUse"><path
         id="path156"
         d="m 5909.88,3439.36 c -135.95,0 -319.66,-138.1 -319.66,-138.1 -117.96,-77.05 -218.85,-106.98 -218.85,-106.98 -31.72,-8.27 -61.07,-11.63 -88.06,-11.63 -85,0 -143.54,33.46 -166.37,49.1 68.18,-85.17 157.6,-160.18 248.34,-160.18 41.39,0 83.03,11.25 123.52,36.47 156.91,78.43 284.16,273.66 464.54,321.23 -13.33,8.05 -26.18,9.35 -32.18,9.73 -3.72,0.24 -7.47,0.36 -11.28,0.36 z" /></clipPath><linearGradient
       id="linearGradient166"
       spreadMethod="pad"
       gradientTransform="matrix(836.391,0,0,-836.391,5116.95,3255.46)"
       gradientUnits="userSpaceOnUse"
       y2="0"
       x2="1"
       y1="0"
       x1="0"><stop
         id="stop160"
         offset="0"
         style="stop-opacity:1;stop-color:#f68d22" /><stop
         id="stop162"
         offset="0.134602"
         style="stop-opacity:1;stop-color:#fbc31b" /><stop
         id="stop164"
         offset="1"
         style="stop-opacity:1;stop-color:#fbc31b" /></linearGradient><clipPath
       id="clipPath176"
       clipPathUnits="userSpaceOnUse"><path
         id="path174"
         d="m 6041.64,4043.56 c 0,0 -207.02,16.02 -317.51,62.64 0,0 -218.66,75.79 -270.64,116.5 0,0 15.97,-20.7 24.01,-28.57 70.86,-69.33 152.92,-150 244.59,-184.44 68.86,-43.83 163.67,-77.95 256,-82.48 88.78,-4.36 175.29,11.78 234.06,-30.55 24.14,-17.39 34.35,-26.18 47.4,-49.54 4.55,-8.16 9.75,-23.13 12.66,-36.72 2.87,2.4 4.66,6.16 7.15,11.44 2.96,6.27 4.47,14.54 5.13,19.92 5.7,46.71 -0.62,130.76 -102.69,172.1 0,0 -37.11,16.37 -140.16,29.7 z" /></clipPath><linearGradient
       id="linearGradient186"
       spreadMethod="pad"
       gradientTransform="matrix(832.47,0,0,-832.47,5453.49,4016.55)"
       gradientUnits="userSpaceOnUse"
       y2="0"
       x2="1"
       y1="0"
       x1="0"><stop
         id="stop178"
         offset="0"
         style="stop-opacity:1;stop-color:#fbc31b" /><stop
         id="stop180"
         offset="0.246699"
         style="stop-opacity:1;stop-color:#fbc31b" /><stop
         id="stop182"
         offset="0.749648"
         style="stop-opacity:1;stop-color:#f9a820" /><stop
         id="stop184"
         offset="1"
         style="stop-opacity:1;stop-color:#f9a820" /></linearGradient><clipPath
       id="clipPath196"
       clipPathUnits="userSpaceOnUse"><path
         id="path194"
         d="m 5352.14,4600.93 c 232.36,-215.96 571.86,-258.35 870.82,-407.69 107.63,-46.19 138.79,-169.8 128.3,-294.43 13.66,31.17 67.97,160.43 22.01,291.86 0,0 -23.27,108.88 -294.72,212.04 0,0 -379.39,131.34 -504.43,213.16 0,0 -259.49,134.13 -341.16,345.86 0,0 -9.46,-32.68 -7.24,-81.09 18.03,-106.82 50.16,-216.22 126.42,-279.71 z" /></clipPath><linearGradient
       id="linearGradient204"
       spreadMethod="pad"
       gradientTransform="matrix(-999.026,-176.155,-176.155,999.026,6318.81,4523.14)"
       gradientUnits="userSpaceOnUse"
       y2="0"
       x2="1"
       y1="0"
       x1="0"><stop
         id="stop198"
         offset="0"
         style="stop-opacity:1;stop-color:#f9ab1f" /><stop
         id="stop200"
         offset="0.77238"
         style="stop-opacity:1;stop-color:#fbc31b" /><stop
         id="stop202"
         offset="1"
         style="stop-opacity:1;stop-color:#fbc31b" /></linearGradient><clipPath
       id="clipPath214"
       clipPathUnits="userSpaceOnUse"><path
         id="path212"
         d="m 7480.97,4581.48 c -241.48,-52.39 -464.32,-181.01 -550.51,-396.63 -84.29,-196.46 -175.22,-367.49 -327.3,-477.65 -178.02,-128.86 -449.6,-182.17 -665.37,-198.73 -71.81,-5.5 -143.74,-5.61 -215.02,-17 -65.79,-10.52 -130.53,-26.79 -195.32,-42.07 -64.84,-15.3 -129.97,-30.4 -196.12,-38.92 -35.32,-4.54 -70.93,-7.28 -106.56,-6.56 -78.26,1.6 -179.42,54.49 -242.6,109.57 7.13,-12.25 15.41,-39.3 33.62,-62.92 40.8,-52.89 111.34,-112.33 187.97,-118.19 0,0 108.83,-19.71 278.47,52.34 0,0 284.51,103.12 457.71,106.94 0,0 379.84,-3.51 541.26,54 121.96,43.55 222.33,97.97 326.25,228.55 103.99,130.62 130.98,239.97 164.44,309.93 0,0 100.9,210.04 224.07,309.56 0,0 156.95,134.71 299.54,177.97 0,0 -3.63,5.22 -14.53,9.81" /></clipPath><linearGradient
       id="linearGradient234"
       spreadMethod="pad"
       gradientTransform="matrix(2513.33,0,0,-2513.33,4982.16,3955.69)"
       gradientUnits="userSpaceOnUse"
       y2="0"
       x2="1"
       y1="0"
       x1="0"><stop
         id="stop216"
         offset="0"
         style="stop-opacity:1;stop-color:#d87528" /><stop
         id="stop218"
         offset="0.0963449"
         style="stop-opacity:1;stop-color:#d87528" /><stop
         id="stop220"
         offset="0.272649"
         style="stop-opacity:1;stop-color:#e69e22" /><stop
         id="stop222"
         offset="0.43046226"
         style="stop-opacity:1;stop-color:#d87d26" /><stop
         id="stop224"
         offset="0.518743"
         style="stop-opacity:1;stop-color:#d87d26" /><stop
         id="stop226"
         offset="0.52973014"
         style="stop-opacity:1;stop-color:#d87d26" /><stop
         id="stop228"
         offset="0.613897"
         style="stop-opacity:1;stop-color:#d87d26" /><stop
         id="stop230"
         offset="0.91248412"
         style="stop-opacity:1;stop-color:#fbc41b" /><stop
         id="stop232"
         offset="1"
         style="stop-opacity:1;stop-color:#fbc41b" /></linearGradient><clipPath
       id="clipPath244"
       clipPathUnits="userSpaceOnUse"><path
         id="path242"
         d="m 6331.69,4584.1 c -380.73,264.67 -1058.92,429.89 -949.84,989.5 -1.71,-8.77 -96.98,-176.25 2.71,-407.57 0,0 72.52,-204.38 325.28,-359.58 0,0 210.01,-119.93 363.82,-179.56 0,0 330.24,-117.14 388.09,-332.99 2.7,-10.07 4.81,-20.37 6.27,-30.87 1.53,-11.11 2.45,-17.84 3.53,-34.17 0,0 1.4,-24.53 3.5,-57.33 2.93,-45.77 4.9,-107.37 -2.52,-139.96 l 1.24,1.68 c 2.38,4.42 3.48,8.55 4.92,12.84 1.86,5.56 2.84,11.08 4.18,16.58 6.92,28.52 10.96,56.88 14.9,85.35 23.46,169.21 -11.04,332.73 -166.08,436.08" /></clipPath><linearGradient
       id="linearGradient256"
       spreadMethod="pad"
       gradientTransform="matrix(-623.181,1712.18,1712.18,623.181,6235.82,3945.42)"
       gradientUnits="userSpaceOnUse"
       y2="0"
       x2="1"
       y1="0"
       x1="0"><stop
         id="stop246"
         offset="0"
         style="stop-opacity:1;stop-color:#c27528" /><stop
         id="stop248"
         offset="0.7071191"
         style="stop-opacity:1;stop-color:#fbc41b" /><stop
         id="stop250"
         offset="0.861165"
         style="stop-opacity:1;stop-color:#fbc41b" /><stop
         id="stop252"
         offset="0.98036532"
         style="stop-opacity:1;stop-color:#fbc41b" /><stop
         id="stop254"
         offset="1"
         style="stop-opacity:1;stop-color:#fbc41b" /></linearGradient><clipPath
       id="clipPath266"
       clipPathUnits="userSpaceOnUse"><path
         id="path264"
         d="m 6189.73,4226.79 c -36.79,16.09 -75.58,28.77 -112.56,43.63 -52.76,21.2 -106.12,40.83 -159.48,60.44 -30.52,11.21 -61.05,22.41 -91.48,33.88 -106.12,40.01 -211.28,82.7 -309,140.81 -54.46,32.38 -101.73,71.38 -150.23,111.75 -76.37,63.59 -123.34,156.36 -141.26,263.34 4.74,-97.1 31.09,-260.2 146.67,-363.47 0,0 105.79,-99.26 218.99,-146 0,0 181.69,-77.7 343.47,-122.57 0,0 299.07,-80.26 375.98,-199.73 0,0 51.08,-80.43 36.98,-157.37 0,0 1.37,2.58 3.45,7.31 2.9,6.58 3.16,14.63 3.54,21.7 0.73,13.37 0.83,26.89 0.92,40.28 0.06,9.23 -0.55,18.44 -0.76,27.65 -0.22,9.76 -0.73,19.54 -1.65,29.27 -1.85,19.63 -5.31,39.08 -11.19,57.93 -19.05,61.06 -63.24,105.43 -118.86,135.05 -10.91,5.8 -22.12,11.12 -33.53,16.1 z" /></clipPath><linearGradient
       id="linearGradient274"
       spreadMethod="pad"
       gradientTransform="matrix(-449.164,1234.07,1234.07,449.164,6023.6,3773.49)"
       gradientUnits="userSpaceOnUse"
       y2="0"
       x2="1"
       y1="0"
       x1="0"><stop
         id="stop268"
         offset="0"
         style="stop-opacity:1;stop-color:#cd7629" /><stop
         id="stop270"
         offset="0.27130167"
         style="stop-opacity:1;stop-color:#cd7629" /><stop
         id="stop272"
         offset="1"
         style="stop-opacity:1;stop-color:#fbc41b" /></linearGradient><clipPath
       id="clipPath284"
       clipPathUnits="userSpaceOnUse"><path
         id="path282"
         d="m 5716.26,4035.14 c -24.24,14.69 -184.88,116.06 -262.77,187.56 24.01,-37.85 159.88,-239.28 365.66,-311.98 0,0 115.95,-48.12 264.28,-42.06 0,0 10.29,1.51 26.2,2.27 44.44,2.11 132.66,-1.65 162.58,-60.53 0,0 1.16,-1 2.87,5.09 -8.82,41.16 -25.68,75.97 -47.64,92.4 -42.66,31.91 -106.12,19.61 -178.3,26.03 -112.89,10.03 -245.49,45.59 -332.88,101.22" /></clipPath><linearGradient
       id="linearGradient296"
       spreadMethod="pad"
       gradientTransform="matrix(-228.337,627.35,627.35,228.337,5980.33,3704)"
       gradientUnits="userSpaceOnUse"
       y2="0"
       x2="1"
       y1="0"
       x1="0"><stop
         id="stop286"
         offset="0"
         style="stop-opacity:1;stop-color:#d87528" /><stop
         id="stop288"
         offset="0.0680034"
         style="stop-opacity:1;stop-color:#d87528" /><stop
         id="stop290"
         offset="0.834263"
         style="stop-opacity:1;stop-color:#fbc41b" /><stop
         id="stop292"
         offset="0.95640506"
         style="stop-opacity:1;stop-color:#fbc41b" /><stop
         id="stop294"
         offset="1"
         style="stop-opacity:1;stop-color:#fbc41b" /></linearGradient><clipPath
       id="clipPath306"
       clipPathUnits="userSpaceOnUse"><path
         id="path304"
         d="m 5499.98,3120.44 c -128.59,-80.42 -272.58,-20.61 -372.27,103.56 -7.09,4.64 -10.76,7.96 -10.76,7.96 32.27,-51 69.24,-88.72 69.24,-88.72 132.81,-147.52 285.05,-107.17 285.05,-107.17 105.62,29.78 285.05,240.91 285.05,240.91 123.69,147.02 197.05,152.29 197.05,152.29 l -2.5,0.31 c -180.66,-47.64 -293.54,-230.59 -450.86,-309.14" /></clipPath><linearGradient
       id="linearGradient314"
       spreadMethod="pad"
       gradientTransform="matrix(836.39,0,0,-836.39,5116.95,3230.3)"
       gradientUnits="userSpaceOnUse"
       y2="0"
       x2="1"
       y1="0"
       x1="0"><stop
         id="stop308"
         offset="0"
         style="stop-opacity:1;stop-color:#d87528" /><stop
         id="stop310"
         offset="0.314482"
         style="stop-opacity:1;stop-color:#d87528" /><stop
         id="stop312"
         offset="1"
         style="stop-opacity:1;stop-color:#fbc41b" /></linearGradient><clipPath
       id="clipPath324"
       clipPathUnits="userSpaceOnUse"><path
         id="path322"
         d="m 6098.67,3419.91 c -41.24,-37.84 -58.68,-90.66 -75.93,-142.28 -30.44,-90.98 -57.13,-200.77 -115.83,-278.39 -39.1,-51.69 -93.97,-81.18 -157.2,-92.31 -34.96,-6.13 -75.21,-11.54 -110.66,-8.84 -37.18,2.73 -73.82,10.57 -110.17,18.68 35.47,-14.65 68.76,-27.18 107.31,-33.53 50.48,-8.18 117.09,-20.91 168.12,-9.2 100.15,22.69 163.2,88.55 198.01,183.88 9.95,27.08 13.5,55.4 19.28,83.5 12.18,58.56 31.1,116.34 54.08,171.46 17.88,42.84 41.9,98.59 85.18,121.56 0,0 -5.79,0.91 -15.93,1.02 -19.22,-1.37 -35.83,-5.3 -46.26,-15.55" /></clipPath><linearGradient
       id="linearGradient338"
       spreadMethod="pad"
       gradientTransform="matrix(631.978,0,0,-631.978,5528.88,3152.39)"
       gradientUnits="userSpaceOnUse"
       y2="0"
       x2="1"
       y1="0"
       x1="0"><stop
         id="stop326"
         offset="0"
         style="stop-opacity:1;stop-color:#cd7629" /><stop
         id="stop328"
         offset="0.311134"
         style="stop-opacity:1;stop-color:#cd7629" /><stop
         id="stop330"
         offset="0.61370185"
         style="stop-opacity:1;stop-color:#cd7629" /><stop
         id="stop332"
         offset="0.90804"
         style="stop-opacity:1;stop-color:#fbc41b" /><stop
         id="stop334"
         offset="0.97581113"
         style="stop-opacity:1;stop-color:#fbc41b" /><stop
         id="stop336"
         offset="1"
         style="stop-opacity:1;stop-color:#fbc41b" /></linearGradient><clipPath
       id="clipPath348"
       clipPathUnits="userSpaceOnUse"><path
         id="path346"
         d="m 8415.53,4589.93 c -1.42,-2.23 -3.11,-4.41 -4.8,-6.77 l -0.68,-0.89 c -6.42,-8.57 -14.33,-17.36 -23.09,-26.66 -56.37,-114.96 -111.28,-196.31 -200.76,-280.19 -82.9,-77.7 -187.53,-133.49 -296.9,-166.61 -34.8,-10.6 -70.3,-18.6 -106.06,-25.46 -90.3,-17.12 -178.61,-20.16 -269.9,-11.23 -95.18,9.3 -196.36,13.91 -290.25,-8.11 -72.61,-17.05 -130.16,-63.02 -185.97,-110.45 -16.57,-14.07 -36.03,-34.68 -50.84,-50.64 68.23,41.32 146.31,76.61 224.38,93.66 41.33,9.03 92.2,12.89 127.09,10.17 93.56,-7.23 186.17,-16.69 280.13,-15.2 6.37,0.16 12.67,0.29 18.94,0.37 292.94,21.24 476.82,153.39 476.82,153.39 306.44,193.52 301.89,444.62 301.89,444.62" /></clipPath><linearGradient
       id="linearGradient356"
       spreadMethod="pad"
       gradientTransform="matrix(1429.25,0,0,-1429.25,6986.27,4246.42)"
       gradientUnits="userSpaceOnUse"
       y2="0"
       x2="1"
       y1="0"
       x1="0"><stop
         id="stop350"
         offset="0"
         style="stop-opacity:1;stop-color:#d87d26" /><stop
         id="stop352"
         offset="0.2061791"
         style="stop-opacity:1;stop-color:#d87d26" /><stop
         id="stop354"
         offset="1"
         style="stop-opacity:1;stop-color:#fbc41b" /></linearGradient><clipPath
       id="clipPath366"
       clipPathUnits="userSpaceOnUse"><path
         id="path364"
         d="m 7640.81,3690.47 c 209.94,67.06 410.33,160.12 571.55,328.45 -8.48,-12.3 -233.16,-342.67 -678.06,-424.52 0,0 -163.64,-24.9 -312.33,33.62 -11.67,4.59 -23.04,9.93 -34.2,15.64 -3.08,1.57 -6.13,3.19 -9.21,4.76 -48.17,24.58 -200.52,93.26 -342.74,60.23 0,0 5.25,4.44 14.73,11.48 117.58,35.73 221.04,41.9 324.3,13.41 129.43,-35.65 262.34,-108.14 465.96,-43.07 z" /></clipPath><linearGradient
       id="linearGradient374"
       spreadMethod="pad"
       gradientTransform="matrix(1376.54,0,0,-1376.54,6835.82,3804.03)"
       gradientUnits="userSpaceOnUse"
       y2="0"
       x2="1"
       y1="0"
       x1="0"><stop
         id="stop368"
         offset="0"
         style="stop-opacity:1;stop-color:#d87d26" /><stop
         id="stop370"
         offset="0.42770809"
         style="stop-opacity:1;stop-color:#d87d26" /><stop
         id="stop372"
         offset="1"
         style="stop-opacity:1;stop-color:#fbc41b" /></linearGradient></defs><g
     transform="matrix(1.3333333,0,0,-1.3333333,0,743.14667)"
     id="g10"><g
       transform="scale(0.1)"
       id="g12"><path
         id="path14"
         style="fill:#201d1c;fill-opacity:1;fill-rule:nonzero;stroke:none"
         d="m 215.125,3397.04 c 175.742,0 403.992,3.26 528.805,9.84 L 683.176,3247.61 H 0 c 8.20703,218.41 9.87109,346.48 9.87109,568.21 0,239.77 -1.66406,374.43 -9.87109,609.27 h 220.078 c -8.211,-234.84 -9.871,-369.5 -9.871,-609.27 0,-157.66 1.66,-274.26 4.918,-418.78" /><path
         id="path16"
         style="fill:#201d1c;fill-opacity:1;fill-rule:nonzero;stroke:none"
         d="M 1021.48,3247.61 H 811.258 c 8.226,154.37 9.859,247.99 9.859,403.99 0,167.48 -1.633,246.33 -9.859,410.57 h 210.222 c -8.21,-164.24 -9.86,-243.09 -9.86,-410.57 0,-156 1.65,-249.62 9.86,-403.99 z m -105.121,973.84 c -82.109,0 -128.078,52.56 -128.078,114.97 0,59.12 45.969,111.67 128.078,111.67 80.5,0 126.471,-52.55 126.471,-111.67 0,-62.41 -45.971,-114.97 -126.471,-114.97" /><path
         id="path18"
         style="fill:#201d1c;fill-opacity:1;fill-rule:nonzero;stroke:none"
         d="m 1530.58,3927.49 c -85.4,0 -146.17,-41.06 -190.5,-113.31 -3.29,-50.92 -4.94,-118.25 -4.94,-182.31 0,-98.56 1.65,-208.58 4.94,-249.62 39.42,-18.08 83.77,-26.25 144.52,-26.25 146.14,0 246.33,106.7 246.33,295.6 0,190.47 -77.19,275.89 -200.35,275.89 z m -397.44,573.16 h 210.21 c -3.27,-80.48 -6.56,-198.73 -6.56,-284.12 0,-101.85 0,-190.5 1.63,-287.4 64.06,105.11 165.89,152.72 274.28,152.72 174.08,0 320.22,-131.38 320.22,-385.92 0,-266.06 -175.72,-466.41 -471.32,-466.41 -144.5,0 -249.64,26.29 -326.83,68.96 6.58,210.21 8.23,318.6 8.23,555.12 0,252.87 -1.65,451.61 -9.86,647.05" /><path
         id="path20"
         style="fill:#201d1c;fill-opacity:1;fill-rule:nonzero;stroke:none"
         d="m 2212.11,3748.47 h 390.87 c -13.13,146.17 -75.53,210.2 -192.13,210.2 -116.62,0 -188.85,-82.08 -198.74,-210.2 z m 279.19,-371.16 c 96.89,0 190.52,31.23 254.56,80.5 l 45.99,-126.44 c -90.35,-69.01 -195.46,-101.85 -341.6,-101.85 -244.71,0 -431.9,156.02 -431.9,436.87 0,251.24 165.84,415.46 407.25,415.46 213.5,0 366.25,-134.65 366.25,-384.26 0,-24.66 0,-44.36 -1.67,-68.99 h -576.43 c 13.15,-172.44 118.28,-251.29 277.55,-251.29" /><path
         id="path22"
         style="fill:#201d1c;fill-opacity:1;fill-rule:nonzero;stroke:none"
         d="m 3358.44,4081.85 c 42.71,0 68.98,-3.26 95.26,-16.42 l -60.78,-205.28 c -29.54,9.86 -54.17,14.81 -88.68,14.81 -64.05,0 -121.52,-29.6 -169.14,-105.13 -4.91,-57.48 -8.24,-131.38 -8.24,-229.92 0,-85.39 1.66,-188.87 8.24,-292.3 h -210.23 c 8.22,152.69 9.89,247.99 9.89,403.99 0,167.48 -1.67,251.24 -9.89,410.57 h 180.66 l 22.99,-169.16 c 54.2,128.1 147.81,188.84 229.92,188.84" /><path
         id="path24"
         style="fill:#201d1c;fill-opacity:1;fill-rule:nonzero;stroke:none"
         d="m 3828.12,3382.25 c 72.27,0 136.31,32.84 188.87,116.6 3.29,50.94 4.92,124.81 4.92,190.5 0,93.61 -1.63,197.08 -4.92,238.14 -42.7,19.71 -83.77,27.92 -142.85,27.92 -133.04,0 -249.67,-100.19 -249.67,-282.48 0,-202.02 87.05,-290.68 203.65,-290.68 z m 395.78,-134.64 h -190.49 l -14.78,133.01 c -64.04,-103.44 -169.14,-151.1 -279.17,-151.1 -165.88,0 -316.96,142.89 -316.96,404.01 0,267.69 206.91,448.32 459.82,448.32 87.06,0 144.51,-9.84 205.28,-29.57 l 141.24,42.73 c -13.14,-164.25 -14.8,-252.94 -14.8,-422.08 0,-174.08 0,-247.98 9.86,-425.32" /><path
         id="path26"
         style="fill:#201d1c;fill-opacity:1;fill-rule:nonzero;stroke:none"
         d="m 4585.18,3247.61 h -210.2 c 8.21,233.17 9.83,369.47 9.83,605.99 0,252.87 -1.62,397.41 -9.83,647.05 h 210.2 c -8.2,-249.64 -9.84,-394.18 -9.84,-647.05 0,-236.52 1.64,-372.82 9.84,-605.99" /><path
         id="path28"
         style="fill:#201d1c;fill-opacity:1;fill-rule:nonzero;stroke:none"
         d="m 210.207,2401.67 c 0,-157.63 1.66,-320.25 4.918,-451.65 22.992,-1.63 101.848,-1.63 154.375,-1.63 321.926,0 499.238,157.67 499.238,451.64 0,292.33 -190.476,430.29 -507.445,430.29 -52.555,0 -101.801,0 -146.168,-1.64 -3.258,-103.49 -4.918,-262.76 -4.918,-427.01 z M 0,1800.6 c 8.20703,218.44 9.87109,346.54 9.87109,568.21 0,239.78 -1.66406,374.44 -9.87109,609.31 h 395.785 c 422.074,0 688.105,-180.64 688.105,-546.86 0,-390.89 -254.566,-630.66 -699.605,-630.66 H 0" /><path
         id="path30"
         style="fill:#201d1c;fill-opacity:1;fill-rule:nonzero;stroke:none"
         d="m 1382.79,2301.49 h 390.87 c -13.13,146.19 -75.57,210.23 -192.17,210.23 -116.6,0 -188.85,-82.11 -198.7,-210.23 z m 279.18,-371.17 c 96.9,0 190.52,31.24 254.54,80.51 l 46.01,-126.47 c -90.31,-68.98 -195.45,-101.82 -341.59,-101.82 -244.7,0 -431.91,156.02 -431.91,436.84 0,251.3 165.85,415.52 407.26,415.52 213.5,0 366.24,-134.7 366.24,-384.32 0,-24.63 0,-44.31 -1.66,-68.99 h -576.42 c 13.16,-172.43 118.24,-251.27 277.53,-251.27" /><path
         id="path32"
         style="fill:#201d1c;fill-opacity:1;fill-rule:nonzero;stroke:none"
         d="m 3332.18,2339.24 c 0,-106.71 -6.58,-170.77 -6.58,-259.45 0,-108.37 0,-169.17 8.21,-279.19 h -205.29 c 8.24,103.47 8.24,162.61 8.24,269.33 0,95.25 -1.66,198.72 -4.95,251.25 -6.58,105.14 -57.46,159.33 -144.51,159.33 -68.99,0 -134.68,-36.14 -185.58,-113.33 -6.56,-67.33 -8.21,-169.14 -8.21,-261.12 0,-118.21 1.65,-187.23 8.21,-305.46 h -206.93 c 8.21,103.47 8.21,162.61 8.21,269.33 0,95.25 0,197.06 -3.28,251.25 -6.56,106.77 -59.12,159.33 -146.14,159.33 -68.99,0 -134.7,-36.14 -183.96,-113.33 -6.57,-67.33 -8.21,-169.14 -8.21,-261.12 0,-118.21 1.64,-187.23 8.21,-305.46 h -206.95 c 8.24,154.37 9.9,247.98 9.9,403.99 0,167.53 -1.66,244.73 -9.9,410.6 h 183.96 l 19.71,-133.04 c 67.34,101.82 147.8,152.75 275.9,152.75 111.67,0 200.36,-64.06 233.19,-169.16 82.14,114.96 175.71,169.16 295.64,169.16 154.35,0 261.11,-108.41 261.11,-295.66" /><path
         id="path34"
         style="fill:#201d1c;fill-opacity:1;fill-rule:nonzero;stroke:none"
         d="m 3859.32,2505.14 c -142.88,0 -224.99,-121.54 -224.99,-297.24 0,-174.07 82.11,-297.28 224.99,-297.28 144.53,0 226.63,121.54 226.63,297.28 0,175.7 -83.73,297.24 -226.63,297.24 z m 0,129.76 c 264.38,0 433.54,-172.46 433.54,-417.15 0,-241.42 -177.37,-435.21 -433.54,-435.21 -266.05,0 -430.27,169.12 -430.27,415.5 0,244.7 174.05,436.86 430.27,436.86" /><path
         id="path36"
         style="fill:#201d1c;fill-opacity:1;fill-rule:nonzero;stroke:none"
         d="m 4581.92,2232.53 c 0,-208.57 110.02,-302.21 259.47,-302.21 69,0 136.29,16.45 193.79,57.53 l 45.98,-121.56 c -83.75,-57.48 -177.35,-83.75 -298.91,-83.75 -224.98,0 -403.99,146.15 -403.99,430.28 0,236.5 185.58,422.08 438.49,422.08 105.1,0 180.66,-14.79 254.56,-44.35 l -47.61,-133.03 c -52.58,24.63 -119.89,41.05 -188.88,41.05 -159.32,0 -252.9,-103.45 -252.9,-266.04" /><path
         id="path38"
         style="fill:#201d1c;fill-opacity:1;fill-rule:nonzero;stroke:none"
         d="m 5647.71,2634.9 c 42.73,0 69.01,-3.3 95.27,-16.42 l -60.76,-205.28 c -29.57,9.83 -54.19,14.75 -88.68,14.75 -64.06,0 -121.55,-29.57 -169.16,-105.11 -4.93,-57.48 -8.21,-131.4 -8.21,-229.91 0,-85.39 1.65,-188.86 8.21,-292.33 h -210.21 c 8.21,152.71 9.86,247.98 9.86,403.99 0,167.53 -1.65,251.3 -9.86,410.6 h 180.65 l 23,-169.16 c 54.17,128.09 147.77,188.87 229.89,188.87" /><path
         id="path40"
         style="fill:#201d1c;fill-opacity:1;fill-rule:nonzero;stroke:none"
         d="m 6117.43,1935.25 c 72.24,0 136.3,32.88 188.84,116.65 3.29,50.87 4.95,124.8 4.95,190.47 0,93.6 -1.66,197.08 -4.95,238.14 -42.68,19.69 -83.77,27.89 -142.86,27.89 -133.02,0 -249.64,-100.13 -249.64,-282.45 0,-201.99 87.06,-290.7 203.66,-290.7 z m 395.78,-134.65 h -190.53 l -14.79,133.01 c -64.02,-103.44 -169.1,-151.07 -279.12,-151.07 -165.91,0 -316.97,142.86 -316.97,404 0,267.7 206.91,448.36 459.82,448.36 87.02,0 144.51,-9.85 205.28,-29.58 l 141.23,42.71 c -13.12,-164.25 -14.78,-252.91 -14.78,-422.08 0,-174.05 0,-247.98 9.86,-425.35" /><path
         id="path42"
         style="fill:#201d1c;fill-opacity:1;fill-rule:nonzero;stroke:none"
         d="m 6930.31,2480.51 c 0,-157.67 -6.55,-323.53 3.29,-435.19 6.57,-78.82 62.42,-115 119.88,-115 57.49,0 98.56,9.87 139.6,36.18 l 41.04,-114.97 c -60.72,-44.36 -149.43,-68.99 -247.96,-68.99 -142.88,0 -249.64,96.88 -249.64,275.91 0,123.14 6.57,285.73 6.57,422.06 h -134.64 v 134.68 h 136.28 c 0,78.8 0,132.99 -3.27,206.91 l 205.29,44.36 c -9.87,-87.05 -13.15,-174.1 -13.15,-251.27 h 256.21 v -134.68 h -259.5" /><path
         id="path44"
         style="fill:#201d1c;fill-opacity:1;fill-rule:nonzero;stroke:none"
         d="m 7879.55,2464.09 c -60.77,22.98 -128.1,36.11 -203.65,36.11 -123.18,0 -164.22,-34.46 -164.22,-82.08 0,-39.42 23,-65.73 113.33,-100.19 l 100.18,-39.41 c 157.65,-60.77 216.79,-131.38 216.79,-251.27 0,-146.17 -136.33,-244.71 -323.57,-244.71 -146.15,0 -236.48,23 -315.29,64.04 l 39.42,131.39 c 73.89,-39.41 165.85,-62.41 254.54,-62.41 113.31,0 159.3,39.41 159.3,93.6 0,49.29 -22.97,78.83 -137.97,121.53 l -100.15,37.78 c -126.47,46.01 -192.16,113.31 -192.16,231.56 0,131.37 123.17,234.87 338.32,234.87 103.45,0 177.38,-9.85 254.52,-37.79 l -39.39,-133.02" /><path
         id="path46"
         style="fill:#201d1c;fill-opacity:1;fill-rule:nonzero;stroke:none"
         d="M 388.965,656.941 C 388.965,719 376.688,765 352.141,794.949 327.59,824.898 290.313,839.891 240.285,839.891 H 187.023 V 460.559 h 40.758 c 55.582,0 96.336,16.121 122.278,48.402 25.933,32.25 38.906,81.578 38.906,147.98 z m 189.89,6.477 c 0,-113.02 -31.109,-200.09 -93.324,-261.219 -62.222,-61.14 -149.683,-91.711 -262.379,-91.711 H 4.07422 V 987.629 H 238.438 c 108.679,0 192.589,-27.789 251.726,-83.367 59.121,-55.582 88.691,-135.864 88.691,-240.844" /><path
         id="path48"
         style="fill:#201d1c;fill-opacity:1;fill-rule:nonzero;stroke:none"
         d="M 1086.01,310.488 H 700.203 V 987.629 H 1086.01 V 840.809 H 875.773 V 734.281 H 1070.46 V 587.461 H 875.773 V 459.629 H 1086.01 V 310.488" /><path
         id="path50"
         style="fill:#201d1c;fill-opacity:1;fill-rule:nonzero;stroke:none"
         d="m 1515.83,310.488 -138.49,487.711 h -4.17 c 6.49,-83.07 9.73,-147.597 9.73,-193.609 V 310.488 h -162.11 v 677.141 h 243.63 l 141.26,-480.758 h 3.71 l 138.48,480.758 h 244.09 V 310.488 h -168.13 v 296.891 c 0,15.441 0.23,32.57 0.69,51.41 0.47,18.832 2.55,64.992 6.25,138.481 h -4.16 L 1689.97,310.488 h -174.14" /><path
         id="path52"
         style="fill:#201d1c;fill-opacity:1;fill-rule:nonzero;stroke:none"
         d="m 2481.98,587.461 -29.18,111.16 c -6.8,24.699 -15.05,56.66 -24.78,95.867 -9.73,39.211 -16.14,67.313 -19.22,84.301 -2.78,-15.75 -8.26,-41.687 -16.44,-77.809 -8.19,-36.128 -26.33,-107.312 -54.43,-213.519 z m 71.32,-276.973 -33.34,126.91 h -220.01 l -34.27,-126.91 H 2064.67 L 2285.6,990.41 h 244.08 L 2753.39,310.488 H 2553.3" /><path
         id="path54"
         style="fill:#201d1c;fill-opacity:1;fill-rule:nonzero;stroke:none"
         d="m 3471.29,310.488 h -239.92 l -247.32,477.051 h -4.17 c 5.86,-75.027 8.8,-132.301 8.8,-171.82 V 310.488 h -162.11 v 677.141 h 238.99 l 246.4,-470.57 h 2.78 c -4.33,68.242 -6.48,123.043 -6.48,164.421 v 306.149 h 163.03 V 310.488" /><path
         id="path56"
         style="fill:#201d1c;fill-opacity:1;fill-rule:nonzero;stroke:none"
         d="m 4002.53,656.941 c 0,62.059 -12.28,108.059 -36.82,138.008 -24.55,29.949 -61.83,44.942 -111.85,44.942 h -53.27 V 460.559 h 40.76 c 55.58,0 96.33,16.121 122.27,48.402 25.94,32.25 38.91,81.578 38.91,147.98 z m 189.89,6.477 c 0,-113.02 -31.11,-200.09 -93.33,-261.219 -62.22,-61.14 -149.68,-91.711 -262.37,-91.711 h -219.08 v 677.141 h 234.37 c 108.67,0 192.59,-27.789 251.72,-83.367 59.12,-55.582 88.69,-135.864 88.69,-240.844" /><path
         id="path58"
         style="fill:#201d1c;fill-opacity:1;fill-rule:nonzero;stroke:none"
         d="M 4743.11,593.949 V 451.75 h 64.39 c 57.12,0 85.68,24.09 85.68,72.258 0,22.543 -7.64,39.832 -22.93,51.871 -15.28,12.043 -37.44,18.07 -66.46,18.07 z m 0,133.852 h 55.12 c 26.24,0 46.55,5.398 60.91,16.207 14.35,10.812 21.53,26.863 21.53,48.172 0,37.98 -28.71,56.961 -86.14,56.961 h -51.42 z m -182.94,259.828 h 236.22 c 92,0 160.32,-13.66 204.94,-40.988 44.62,-27.321 66.93,-69.86 66.93,-127.602 0,-37.98 -9.73,-70.398 -29.18,-97.258 -19.45,-26.871 -45.09,-44.16 -76.88,-51.883 v -4.628 c 41.98,-11.122 72.4,-29.641 91.24,-55.579 18.82,-25.941 28.25,-59.589 28.25,-100.972 0,-61.438 -23.09,-109.84 -69.24,-145.199 -46.17,-35.352 -109.08,-53.032 -188.74,-53.032 h -263.54 v 677.141" /><path
         id="path60"
         style="fill:#201d1c;fill-opacity:1;fill-rule:nonzero;stroke:none"
         d="m 5601.36,310.488 h -402.03 v 677.141 h 402.03 V 840.809 H 5382.27 V 734.281 h 202.87 V 587.461 H 5382.27 V 459.629 h 219.09 V 310.488" /><path
         id="path62"
         style="fill:#201d1c;fill-opacity:1;fill-rule:nonzero;stroke:none"
         d="m 6018.66,310.488 h -182.95 v 527.543 h -165.34 v 149.598 h 513.18 V 838.031 H 6018.66 V 310.488" /><path
         id="path64"
         style="fill:#201d1c;fill-opacity:1;fill-rule:nonzero;stroke:none"
         d="m 6579.08,310.488 h -182.95 v 527.543 h -165.34 v 149.598 h 513.18 V 838.031 H 6579.08 V 310.488" /><path
         id="path66"
         style="fill:#201d1c;fill-opacity:1;fill-rule:nonzero;stroke:none"
         d="m 7242.79,310.488 h -402.02 v 677.141 h 402.02 V 840.809 H 7023.71 V 734.281 h 202.87 V 587.461 H 7023.71 V 459.629 h 219.08 V 310.488" /><path
         id="path68"
         style="fill:#201d1c;fill-opacity:1;fill-rule:nonzero;stroke:none"
         d="m 7544.3,694.449 h 34.28 c 63.92,0 95.88,28.262 95.88,84.762 0,46.617 -31.35,69.93 -94.02,69.93 h -36.14 z m 0,-137.558 V 310.488 h -182.93 v 677.141 h 221.84 c 184.03,0 276.05,-66.699 276.05,-200.09 0,-78.43 -38.3,-139.098 -114.87,-182.019 L 7941.7,310.488 h -207.49 l -143.59,246.403 h -46.32" /><path
         id="path70"
         style="fill:#201d1c;fill-opacity:1;fill-rule:nonzero;stroke:none"
         d="M 7941.98,1239.3 H 0 v 97.71 h 7941.98 v -97.71" /><path
         id="path72"
         style="fill:#201d1c;fill-opacity:1;fill-rule:nonzero;stroke:none"
         d="M 7941.98,0 H 0 V 97.7305 H 7941.98 V 0" /><g
         id="g74"><g
           clip-path="url(#clipPath80)"
           id="g76"><path
             id="path90"
             style="fill:url(#linearGradient88);fill-opacity:1;fill-rule:nonzero;stroke:none"
             d="m 6325.34,4577.14 c 57.72,-38.43 96.89,-81.42 124.41,-133.72 29.38,-55.81 44.81,-113.61 47.41,-178.59 2.97,-74.47 -3.51,-156.38 -24.63,-233.26 2.95,3.98 17.44,19.58 28.91,37.79 50.44,79.98 156.15,281.53 78.52,465.66 0,0 -73.56,163.15 -386.65,304.5 0,0 -347.07,148.86 -511.35,285.93 0,0 -280.05,239.58 -300.11,448.15 l -0.03,-0.37 c -124.18,-574.22 563.56,-731.82 943.52,-996.09" /></g></g><g
         id="g92"><g
           clip-path="url(#clipPath98)"
           id="g94"><path
             id="path112"
             style="fill:url(#linearGradient110);fill-opacity:1;fill-rule:nonzero;stroke:none"
             d="m 7485.77,4579.16 c -3.46,2.32 -6.55,3.77 -9.01,4.76 -8.75,3.51 -18.5,5.63 -33.61,5.63 -10.98,0 -23.85,-1.18 -39.07,-3.71 0,0 -14.24,-2.36 -39.81,-2.36 -31.8,0 -81.22,3.54 -143.05,19.83 0,0 -44.06,9.43 -105.1,9.43 -91.23,0 -220.16,-21.33 -296.92,-127.71 0,0 -93.47,-117.53 -174.97,-314.27 0,0 -149.28,-312.57 -350.38,-439.63 0,0 -211.39,-163.04 -498.74,-203.91 0,0 -75.93,-14.07 -178.47,-14.07 -79.51,0 -175.14,8.59 -263.18,38.74 0,0 -141.32,33.94 -268.32,101.71 -42.5,22.67 -91.34,48.91 -124.8,79.15 0,0 -6.25,-29.38 -6.45,-71.87 v -3.95 c 0.2,-49.03 8.76,-114.49 43.57,-172.86 0,0 5.04,-11.19 12.98,-24.89 65.77,-57.36 147.97,-77.44 229.8,-77.44 191.14,0 413.83,106.72 599.06,117.78 265.88,0 561.18,34.46 768.3,181.92 154.86,110.35 258.46,297 343.74,496.08 85.99,215.29 293.33,349.34 534.43,401.64" /></g></g><path
         id="path114"
         style="fill:#f7ba1e;fill-opacity:1;fill-rule:nonzero;stroke:none"
         d="m 5903.28,3258.54 c 0,0 -87.94,-233.74 -178.36,-292.8 0,0 -22.66,-18.83 -61.87,-32.97 -23.56,-8.5 -59.29,-16.93 -93.47,-16.93 -5.05,0 -35.44,0.61 -40.7,0.93 34.04,-10.09 89.4,-20.68 121.3,-23.99 1.46,-0.16 9.65,0.11 11,-0.01 323.77,-29.55 356.32,313.56 442.71,530.1 0.84,0.83 1.74,1.62 2.67,2.36 10.47,8.4 36.67,7.95 54.3,9.21 -0.98,0 -6.22,1.88 -7.35,2.08 -5.74,1.03 -7.25,1.19 -15.23,1.74 -8.66,0.61 -18.22,-1.54 -25.23,-2.68 -56.28,-9.15 -145.92,-45.54 -209.77,-177.04" /><g
         id="g116"><g
           clip-path="url(#clipPath122)"
           id="g118"><path
             id="path132"
             style="fill:url(#linearGradient130);fill-opacity:1;fill-rule:nonzero;stroke:none"
             d="m 7580.49,3794.54 c -52.14,0 -104.54,4.09 -155.56,14.56 -34.35,7.05 -67.98,17.16 -102.43,23.73 -29.75,5.6 -59.87,9.51 -90.14,11.52 -13.94,0.96 -28.01,1.37 -42.05,1.37 -58.38,0 -91.92,-8.36 -91.92,-8.36 -100.25,-26.14 -176.58,-69.41 -219.46,-97.79 -9.94,-6.58 -25.51,-17.38 -31.74,-21.96 13.53,4.1 34.66,11.81 48.41,13.57 33.43,4.26 67.16,3.01 99.53,3.01 83.71,0 162.64,-38.66 245.33,-57.21 82.42,-18.74 167.02,-26.32 250.61,-26.32 46.92,0 98.99,8.09 146.47,22.94 209.35,80.62 401.82,163.11 565.74,334.56 l 11.29,13.6 c -121.78,-93.27 -368.53,-176.04 -368.53,-176.04 -90.23,-40.07 -186.2,-51.18 -265.55,-51.18" /></g></g><g
         id="g134"><g
           clip-path="url(#clipPath140)"
           id="g136"><path
             id="path150"
             style="fill:url(#linearGradient148);fill-opacity:1;fill-rule:nonzero;stroke:none"
             d="m 8170.64,4386.39 c -93.82,-70.2 -207.43,-108.44 -321.78,-128.69 -159.03,-28.35 -330.43,21.74 -485.54,-31.04 -231.88,-76.99 -383.34,-327.88 -383.34,-327.88 5.03,3.21 10.12,6.3 15.15,9.46 192.98,231.35 567.16,99.75 835.9,178.72 240.5,60.19 467.5,229.11 557.61,469.97 -74.06,-76.87 -218,-170.54 -218,-170.54" /></g></g><g
         id="g152"><g
           clip-path="url(#clipPath158)"
           id="g154"><path
             id="path168"
             style="fill:url(#linearGradient166);fill-opacity:1;fill-rule:nonzero;stroke:none"
             d="m 5909.88,3439.36 c -135.95,0 -319.66,-138.1 -319.66,-138.1 -117.96,-77.05 -218.85,-106.98 -218.85,-106.98 -31.72,-8.27 -61.07,-11.63 -88.06,-11.63 -85,0 -143.54,33.46 -166.37,49.1 68.18,-85.17 157.6,-160.18 248.34,-160.18 41.39,0 83.03,11.25 123.52,36.47 156.91,78.43 284.16,273.66 464.54,321.23 -13.33,8.05 -26.18,9.35 -32.18,9.73 -3.72,0.24 -7.47,0.36 -11.28,0.36" /></g></g><g
         id="g170"><g
           clip-path="url(#clipPath176)"
           id="g172"><path
             id="path188"
             style="fill:url(#linearGradient186);fill-opacity:1;fill-rule:nonzero;stroke:none"
             d="m 6041.64,4043.56 c 0,0 -207.02,16.02 -317.51,62.64 0,0 -218.66,75.79 -270.64,116.5 0,0 15.97,-20.7 24.01,-28.57 70.86,-69.33 152.92,-150 244.59,-184.44 68.86,-43.83 163.67,-77.95 256,-82.48 88.78,-4.36 175.29,11.78 234.06,-30.55 24.14,-17.39 34.35,-26.18 47.4,-49.54 4.55,-8.16 9.75,-23.13 12.66,-36.72 2.87,2.4 4.66,6.16 7.15,11.44 2.96,6.27 4.47,14.54 5.13,19.92 5.7,46.71 -0.62,130.76 -102.69,172.1 0,0 -37.11,16.37 -140.16,29.7" /></g></g><g
         id="g190"><g
           clip-path="url(#clipPath196)"
           id="g192"><path
             id="path206"
             style="fill:url(#linearGradient204);fill-opacity:1;fill-rule:nonzero;stroke:none"
             d="m 5352.14,4600.93 c 232.36,-215.96 571.86,-258.35 870.82,-407.69 107.63,-46.19 138.79,-169.8 128.3,-294.43 13.66,31.17 67.97,160.43 22.01,291.86 0,0 -23.27,108.88 -294.72,212.04 0,0 -379.39,131.34 -504.43,213.16 0,0 -259.49,134.13 -341.16,345.86 0,0 -9.46,-32.68 -7.24,-81.09 18.03,-106.82 50.16,-216.22 126.42,-279.71" /></g></g><g
         id="g208"><g
           clip-path="url(#clipPath214)"
           id="g210"><path
             id="path236"
             style="fill:url(#linearGradient234);fill-opacity:1;fill-rule:nonzero;stroke:none"
             d="m 7480.97,4581.48 c -241.48,-52.39 -464.32,-181.01 -550.51,-396.63 -84.29,-196.46 -175.22,-367.49 -327.3,-477.65 -178.02,-128.86 -449.6,-182.17 -665.37,-198.73 -71.81,-5.5 -143.74,-5.61 -215.02,-17 -65.79,-10.52 -130.53,-26.79 -195.32,-42.07 -64.84,-15.3 -129.97,-30.4 -196.12,-38.92 -35.32,-4.54 -70.93,-7.28 -106.56,-6.56 -78.26,1.6 -179.42,54.49 -242.6,109.57 7.13,-12.25 15.41,-39.3 33.62,-62.92 40.8,-52.89 111.34,-112.33 187.97,-118.19 0,0 108.83,-19.71 278.47,52.34 0,0 284.51,103.12 457.71,106.94 0,0 379.84,-3.51 541.26,54 121.96,43.55 222.33,97.97 326.25,228.55 103.99,130.62 130.98,239.97 164.44,309.93 0,0 100.9,210.04 224.07,309.56 0,0 156.95,134.71 299.54,177.97 0,0 -3.63,5.22 -14.53,9.81" /></g></g><g
         id="g238"><g
           clip-path="url(#clipPath244)"
           id="g240"><path
             id="path258"
             style="fill:url(#linearGradient256);fill-opacity:1;fill-rule:nonzero;stroke:none"
             d="m 6331.69,4584.1 c -380.73,264.67 -1058.92,429.89 -949.84,989.5 -1.71,-8.77 -96.98,-176.25 2.71,-407.57 0,0 72.52,-204.38 325.28,-359.58 0,0 210.01,-119.93 363.82,-179.56 0,0 330.24,-117.14 388.09,-332.99 2.7,-10.07 4.81,-20.37 6.27,-30.87 1.53,-11.11 2.45,-17.84 3.53,-34.17 0,0 1.4,-24.53 3.5,-57.33 2.93,-45.77 4.9,-107.37 -2.52,-139.96 l 1.24,1.68 c 2.38,4.42 3.48,8.55 4.92,12.84 1.86,5.56 2.84,11.08 4.18,16.58 6.92,28.52 10.96,56.88 14.9,85.35 23.46,169.21 -11.04,332.73 -166.08,436.08" /></g></g><g
         id="g260"><g
           clip-path="url(#clipPath266)"
           id="g262"><path
             id="path276"
             style="fill:url(#linearGradient274);fill-opacity:1;fill-rule:nonzero;stroke:none"
             d="m 6189.73,4226.79 c -36.79,16.09 -75.58,28.77 -112.56,43.63 -52.76,21.2 -106.12,40.83 -159.48,60.44 -30.52,11.21 -61.05,22.41 -91.48,33.88 -106.12,40.01 -211.28,82.7 -309,140.81 -54.46,32.38 -101.73,71.38 -150.23,111.75 -76.37,63.59 -123.34,156.36 -141.26,263.34 4.74,-97.1 31.09,-260.2 146.67,-363.47 0,0 105.79,-99.26 218.99,-146 0,0 181.69,-77.7 343.47,-122.57 0,0 299.07,-80.26 375.98,-199.73 0,0 51.08,-80.43 36.98,-157.37 0,0 1.37,2.58 3.45,7.31 2.9,6.58 3.16,14.63 3.54,21.7 0.73,13.37 0.83,26.89 0.92,40.28 0.06,9.23 -0.55,18.44 -0.76,27.65 -0.22,9.76 -0.73,19.54 -1.65,29.27 -1.85,19.63 -5.31,39.08 -11.19,57.93 -19.05,61.06 -63.24,105.43 -118.86,135.05 -10.91,5.8 -22.12,11.12 -33.53,16.1" /></g></g><g
         id="g278"><g
           clip-path="url(#clipPath284)"
           id="g280"><path
             id="path298"
             style="fill:url(#linearGradient296);fill-opacity:1;fill-rule:nonzero;stroke:none"
             d="m 5716.26,4035.14 c -24.24,14.69 -184.88,116.06 -262.77,187.56 24.01,-37.85 159.88,-239.28 365.66,-311.98 0,0 115.95,-48.12 264.28,-42.06 0,0 10.29,1.51 26.2,2.27 44.44,2.11 132.66,-1.65 162.58,-60.53 0,0 1.16,-1 2.87,5.09 -8.82,41.16 -25.68,75.97 -47.64,92.4 -42.66,31.91 -106.12,19.61 -178.3,26.03 -112.89,10.03 -245.49,45.59 -332.88,101.22" /></g></g><g
         id="g300"><g
           clip-path="url(#clipPath306)"
           id="g302"><path
             id="path316"
             style="fill:url(#linearGradient314);fill-opacity:1;fill-rule:nonzero;stroke:none"
             d="m 5499.98,3120.44 c -128.59,-80.42 -272.58,-20.61 -372.27,103.56 -7.09,4.64 -10.76,7.96 -10.76,7.96 32.27,-51 69.24,-88.72 69.24,-88.72 132.81,-147.52 285.05,-107.17 285.05,-107.17 105.62,29.78 285.05,240.91 285.05,240.91 123.69,147.02 197.05,152.29 197.05,152.29 l -2.5,0.31 c -180.66,-47.64 -293.54,-230.59 -450.86,-309.14" /></g></g><g
         id="g318"><g
           clip-path="url(#clipPath324)"
           id="g320"><path
             id="path340"
             style="fill:url(#linearGradient338);fill-opacity:1;fill-rule:nonzero;stroke:none"
             d="m 6098.67,3419.91 c -41.24,-37.84 -58.68,-90.66 -75.93,-142.28 -30.44,-90.98 -57.13,-200.77 -115.83,-278.39 -39.1,-51.69 -93.97,-81.18 -157.2,-92.31 -34.96,-6.13 -75.21,-11.54 -110.66,-8.84 -37.18,2.73 -73.82,10.57 -110.17,18.68 35.47,-14.65 68.76,-27.18 107.31,-33.53 50.48,-8.18 117.09,-20.91 168.12,-9.2 100.15,22.69 163.2,88.55 198.01,183.88 9.95,27.08 13.5,55.4 19.28,83.5 12.18,58.56 31.1,116.34 54.08,171.46 17.88,42.84 41.9,98.59 85.18,121.56 0,0 -5.79,0.91 -15.93,1.02 -19.22,-1.37 -35.83,-5.3 -46.26,-15.55" /></g></g><g
         id="g342"><g
           clip-path="url(#clipPath348)"
           id="g344"><path
             id="path358"
             style="fill:url(#linearGradient356);fill-opacity:1;fill-rule:nonzero;stroke:none"
             d="m 8415.53,4589.93 c -1.42,-2.23 -3.11,-4.41 -4.8,-6.77 l -0.68,-0.89 c -6.42,-8.57 -14.33,-17.36 -23.09,-26.66 -56.37,-114.96 -111.28,-196.31 -200.76,-280.19 -82.9,-77.7 -187.53,-133.49 -296.9,-166.61 -34.8,-10.6 -70.3,-18.6 -106.06,-25.46 -90.3,-17.12 -178.61,-20.16 -269.9,-11.23 -95.18,9.3 -196.36,13.91 -290.25,-8.11 -72.61,-17.05 -130.16,-63.02 -185.97,-110.45 -16.57,-14.07 -36.03,-34.68 -50.84,-50.64 68.23,41.32 146.31,76.61 224.38,93.66 41.33,9.03 92.2,12.89 127.09,10.17 93.56,-7.23 186.17,-16.69 280.13,-15.2 6.37,0.16 12.67,0.29 18.94,0.37 292.94,21.24 476.82,153.39 476.82,153.39 306.44,193.52 301.89,444.62 301.89,444.62" /></g></g><g
         id="g360"><g
           clip-path="url(#clipPath366)"
           id="g362"><path
             id="path376"
             style="fill:url(#linearGradient374);fill-opacity:1;fill-rule:nonzero;stroke:none"
             d="m 7640.81,3690.47 c 209.94,67.06 410.33,160.12 571.55,328.45 -8.48,-12.3 -233.16,-342.67 -678.06,-424.52 0,0 -163.64,-24.9 -312.33,33.62 -11.67,4.59 -23.04,9.93 -34.2,15.64 -3.08,1.57 -6.13,3.19 -9.21,4.76 -48.17,24.58 -200.52,93.26 -342.74,60.23 0,0 5.25,4.44 14.73,11.48 117.58,35.73 221.04,41.9 324.3,13.41 129.43,-35.65 262.34,-108.14 465.96,-43.07" /></g></g></g></g></svg>