<?xml version="1.0" encoding="UTF-8"?>
<!DOCTYPE svg PUBLIC "-//W3C//DTD SVG 1.1//EN" "http://www.w3.org/Graphics/SVG/1.1/DTD/svg11.dtd">
<!-- Creator: CorelDRAW X6 -->
<svg xmlns="http://www.w3.org/2000/svg" xml:space="preserve" width="17.9722in" height="5.54166in" version="1.1" style="shape-rendering:geometricPrecision; text-rendering:geometricPrecision; image-rendering:optimizeQuality; fill-rule:evenodd; clip-rule:evenodd"
viewBox="0 0 17972 5542"
 xmlns:xlink="http://www.w3.org/1999/xlink">
 <defs>
  <style type="text/css">
   <![CDATA[
    .fil0 {fill:#363435;fill-rule:nonzero}
    .fil3 {fill:#FAC040;fill-rule:nonzero}
    .fil15 {fill:url(#id0)}
    .fil16 {fill:url(#id1)}
    .fil6 {fill:url(#id2)}
    .fil7 {fill:url(#id3)}
    .fil9 {fill:url(#id4)}
    .fil13 {fill:url(#id5)}
    .fil14 {fill:url(#id6)}
    .fil8 {fill:url(#id7)}
    .fil10 {fill:url(#id8)}
    .fil2 {fill:url(#id9)}
    .fil5 {fill:url(#id10)}
    .fil11 {fill:url(#id11)}
    .fil1 {fill:url(#id12)}
    .fil4 {fill:url(#id13)}
    .fil12 {fill:url(#id14)}
   ]]>
  </style>
  <linearGradient id="id0" gradientUnits="userSpaceOnUse" x1="15891.4" y1="1937.12" x2="17979.2" y2="1937.12">
   <stop offset="0" style="stop-color:#D88B43"/>
   <stop offset="0.580392" style="stop-color:#EBAA41"/>
   <stop offset="1" style="stop-color:#FFC93E"/>
  </linearGradient>
  <linearGradient id="id1" gradientUnits="userSpaceOnUse" x1="15671.7" y1="2597.7" x2="17682.4" y2="2597.7">
   <stop offset="0" style="stop-color:#D88B43"/>
   <stop offset="0.670588" style="stop-color:#EBAA41"/>
   <stop offset="1" style="stop-color:#FFC93E"/>
  </linearGradient>
  <linearGradient id="id2" gradientUnits="userSpaceOnUse" x1="13160.7" y1="3384.68" x2="14382.5" y2="3384.68">
   <stop offset="0" style="stop-color:#F89C40"/>
   <stop offset="0.129412" style="stop-color:#FFC93E"/>
   <stop offset="1" style="stop-color:#FFC93E"/>
  </linearGradient>
  <linearGradient id="id3" gradientUnits="userSpaceOnUse" x1="13652.3" y1="2272.92" x2="14874.6" y2="2272.92">
   <stop offset="0" style="stop-color:#FFC93E"/>
   <stop offset="0.25098" style="stop-color:#FFC93E"/>
   <stop offset="0.74902" style="stop-color:#FBB141"/>
   <stop offset="1" style="stop-color:#FBB141"/>
  </linearGradient>
  <linearGradient id="id4" gradientUnits="userSpaceOnUse" x1="12963.8" y1="2374.41" x2="16635.3" y2="2374.41">
   <stop offset="0" style="stop-color:#D88543"/>
   <stop offset="0.168627" style="stop-color:#DF9743"/>
   <stop offset="0.270588" style="stop-color:#E7A743"/>
   <stop offset="0.360784" style="stop-color:#DF9843"/>
   <stop offset="0.521569" style="stop-color:#D88B43"/>
   <stop offset="0.611765" style="stop-color:#D88B43"/>
   <stop offset="0.768627" style="stop-color:#E9A842"/>
   <stop offset="1" style="stop-color:#FFC93E"/>
  </linearGradient>
  <linearGradient id="id5" gradientUnits="userSpaceOnUse" x1="13160.7" y1="3447.24" x2="14382.5" y2="3447.24">
   <stop offset="0" style="stop-color:#D88543"/>
   <stop offset="0.309804" style="stop-color:#D88543"/>
   <stop offset="1" style="stop-color:#FFC93E"/>
  </linearGradient>
  <linearGradient id="id6" gradientUnits="userSpaceOnUse" x1="13762.4" y1="3540.36" x2="14685.7" y2="3540.36">
   <stop offset="0" style="stop-color:#D08543"/>
   <stop offset="0.309804" style="stop-color:#D08543"/>
   <stop offset="0.741176" style="stop-color:#E3A343"/>
   <stop offset="0.909804" style="stop-color:#FFC93E"/>
   <stop offset="1" style="stop-color:#FFC93E"/>
  </linearGradient>
  <linearGradient id="id7" gradientUnits="userSpaceOnUse" x1="15071.5" y1="1513.08" x2="13307.9" y2="1824.05">
   <stop offset="0" style="stop-color:#FCB53F"/>
   <stop offset="0.768627" style="stop-color:#FFC93E"/>
   <stop offset="1" style="stop-color:#FFC93E"/>
  </linearGradient>
  <linearGradient id="id8" gradientUnits="userSpaceOnUse" x1="14722.2" y1="2275.52" x2="13884.6" y2="-25.9449">
   <stop offset="0" style="stop-color:#C58343"/>
   <stop offset="0.368627" style="stop-color:#DDA242"/>
   <stop offset="0.858824" style="stop-color:#FFC93E"/>
   <stop offset="1" style="stop-color:#FFC93E"/>
  </linearGradient>
  <linearGradient id="id9" gradientUnits="userSpaceOnUse" x1="13488.3" y1="3378.05" x2="16055.2" y2="1224.2">
   <stop offset="0" style="stop-color:#F5BC41"/>
   <stop offset="0" style="stop-color:#F5BC41"/>
   <stop offset="0.329412" style="stop-color:#F3AF3F"/>
   <stop offset="0.521569" style="stop-color:#FFC93E"/>
   <stop offset="1" style="stop-color:#FFC93E"/>
  </linearGradient>
  <linearGradient id="id10" gradientUnits="userSpaceOnUse" x1="16205.1" y1="2556.63" x2="17617" y2="1371.88">
   <stop offset="0" style="stop-color:#FAAC40"/>
   <stop offset="0.678431" style="stop-color:#FFC93E"/>
   <stop offset="1" style="stop-color:#FFC93E"/>
  </linearGradient>
  <linearGradient id="id11" gradientUnits="userSpaceOnUse" x1="14419.5" y1="2474.95" x2="13879.5" y2="991.323">
   <stop offset="0" style="stop-color:#D08543"/>
   <stop offset="0.6" style="stop-color:#E7A741"/>
   <stop offset="1" style="stop-color:#FFC93E"/>
  </linearGradient>
  <linearGradient id="id12" gradientUnits="userSpaceOnUse" x1="15389.3" y1="1677.32" x2="13475.3" y2="572.256">
   <stop offset="0" style="stop-color:#FDBA3F"/>
   <stop offset="0.819608" style="stop-color:#FFC93E"/>
   <stop offset="1" style="stop-color:#FFC93E"/>
  </linearGradient>
  <linearGradient id="id13" gradientUnits="userSpaceOnUse" x1="16168.9" y1="2971.08" x2="17205" y2="2101.64">
   <stop offset="0" style="stop-color:#FCB53F"/>
   <stop offset="0.521569" style="stop-color:#FFC93E"/>
   <stop offset="1" style="stop-color:#FFC93E"/>
  </linearGradient>
  <linearGradient id="id14" gradientUnits="userSpaceOnUse" x1="14372.8" y1="2604.44" x2="14132" y2="1942.86">
   <stop offset="0" style="stop-color:#D88543"/>
   <stop offset="0.0705882" style="stop-color:#D88543"/>
   <stop offset="0.831373" style="stop-color:#FFC93E"/>
   <stop offset="1" style="stop-color:#FFC93E"/>
  </linearGradient>
 </defs>
 <g id="Layer_x0020_1">
  <metadata id="CorelCorpID_0Corel-Layer"/>
  <path class="fil0" d="M1571 1205c-145,-71 -339,-124 -558,-124 -318,0 -476,131 -476,311 0,162 78,268 409,413l254 113c388,173 554,381 554,727 0,434 -409,731 -928,731 -314,0 -593,-56 -826,-166l127 -314c201,102 434,162 678,162 311,0 487,-152 487,-339 0,-198 -88,-307 -399,-445l-300 -127c-342,-152 -512,-378 -512,-695 0,-371 367,-688 907,-688 293,0 505,35 706,131l-124 311z"/>
  <path class="fil0" d="M2351 2408c0,448 236,649 558,649 148,0 293,-35 417,-124l99 261c-180,124 -381,180 -642,180 -484,0 -868,-314 -868,-925 0,-508 399,-907 942,-907 226,0 388,32 547,95l-102 286c-113,-53 -258,-88 -406,-88 -342,0 -544,222 -544,572z"/>
  <path class="fil0" d="M4419 1823c-307,0 -484,261 -484,639 0,374 176,639 484,639 311,0 487,-261 487,-639 0,-378 -180,-639 -487,-639zm0 -279c568,0 932,371 932,897 0,519 -381,935 -932,935 -572,0 -925,-364 -925,-893 0,-526 374,-939 925,-939z"/>
  <path class="fil0" d="M6138 1876c0,339 -14,695 7,935 14,169 134,247 258,247 124,0 212,-21 300,-78l88 247c-131,95 -321,148 -533,148 -307,0 -537,-208 -537,-593 0,-265 14,-614 14,-907l-289 0 0 -289 293 0c0,-169 0,-286 -7,-445l441 -95c-21,187 -28,374 -28,540l551 0 0 289 -558 0z"/>
  <path class="fil0" d="M7556 1876c0,339 -14,695 7,935 14,169 134,247 258,247 124,0 212,-21 300,-78l88 247c-131,95 -321,148 -533,148 -307,0 -537,-208 -537,-593 0,-265 14,-614 14,-907l-289 0 0 -289 293 0c0,-169 0,-286 -7,-445l441 -95c-21,187 -28,374 -28,540l551 0 0 289 -558 0z"/>
  <path class="fil0" d="M8855 3337l-452 0c18,-332 21,-533 21,-868 0,-360 -4,-529 -21,-882l452 0c-18,353 -21,522 -21,882 0,335 4,537 21,868zm-226 -2093c-176,0 -275,-113 -275,-247 0,-127 99,-240 275,-240 173,0 272,113 272,240 0,134 -99,247 -272,247z"/>
  <path class="fil0" d="M10288 1911c-131,-49 -275,-78 -438,-78 -265,0 -353,74 -353,176 0,85 49,141 244,215l215 85c339,131 466,282 466,540 0,314 -293,526 -695,526 -314,0 -508,-49 -678,-138l85 -282c159,85 357,134 547,134 244,0 342,-85 342,-201 0,-106 -49,-169 -297,-261l-215 -81c-272,-99 -413,-244 -413,-498 0,-282 265,-505 727,-505 222,0 381,21 547,81l-85 286z"/>
  <path class="fil0" d="M11132 1872c145,-219 339,-328 596,-328 339,0 572,233 572,635 0,229 -11,367 -11,558 0,233 0,364 18,600l-448 0c11,-222 18,-349 18,-579 0,-205 -4,-424 -11,-540 -14,-229 -134,-342 -328,-342 -148,0 -293,78 -402,244 -7,141 -11,371 -11,561 0,254 4,424 18,657l-452 0c18,-501 21,-794 21,-1302 0,-544 -4,-858 -21,-1391l452 0c-7,169 -14,427 -14,611 0,219 0,409 4,618z"/>
  <path class="fil0" d="M281 5323c230,0 528,-4 691,-13l-79 208 -893 0c11,-286 13,-453 13,-743 0,-313 -2,-489 -13,-796l288 0c-11,307 -13,483 -13,796 0,206 2,359 6,547z"/>
  <path class="fil0" d="M1335 5518l-275 0c11,-202 13,-324 13,-528 0,-219 -2,-322 -13,-537l275 0c-11,215 -13,318 -13,537 0,204 2,326 13,528zm-137 -1273c-107,0 -167,-69 -167,-150 0,-77 60,-146 167,-146 105,0 165,69 165,146 0,82 -60,150 -165,150z"/>
  <path class="fil0" d="M2001 4629c-112,0 -191,54 -249,148 -4,67 -6,155 -6,238 0,129 2,273 6,326 52,24 109,34 189,34 191,0 322,-139 322,-386 0,-249 -101,-361 -262,-361zm-520 -749l275 0c-4,105 -9,260 -9,371 0,133 0,249 2,376 84,-137 217,-200 359,-200 228,0 419,172 419,504 0,348 -230,610 -616,610 -189,0 -326,-34 -427,-90 9,-275 11,-416 11,-726 0,-331 -2,-590 -13,-846z"/>
  <path class="fil0" d="M2892 4863l511 0c-17,-191 -99,-275 -251,-275 -152,0 -247,107 -260,275zm365 485c127,0 249,-41 333,-105l60 165c-118,90 -255,133 -447,133 -320,0 -565,-204 -565,-571 0,-328 217,-543 532,-543 279,0 479,176 479,502 0,32 0,58 -2,90l-754 0c17,225 155,328 363,328z"/>
  <path class="fil0" d="M4390 4428c56,0 90,4 125,21l-79 268c-39,-13 -71,-19 -116,-19 -84,0 -159,39 -221,137 -6,75 -11,172 -11,301 0,112 2,247 11,382l-275 0c11,-200 13,-324 13,-528 0,-219 -2,-328 -13,-537l236 0 30 221c71,-167 193,-247 301,-247z"/>
  <path class="fil0" d="M5004 5342c94,0 178,-43 247,-152 4,-67 6,-163 6,-249 0,-122 -2,-258 -6,-311 -56,-26 -110,-36 -187,-36 -174,0 -326,131 -326,369 0,264 114,380 266,380zm517 176l-249 0 -19 -174c-84,135 -221,198 -365,198 -217,0 -414,-187 -414,-528 0,-350 270,-586 601,-586 114,0 189,13 268,39l185 -56c-17,215 -19,331 -19,552 0,228 0,324 13,556z"/>
  <path class="fil0" d="M5994 5518l-275 0c11,-305 13,-483 13,-792 0,-331 -2,-520 -13,-846l275 0c-11,326 -13,515 -13,846 0,309 2,487 13,792z"/>
  <path class="fil0" d="M6970 4732c0,206 2,419 6,590 30,2 133,2 202,2 421,0 653,-206 653,-590 0,-382 -249,-562 -663,-562 -69,0 -133,0 -191,2 -4,135 -6,343 -6,558zm-275 786c11,-286 13,-453 13,-743 0,-313 -2,-489 -13,-796l517 0c552,0 899,236 899,715 0,511 -333,824 -915,824l-502 0z"/>
  <path class="fil0" d="M8503 4863l511 0c-17,-191 -99,-275 -251,-275 -152,0 -247,107 -260,275zm365 485c127,0 249,-41 333,-105l60 165c-118,90 -255,133 -447,133 -320,0 -565,-204 -565,-571 0,-329 217,-543 532,-543 279,0 479,176 479,502 0,32 0,58 -2,90l-753 0c17,225 155,328 363,328z"/>
  <path class="fil0" d="M11051 4814c0,139 -9,223 -9,339 0,142 0,221 11,365l-268 0c11,-135 11,-213 11,-352 0,-124 -2,-260 -6,-328 -9,-137 -75,-208 -189,-208 -90,0 -176,47 -243,148 -9,88 -11,221 -11,341 0,155 2,245 11,399l-271 0c11,-135 11,-213 11,-352 0,-124 0,-258 -4,-328 -9,-140 -77,-208 -191,-208 -90,0 -176,47 -240,148 -9,88 -11,221 -11,341 0,155 2,245 11,399l-271 0c11,-202 13,-324 13,-528 0,-219 -2,-320 -13,-537l240 0 26 174c88,-133 193,-200 361,-200 146,0 262,84 305,221 107,-150 230,-221 386,-221 202,0 341,142 341,386z"/>
  <path class="fil0" d="M11740 4597c-187,0 -294,159 -294,389 0,228 107,389 294,389 189,0 296,-159 296,-389 0,-230 -109,-389 -296,-389zm0 -170c346,0 567,225 567,545 0,316 -232,569 -567,569 -348,0 -562,-221 -562,-543 0,-320 228,-571 562,-571z"/>
  <path class="fil0" d="M12685 4953c0,273 144,395 339,395 90,0 178,-21 253,-75l60 159c-109,75 -232,109 -391,109 -294,0 -528,-191 -528,-562 0,-309 243,-552 573,-552 137,0 236,19 333,58l-62 174c-69,-32 -157,-54 -247,-54 -208,0 -331,135 -331,348z"/>
  <path class="fil0" d="M14078 4427c56,0 90,4 124,21l-79 268c-39,-13 -71,-19 -116,-19 -84,0 -159,39 -221,137 -6,75 -11,172 -11,301 0,112 2,247 11,382l-275 0c11,-200 13,-324 13,-528 0,-219 -2,-328 -13,-537l236 0 30 221c71,-167 193,-247 301,-247z"/>
  <path class="fil0" d="M14692 5342c94,0 178,-43 247,-152 4,-67 6,-163 6,-249 0,-122 -2,-258 -6,-311 -56,-26 -110,-36 -187,-36 -174,0 -326,131 -326,369 0,264 114,380 266,380zm517 176l-249 0 -19 -174c-84,135 -221,197 -365,197 -217,0 -414,-187 -414,-528 0,-350 270,-586 601,-586 114,0 189,13 268,39l185 -56c-17,215 -19,331 -19,552 0,228 0,324 13,556z"/>
  <path class="fil0" d="M15755 4629c0,206 -9,423 4,569 9,103 82,150 157,150 75,0 129,-13 183,-47l54 150c-79,58 -195,90 -324,90 -187,0 -326,-127 -326,-361 0,-161 9,-373 9,-552l-176 0 0 -176 178 0c0,-103 0,-174 -4,-270l268 -58c-13,114 -17,228 -17,328l335 0 0 176 -339 0z"/>
  <path class="fil0" d="M16995 4651c-79,-30 -168,-47 -266,-47 -161,0 -215,45 -215,107 0,52 30,86 148,131l131 52c206,79 283,172 283,328 0,191 -178,320 -423,320 -191,0 -309,-30 -412,-84l52 -172c97,52 217,82 333,82 148,0 208,-52 208,-122 0,-64 -30,-103 -180,-159l-131 -49c-165,-60 -251,-148 -251,-303 0,-172 161,-307 442,-307 135,0 232,13 333,49l-52 174z"/>
  <path class="fil1" d="M14449 1181l0 0 0 0 -26 -14 0 0 0 0c-24,-12 -47,-25 -71,-37l0 0 0 0 -21 -11 0 0 0 0 -18 -10 0 0 0 0c-20,-11 -41,-22 -61,-33l0 0 0 0 -12 -7 0 0 0 0 -12 -7 0 0 0 0 -10 -5 0 0 0 0c-7,-4 -15,-8 -22,-12l0 0 0 0c-9,-5 -18,-10 -26,-15l0 0 0 0c-3,-2 -6,-4 -9,-6l0 0 0 0c-10,-6 -20,-12 -31,-18l0 0 0 0 -7 -4 0 0 0 0 -7 -4 0 0 0 0c-2,-1 -5,-3 -7,-4l0 0 0 0c-4,-2 -7,-5 -11,-7l0 0 0 0 -7 -4 0 0 0 0c-11,-7 -22,-14 -33,-21l0 0 0 0 -4 -3 0 0 0 0c-5,-3 -10,-6 -15,-10l0 0 0 0 -4 -3 0 0 0 0c-13,-8 -25,-16 -37,-25l0 0 0 0 -4 -3 0 0 0 0 -4 -3 0 0 0 0c-6,-4 -12,-8 -18,-12l0 0 0 0c-7,-5 -13,-9 -19,-14l0 0 0 0c-3,-2 -6,-5 -10,-7l0 0 0 0c-2,-1 -4,-3 -5,-4l0 0 0 0c-2,-1 -3,-3 -5,-4l0 0 0 0c-14,-10 -27,-20 -40,-30l0 0 0 0c-2,-2 -5,-4 -7,-5l0 0 0 0c-2,-2 -4,-4 -7,-5l0 0 0 0c-2,-2 -4,-4 -7,-5l0 0 0 0c-5,-4 -10,-8 -15,-12l0 0 0 0c-3,-3 -6,-6 -10,-8l0 0 0 0 -1 -1 0 0 0 0c-3,-2 -5,-5 -8,-7l0 0 0 0 -1 -1 0 0 0 0c-3,-3 -6,-6 -9,-8l0 0 0 0 -1 -1 0 0 0 0c-11,-10 -22,-20 -33,-31l0 0 0 0 -1 -1 0 0 0 0 -1 -1 0 0 0 0 -1 -1 0 0 0 0 -1 -1 0 0 0 0 -1 -1 0 0 0 0 -1 -1 0 0 0 0 -1 -1 0 0 0 0 -1 -1 0 0 0 0 -1 -1 0 0 0 0 -1 -1 0 0 0 0c-7,-7 -14,-14 -20,-21l0 0 0 0 -1 -1 0 0 0 0c-5,-5 -9,-10 -14,-15l0 -1 -1 0 -1 -1 0 -1 0 0 -1 -1 0 0 0 0 -1 -1 0 0 0 0c-4,-4 -7,-8 -11,-12l0 0 0 0 -1 -1 0 0 0 0c-3,-3 -6,-6 -8,-10l0 0 0 0c-2,-3 -5,-5 -7,-8l0 0 0 0c-2,-2 -4,-4 -5,-7l0 0 0 0 -1 -1 0 0 0 0c-1,-2 -3,-3 -4,-5l0 -1 0 0 -1 -1 0 0 0 0c-1,-2 -3,-3 -4,-5l0 0 0 0 -1 -1 0 0 0 0c-1,-2 -3,-4 -4,-5l0 0 0 0c-2,-2 -4,-5 -5,-7l0 0 0 0c-2,-3 -5,-6 -7,-9l0 0 0 0c-1,-2 -3,-4 -4,-5l0 0 0 0 -3 -4 0 0 0 0c-1,-1 -2,-2 -2,-3l0 -1 -1 0 -1 -1 0 0 0 0 -3 -4 0 0 0 0c-1,-1 -2,-3 -3,-4l0 0 0 0c-1,-1 -2,-3 -3,-4l0 0 0 0 -3 -4 0 0 0 0c-5,-8 -10,-16 -15,-24l0 0 0 0 -1 -2 0 -1 0 0c-1,-1 -2,-3 -2,-4l0 0 0 0 -1 -2 0 -1 0 0c-1,-1 -2,-3 -2,-4l0 0 0 0c0,-1 -1,-1 -1,-2l0 -1 0 0c0,-1 -1,-1 -1,-2l0 -1 -1 0c-1,-1 -2,-3 -2,-4l0 0 0 0 -1 -2 0 0 0 0c-2,-3 -4,-6 -5,-10l0 0 0 0c-4,-7 -7,-14 -11,-21l0 -1 0 0 -1 -2 0 -1 0 0 -1 -2 0 -1 0 0 -1 -2 0 -1 0 0 -1 -2 0 -1 0 0c0,-1 -1,-1 -1,-2l0 -1 0 0c0,-1 -1,-2 -1,-2l0 0 0 0 -1 -3 0 0 0 0c-2,-4 -4,-8 -6,-12l0 0 0 0c-2,-5 -5,-11 -7,-16l0 0 0 0c-1,-2 -2,-4 -3,-7l0 0 0 0 -1 -3 0 -1 0 0c0,-1 -1,-2 -1,-2l0 0 0 0c0,-1 -1,-2 -1,-3l0 -1 0 0c0,-1 -1,-2 -1,-3l0 -2 -1 0c0,-1 -1,-2 -1,-2l0 0 0 0c0,-1 -1,-2 -1,-4l0 0 0 0 -1 -3 0 -1 0 0c-3,-8 -6,-16 -8,-25l0 0 0 0 -1 -4 0 -1 0 0 -1 -3 0 -1 0 0c0,-1 -1,-3 -1,-4l0 -2 0 0c0,-1 -1,-2 -1,-3l0 -2 -1 0c0,-1 0,-2 -1,-3l0 -1 0 0c0,-1 -1,-3 -1,-4l0 -1 0 0c0,-1 -1,-3 -1,-4l0 -1 0 0c-2,-7 -4,-15 -5,-23l0 -1 0 0c0,-2 -1,-4 -1,-6l0 -1 0 0c0,-2 -1,-4 -1,-6l0 -2 0 0c0,-2 -1,-3 -1,-5l0 -4 -1 0c0,-2 0,-3 -1,-5l0 -2 0 0c0,-2 -1,-5 -1,-7l0 -2 0 0c0,-3 -1,-5 -1,-8l0 -1 0 0c-1,-7 -2,-15 -3,-22l0 -3 0 0c0,-3 -1,-7 -1,-10l0 -7 -1 0c0,-4 0,-8 -1,-12l0 -6 0 0c-1,-9 -1,-18 -1,-27l0 -34c0,-11 1,-21 1,-32l0 0 0 -1c0,-5 1,-9 1,-14l0 0 0 -5c0,-3 0,-6 1,-9l1 0 0 -6c0,-3 1,-6 1,-9l0 0 0 -3c0,-4 1,-7 1,-11l0 0 0 -1c1,-6 2,-12 3,-18l0 0 0 -1c0,-2 1,-5 1,-7l0 0 0 -2c0,-2 1,-4 1,-7l0 0 0 -2c0,-2 0,-3 1,-5l1 0 0 -4c0,-1 1,-3 1,-4l1 0 0 -3c0,-2 1,-4 1,-6l0 0 0 -1c0,-2 1,-4 1,-6l0 0 0 -1c0,-2 1,-5 1,-7l0 0 0 0c1,-3 1,-6 2,-9l0 0 0 0c21,219 239,462 359,581l0 0 0 0c47,46 79,74 79,74 240,200 747,418 747,418 6,3 12,6 18,8l0 0 0 0c30,14 58,28 85,42l0 0 0 0 3 1 0 0 0 0c12,6 24,13 36,19l0 0 0 0c22,12 43,24 62,36l0 0 0 0c34,21 65,41 93,61l0 0 0 0c25,18 48,36 69,53 6,5 11,9 17,14l0 0 0 0c3,3 7,6 10,8l0 0 0 0c33,28 60,55 82,79l0 0 0 0c4,5 8,9 12,14l0 0 0 0c8,9 16,18 22,26l0 0 0 0c40,50 55,82 55,82 1,2 1,3 2,5l0 0 0 0 1 3 0 1 0 0 1 3 0 0 0 0c0,1 1,2 1,3l0 1 0 0 1 3 0 1 0 0 1 3 0 2 1 0 1 2 0 2 1 0 1 2 0 1 0 0 1 3 0 1 0 0 1 3 0 1 0 0 1 4 0 1 0 0c0,1 1,3 1,4l0 0 0 0c1,3 2,6 3,9l0 1 0 0c0,1 1,3 1,4l0 1 0 0c0,1 1,3 1,4l0 2 0 0 1 4 0 2 0 0 1 4 0 2 0 0 1 4 0 1 0 0c0,2 1,3 1,5l0 2 0 0 1 5 0 0 0 0c0,2 1,5 1,7l0 0 0 0c0,3 1,5 1,8l0 2 0 0c0,2 1,5 1,7l0 3 0 0c0,2 1,5 1,7l0 3 0 0c0,3 1,6 1,9l0 1 0 0c0,4 1,9 1,13l0 2 0 0c1,6 1,12 1,19l0 11 0 0c0,11 0,22 0,33l0 0 0 12c-1,12 -1,24 -3,35l0 0 0 2c0,3 -1,7 -1,10l0 0 0 2c0,3 -1,6 -1,9l0 0 0 2c-1,6 -2,12 -3,18l0 0 0 1c0,2 -1,5 -1,7l0 0 0 1c0,2 -1,4 -1,6l0 0 0 2 -1 7 0 0 0 1 -1 6 0 0 0 1c-1,6 -3,13 -4,19l0 0 0 0c0,2 -1,4 -1,5l0 0 0 1 -1 5 0 0 0 1 -1 5 0 0 0 1 -1 5 0 0 0 1c0,2 -1,3 -1,5l0 0 0 0c-1,5 -3,10 -4,15l0 0 0 0 -1 4 0 0 0 1c-1,3 -2,6 -3,9l0 0 0 0 -1 4 0 0 0 1c-4,13 -8,25 -12,37l0 0 0 1 -1 4 0 0 0 0c-2,5 -4,10 -6,15l0 0 0 0c-3,7 -5,14 -8,21l0 0 0 0 -3 6 0 0 0 0 -3 7 0 0 0 0c-3,8 -6,15 -10,22l0 0 0 0c-2,5 -5,10 -7,15l0 0 0 0 -1 3 0 0 0 0c-9,19 -18,36 -26,53l0 0 0 0c-5,10 -10,19 -15,28l0 0 0 0c-6,11 -12,21 -18,30l0 0 0 0c-3,5 -6,9 -8,14 -17,27 -38,49 -42,55 31,-112 40,-232 36,-341 -4,-95 -26,-179 -69,-261 -40,-76 -97,-139 -182,-195 -139,-97 -307,-184 -477,-273z"/>
  <path class="fil2" d="M16621 1451c-5,-3 -9,-6 -13,-7 -13,-5 -27,-8 -49,-8 -16,0 -35,2 -57,5 0,0 -21,3 -58,3 -46,0 -119,-5 -209,-29 0,0 -64,-14 -153,-14 -133,0 -322,31 -434,187 0,0 -137,172 -256,459 0,0 -218,457 -512,642 0,0 -309,238 -728,298 0,0 -111,21 -261,21 -116,0 -256,-13 -384,-57 0,0 -206,-50 -392,-149 -62,-33 -133,-71 -182,-116 0,0 -9,43 -9,105l0 6c0,72 13,167 64,253 0,0 7,16 19,36 96,84 216,113 336,113 279,0 604,-156 875,-172 388,0 820,-50 1122,-266 226,-161 378,-434 502,-725 126,-314 429,-510 781,-587z"/>
  <path class="fil3" d="M14309 3380c0,0 -128,341 -260,428 0,0 -33,28 -90,48 -34,12 -87,25 -137,25 -7,0 -52,-1 -59,-1 50,15 131,30 177,35 2,0 14,0 16,0 473,43 521,-458 647,-774 1,-1 3,-2 4,-3 15,-12 53,-12 79,-13 -2,0 -9,-3 -11,-3 -8,-1 -11,-2 -22,-3 -13,-1 -27,2 -37,4 -82,13 -213,67 -307,259z"/>
  <path class="fil4" d="M16759 2597c-76,0 -153,-6 -227,-21 -50,-10 -99,-25 -150,-35 -43,-8 -87,-14 -132,-17 -20,-1 -41,-2 -61,-2 -85,0 -134,12 -134,12 -146,38 -258,101 -321,143 -15,10 -37,25 -46,32 20,-6 51,-17 71,-20 49,-6 98,-4 145,-4 122,0 238,56 358,84 120,27 244,38 366,38 69,0 145,-12 214,-34 306,-118 587,-238 826,-489l17 -20c-178,136 -538,257 -538,257 -132,59 -272,75 -388,75z"/>
  <path class="fil5" d="M17622 1733c-137,103 -303,158 -470,188 -232,41 -483,-32 -709,45 -339,112 -560,479 -560,479 7,-5 15,-9 22,-14 282,-338 828,-146 1221,-261 351,-88 683,-335 814,-687 -108,112 -318,249 -318,249z"/>
  <path class="fil6" d="M14319 3116c-199,0 -467,202 -467,202 -172,113 -320,156 -320,156 -46,12 -89,17 -129,17 -124,0 -210,-49 -243,-72 100,124 230,234 363,234 60,0 121,-16 180,-53 229,-115 415,-400 679,-469 -19,-12 -38,-14 -47,-14 -6,0 -11,-1 -17,-1z"/>
  <path class="fil7" d="M14512 2233c0,0 -303,-23 -464,-92 0,0 -319,-111 -395,-170 0,0 23,30 35,42 104,101 223,219 357,269 101,64 239,114 374,120 130,6 256,-17 342,45 35,25 50,38 69,72 7,12 14,34 18,54 4,-4 7,-9 10,-17 4,-9 7,-21 8,-29 8,-68 -1,-191 -150,-251 0,0 -54,-24 -205,-43z"/>
  <path class="fil8" d="M13504 1419c339,315 835,377 1272,596 157,67 203,248 187,430 20,-46 99,-234 32,-426 0,0 -34,-159 -431,-310 0,0 -554,-192 -737,-311 0,0 -379,-196 -498,-505 0,0 -14,48 -11,118 26,156 73,316 185,409z"/>
  <path class="fil9" d="M16614 1448c-353,77 -678,264 -804,579 -123,287 -256,537 -478,698 -260,188 -657,266 -972,290 -105,8 -210,8 -314,25 -96,15 -191,39 -285,61 -95,22 -190,44 -286,57 -52,7 -104,11 -156,10 -114,-2 -262,-80 -354,-160 10,18 23,57 49,92 60,77 163,164 275,173 0,0 159,29 407,-76 0,0 416,-151 669,-156 0,0 555,5 791,-79 178,-64 325,-143 477,-334 152,-191 191,-351 240,-453 0,0 147,-307 327,-452 0,0 229,-197 438,-260 0,0 -5,-8 -21,-14z"/>
  <path class="fil10" d="M15143 2022l0 0 0 0c-2,-35 -4,-59 -4,-59 -2,-24 -3,-34 -5,-50 -2,-15 -5,-30 -9,-45 -84,-315 -567,-486 -567,-486 -11,-4 -22,-9 -33,-13l0 0 0 0c-22,-9 -45,-19 -68,-29l0 0 0 0c-206,-92 -430,-220 -430,-220 -2,-1 -4,-2 -6,-4l0 0 0 0c-4,-2 -7,-5 -11,-7l0 0 0 0c-9,-6 -19,-12 -28,-18l0 0 0 0c-1,-1 -3,-2 -4,-3l0 0 0 0c-11,-7 -22,-15 -32,-22l0 0 0 0c-11,-8 -21,-16 -32,-23l0 0 0 0c-2,-1 -4,-3 -5,-4l0 0 0 0c-4,-3 -8,-6 -12,-10l0 0 0 0 -7 -5 0 0 0 0c-2,-2 -5,-4 -7,-6l0 0 0 0c-9,-7 -17,-14 -25,-21l0 0 0 0c-7,-6 -14,-12 -21,-18l0 0 0 0c-13,-12 -26,-23 -37,-35l0 0 0 0c-11,-10 -21,-20 -31,-30l0 0 0 0 -1 -1 0 0 0 0c-8,-8 -15,-16 -22,-24l0 0 0 0c-8,-8 -15,-17 -22,-25l0 0 0 0c-8,-9 -15,-18 -22,-26l0 0 0 0c-15,-19 -29,-37 -42,-54l0 0 0 0c-10,-14 -19,-27 -28,-40l0 0 0 0c-4,-7 -9,-13 -12,-19l0 0 0 0c-11,-17 -20,-33 -28,-47l0 0 0 0c-8,-15 -15,-29 -21,-40l0 0 0 0c-12,-26 -18,-41 -18,-41 -2,-6 -5,-12 -7,-17l0 0 0 0c-1,-2 -2,-5 -3,-7l0 0 0 0c-2,-6 -5,-12 -7,-18l0 0 0 0c-3,-9 -7,-18 -10,-28l0 0 0 0 -1 -4 0 0 0 0 -1 -4 0 0 0 0c-2,-6 -4,-12 -6,-18l0 0 0 0c-1,-3 -2,-6 -3,-10l0 0 0 0c-2,-7 -4,-14 -5,-21l0 0 0 0 -1 -5 0 0 0 0c-10,-42 -16,-83 -19,-120l0 0 0 0c-1,-7 -1,-15 -1,-22l0 -1 0 0c-1,-23 -1,-45 0,-65l0 0 0 -1c3,-69 16,-126 29,-168l0 0 0 0c5,-15 9,-29 14,-40l0 0 0 0c10,-26 18,-41 18,-44l0 0c-128,659 491,944 1027,1232l0 0 0 0 18 10 0 0 0 0c33,18 66,36 99,54l0 0 0 0 12 7 0 0 0 0c10,6 20,11 29,17l0 0 0 0 10 5 0 0 0 0c32,18 63,37 93,55l0 0 0 0c4,2 7,5 11,7l0 0 0 0c4,2 7,5 11,7l0 0 0 0 4 3 0 0 0 0c21,13 41,27 61,40l0 0 0 0 4 3 0 0 0 0c2,2 5,3 7,5l0 0c4,2 7,5 11,7l0 0 0 0c1,1 3,2 4,3l0 0 0 0 1 1 0 0 1 0c1,1 2,2 4,2l0 0 0 0c2,1 3,3 5,4l0 0 0 0c1,1 2,2 4,3l0 0 0 0 1 1 0 0 0 0c4,3 7,6 11,8l0 0 0 0c2,2 5,4 7,6l0 0 0 0 1 1 0 0 0 0 1 1 0 0 1 0c2,2 4,4 6,5l0 0 0 0 1 1 0 0 0 0 1 1 0 1 1 0c3,2 5,5 8,7l0 0 0 0 1 1 0 0 0 0c16,15 32,31 46,47l0 0 0 0 1 1 0 0 0 0c2,2 4,4 5,6l0 1 0 0 1 1 0 0 0 0c2,2 4,4 5,7l0 0 0 0c2,2 4,5 5,7l0 0 0 0c1,2 3,4 4,5l0 0 0 0c1,1 2,2 3,4l0 1 0 0 1 1 0 0 0 0c1,1 2,3 3,4l0 0 0 0c1,1 2,2 3,4l0 1 0 0c1,1 2,2 2,4l0 1 0 0c1,2 3,4 4,6l0 0 0 0c4,6 8,12 11,18l0 1 0 0c1,2 3,4 4,7l0 0 0 0 1 2 0 1 0 0c1,1 2,3 2,4l0 0 0 0 1 2 0 0 0 0 1 2 0 1 0 0c2,4 4,8 7,12l0 0 0 0 1 3 0 0 0 0 1 3 0 0 0 0 1 3 0 0 0 0c2,4 4,8 6,12l0 1 0 0 1 2 0 1 0 0 1 2 0 0 0 0c3,6 6,13 8,19l0 0 0 0 1 3 0 1 0 0c1,2 2,4 2,6l0 0 0 0 1 3 0 1 0 0c1,2 2,5 2,7l0 0 0 0 1 4 0 0 0 0c1,3 2,5 3,8l0 0 0 0 1 4 0 0 0 0c1,3 2,6 3,9l0 1 0 0 1 4 0 0 0 0 1 4 0 1 0 0 1 4 0 0 0 0c1,5 3,11 4,16l0 1 0 0 1 5 0 1 0 0 1 6 0 1 0 0 1 5 0 1 0 0c0,2 1,4 1,6l0 1 0 0c1,5 2,9 3,14l0 0 0 0c0,3 1,5 1,8l0 2 0 0 1 7 0 1 0 0c0,3 1,6 1,8l0 1 0 0c0,3 1,6 1,9l0 0 0 0c0,4 1,8 1,12l0 2 0 0c0,4 1,8 1,12l0 3 0 0c0,5 1,11 1,16l0 0 0 0c1,14 1,28 1,42l0 2 0 0 0 4 0 0 0 8c0,14 -1,27 -1,41l0 0 0 1c0,6 -1,12 -1,18l0 0 0 3c-1,10 -2,19 -3,29l0 0 0 1c0,4 -1,8 -1,11l0 0 0 1c0,3 -1,7 -1,10l0 0 0 1c0,3 -1,7 -1,10l-1 9 0 0 0 1 -1 9 0 0 0 1 -1 9 0 0 0 1 -1 9 0 0 0 1 -1 8 0 0 0 1 -1 9 0 0 0 0 -1 8 0 0 0 0 -1 7 0 0 0 1 -1 6 0 0 0 2 -1 5 0 0 0 2 -1 5 -1 0 0 2 -1 4 0 0 0 2 -1 5 0 0 0 2 -1 5 0 0 0 1 -1 6 0 0 0 0 -1 4c-1,5 -2,9 -3,14l0 0 0 0c-1,3 -2,7 -3,10 -1,4 -2,8 -4,12l0 0 0 0c-1,2 -2,4 -3,7l-2 2c11,-48 8,-138 4,-204l-2 -24z"/>
  <path class="fil11" d="M14728 1966c-54,-24 -110,-42 -164,-64 -77,-31 -155,-60 -233,-88 -45,-16 -89,-33 -134,-50 -155,-58 -309,-121 -451,-206 -80,-47 -149,-104 -219,-163 -112,-93 -180,-228 -206,-385 7,142 45,380 214,531 0,0 155,145 320,213 0,0 265,114 502,179 0,0 437,117 549,292 0,0 75,117 54,230 0,0 2,-4 5,-11 4,-10 5,-21 5,-32 1,-20 1,-39 1,-59 0,-13 -1,-27 -1,-40 0,-14 -1,-29 -2,-43 -3,-29 -8,-57 -16,-85 -28,-89 -92,-154 -174,-197 -16,-8 -32,-16 -49,-24z"/>
  <path class="fil12" d="M14036 2246c-35,-21 -270,-170 -384,-274 35,55 234,350 534,456 0,0 169,70 386,61 0,0 15,-2 38,-3 65,-3 194,2 238,88 0,0 2,1 4,-7 -13,-60 -38,-111 -70,-135 -62,-47 -155,-29 -260,-38 -165,-15 -359,-67 -486,-148z"/>
  <path class="fil13" d="M13720 3582c-188,117 -398,30 -544,-151 -10,-7 -16,-12 -16,-12 47,75 101,130 101,130 194,216 416,157 416,157 154,-43 416,-352 416,-352 181,-215 288,-222 288,-222l-4 0c-264,70 -429,337 -659,452z"/>
  <path class="fil14" d="M14595 3144c-60,55 -86,132 -111,208 -44,133 -83,293 -169,407 -57,76 -137,119 -230,135 -51,9 -110,17 -162,13 -54,-4 -108,-15 -161,-27 52,21 100,40 157,49 74,12 171,31 246,13 146,-33 238,-129 289,-269 15,-40 20,-81 28,-122 18,-86 45,-170 79,-250 26,-63 61,-144 124,-178 0,0 -8,-1 -23,-1 -28,2 -52,8 -68,23z"/>
  <path class="fil15" d="M15908 2421l0 0 0 0c14,-14 29,-30 43,-43l0 0 0 0c5,-5 10,-9 14,-13 14,-12 27,-23 41,-34l0 0 0 0 7 -6 0 0 0 0 7 -5 0 0 0 0c13,-10 27,-21 40,-30l0 0 0 0c5,-3 9,-7 14,-10l0 0 0 0 4 -3 0 0 0 0 4 -3 0 0 0 0 4 -3 0 0 0 0 4 -3 0 0 0 0c4,-2 7,-5 11,-7l0 0 0 0c2,-1 4,-3 7,-4l0 0 0 0c2,-1 5,-3 7,-4l0 0 0 0 2 -1 0 0 0 0c3,-2 6,-4 10,-5l0 0 0 0 2 -1 0 0 0 0 2 -1 1 0 0 0 2 -1 1 0 0 0 2 -1 1 0 0 0 2 -1 1 0 0 0c8,-4 17,-8 26,-12l1 0 0 0 3 -1 0 0 0 0 3 -1 1 0 0 0 2 -1 0 0 0 0 3 -1 1 0 0 0 3 -1 0 0 0 0 3 -1 1 0 0 0c4,-1 7,-3 11,-4l0 0 0 0c3,-1 6,-2 9,-3l1 0 0 0 3 -1 1 0 0 0 4 -1 2 0 0 0 3 -1 1 0 0 0 4 -1 1 0 0 0c2,-1 5,-1 7,-2 3,-1 6,-1 10,-2l0 0 0 0 6 -1 1 0 0 0 6 -1 1 0 0 0 6 -1 2 0 0 0 5 -1 2 0 0 0 6 -1 1 0 0 0c5,-1 11,-2 16,-3l2 0 0 0 8 -1 2 0 0 0c3,0 5,-1 8,-1l2 0 0 0c3,0 7,-1 10,-1l1 0 0 0c9,-1 17,-2 26,-3l3 0 0 0c5,0 10,-1 14,-1l4 0 0 0c6,0 13,-1 19,-1l1 0 0 0c15,-1 29,-1 44,-1l2 0 0 0 8 0 0 0 23 0c15,0 31,1 46,1l0 0 4 0c16,1 32,2 48,3l0 0 1 0c6,0 12,1 18,1l0 0 1 0c11,1 22,2 34,3l0 0 0 0 15 1 0 0 0 0c5,0 10,1 15,1 133,13 262,9 394,-16 52,-10 104,-22 155,-37 160,-48 313,-130 434,-243 131,-123 211,-241 293,-409 13,-14 24,-26 34,-39l1 -1c3,-3 5,-7 7,-10l0 2c0,6 -1,26 -6,57l0 0 0 0c0,3 -1,5 -1,8l0 0 0 0c-3,18 -7,38 -14,61l0 0 0 0c-1,3 -2,6 -3,10l0 0 0 0c-4,14 -9,30 -15,46l0 0 0 0c-2,6 -4,12 -7,18l0 0 0 0c-1,2 -2,5 -3,7l0 0 0 0c-3,6 -5,13 -8,19l0 0 0 0c-2,5 -5,10 -7,15l0 0 0 0c-5,10 -10,20 -15,31l0 0 0 0 -1 3 0 0 0 0c-4,8 -9,17 -14,25l0 0 0 0c-3,5 -6,11 -10,16l0 0 0 0c-2,4 -5,7 -7,11l0 0 0 0c-17,27 -36,54 -58,82l0 0 0 0c-7,8 -14,17 -21,25l0 0 0 0c-3,4 -6,7 -10,11l0 0 0 0c-4,5 -8,9 -12,14l0 0 0 0 -1 1 0 0 0 0c-17,18 -35,36 -54,54l0 0 0 0 -1 1 0 0 0 0c-5,4 -9,8 -14,12l0 0 0 0c-7,6 -14,12 -21,18l0 0 0 0c-3,2 -5,5 -8,7l0 0 0 0c-3,2 -5,4 -8,7l0 0 0 0c-5,4 -9,7 -14,11l0 0 0 0c-4,3 -8,6 -12,10l0 0 0 0c-7,6 -15,11 -22,17l0 0 0 0c-3,2 -6,5 -9,7l0 0 0 0c-3,2 -6,5 -10,7l0 0 0 0c-5,3 -9,6 -14,10l0 0 0 0c-1,1 -3,2 -4,3l0 0 0 0 -4 3 0 0 0 0 -4 3 0 0 0 0 -4 3 0 0 0 0 -4 3 0 0 0 0c-6,4 -11,7 -17,11 0,0 -21,15 -60,37l0 0 0 0c-4,2 -8,5 -12,7l0 0 0 0c-6,3 -12,6 -18,10l0 0 0 0 -3 1 0 0 0 0c-20,10 -42,22 -68,33l0 0 0 0c-4,2 -8,4 -12,5l0 0 0 0c-7,3 -15,6 -22,10l0 0 0 0c-5,2 -11,5 -16,7l0 0 0 0 -7 3 0 0 0 0c-7,3 -14,5 -21,8l0 0 0 0c-4,1 -7,3 -11,4l0 0 0 0c-4,1 -7,3 -11,4l0 0 0 0c-4,1 -7,3 -11,4l0 0 0 0 -4 1 0 0 0 0c-8,3 -16,6 -24,8l0 0 0 0 -4 1 0 0 0 0 -4 1 0 0 0 0 -4 1 0 0 0 0 -4 1 0 0c-13,4 -26,8 -40,13l0 0 0 0c-3,1 -6,2 -9,3l0 0 0 0 -9 3 -1 0 0 0 -9 3 0 0 0 0c-12,3 -24,7 -36,10l-1 0 0 0 -5 1 -1 0 0 0 -5 1 -1 0 0 0 -5 1 -1 0 0 0 -5 1 0 0 0 0c-4,1 -8,2 -12,3l-1 0 0 0 -5 1 0 0 0 0c-6,1 -13,3 -19,4l0 0 0 0 -6 1 -1 0 0 0 -6 1 -1 0 0 0 -6 1 -1 0 0 0 -7 1 -2 0 0 0 -6 1 -1 0 0 0 -6 1 -1 0 0 0c-8,1 -15,3 -23,4l0 0 0 0 -8 1 -2 0 0 0c-2,0 -5,1 -7,1l-2 0 0 0 -7 1 -2 0 0 0c-3,0 -5,1 -8,1l-2 0 0 0c-3,0 -5,1 -8,1l-2 0 0 0c-3,0 -6,1 -9,1l-1 0 0 0c-7,1 -15,2 -22,3l-1 0 0 0c-4,0 -7,1 -11,1l-4 0 0 0c-3,0 -6,1 -9,1l-4 0 0 0c-4,0 -7,1 -11,1l-3 0 0 0c-5,0 -9,1 -14,1l0 0 0 0c-2,0 -5,0 -7,1 -9,0 -18,0 -28,1 -44,1 -87,0 -131,-2l0 0 -7 0c-7,0 -14,-1 -21,-1l0 0 -6 0c-7,0 -13,-1 -20,-1l0 0 -4 0c-13,-1 -26,-2 -39,-3l0 0 -2 0 -17 -1 0 0 -1 0 -17 -1 0 0 -2 0 -16 -1 0 0 -1 0c-41,-3 -83,-7 -124,-10 -51,-4 -125,2 -186,15 -114,25 -228,76 -328,137 5,-6 11,-12 17,-18z"/>
  <path class="fil16" d="M16848 2749c307,-98 599,-234 835,-480 -12,18 -341,501 -990,620 0,0 -239,36 -456,-49 -17,-7 -34,-15 -50,-23 -4,-2 -9,-5 -13,-7 -70,-36 -293,-136 -501,-88 0,0 8,-6 22,-17 172,-52 323,-61 474,-20 189,52 383,158 681,63z"/>
 </g>
</svg>
